<?xml version="1.0" encoding="UTF-8" standalone="no"?>
<!-- Created with Inkscape (http://www.inkscape.org/) -->

<svg
   xmlns:dc="http://purl.org/dc/elements/1.1/"
   xmlns:cc="http://creativecommons.org/ns#"
   xmlns:rdf="http://www.w3.org/1999/02/22-rdf-syntax-ns#"
   xmlns:svg="http://www.w3.org/2000/svg"
   xmlns="http://www.w3.org/2000/svg"
   xmlns:sodipodi="http://sodipodi.sourceforge.net/DTD/sodipodi-0.dtd"
   xmlns:inkscape="http://www.inkscape.org/namespaces/inkscape"
   width="441.40454"
   height="137.51962"
   id="svg2882"
   version="1.1"
   inkscape:version="0.47 r22583"
   sodipodi:docname="Atari 2600 Logo.svg">
  <defs
     id="defs2884">
    <inkscape:perspective
       sodipodi:type="inkscape:persp3d"
       inkscape:vp_x="0 : 526.18109 : 1"
       inkscape:vp_y="0 : 1000 : 0"
       inkscape:vp_z="744.09448 : 526.18109 : 1"
       inkscape:persp3d-origin="372.04724 : 350.78739 : 1"
       id="perspective2890" />
    <inkscape:perspective
       id="perspective2868"
       inkscape:persp3d-origin="0.5 : 0.33333333 : 1"
       inkscape:vp_z="1 : 0.5 : 1"
       inkscape:vp_y="0 : 1000 : 0"
       inkscape:vp_x="0 : 0.5 : 1"
       sodipodi:type="inkscape:persp3d" />
  </defs>
  <sodipodi:namedview
     id="base"
     pagecolor="#ffffff"
     bordercolor="#666666"
     borderopacity="1.0"
     inkscape:pageopacity="0.0"
     inkscape:pageshadow="2"
     inkscape:zoom="2.1837856"
     inkscape:cx="208.25577"
     inkscape:cy="55.375174"
     inkscape:document-units="px"
     inkscape:current-layer="layer1"
     showgrid="false"
     inkscape:window-width="1280"
     inkscape:window-height="744"
     inkscape:window-x="-4"
     inkscape:window-y="-4"
     inkscape:window-maximized="1"
     inkscape:snap-bbox="true"
     inkscape:snap-page="true">
    <inkscape:grid
       type="xygrid"
       id="grid2908"
       empspacing="5"
       visible="true"
       enabled="true"
       snapvisiblegridlinesonly="true" />
  </sodipodi:namedview>
  <metadata
     id="metadata2887">
    <rdf:RDF>
      <cc:Work
         rdf:about="">
        <dc:format>image/svg+xml</dc:format>
        <dc:type
           rdf:resource="http://purl.org/dc/dcmitype/StillImage" />
        <dc:title></dc:title>
      </cc:Work>
    </rdf:RDF>
  </metadata>
  <g
     inkscape:label="Layer 1"
     inkscape:groupmode="layer"
     id="layer1"
     transform="translate(-161.31127,-46.459513)">
    <path
       style="fill:#3b6fc6;fill-opacity:1"
       d="m 161.51367,181.27765 c 8.2259,-26.15722 13.8867,-45.92771 18.0115,-62.90618 0.8251,-3.39616 3.8396,-13.8162 6.6989,-23.155649 2.8593,-9.33944 7.0051,-22.97724 9.2129,-30.30621 5.1649,-17.14553 10.846,-21.47819 21.6863,-16.53902 5.9178,2.69634 8.5099,7.81253 14.2874,28.20024 2.906,10.25475 6.9541,24.202349 8.9957,30.994669 15.3816,51.17289 21.7606,74.27463 20.8057,75.34924 -0.6115,0.68814 -4.5084,1.03547 -8.6598,0.77185 l -7.5479,-0.4793 -4.9423,-15.18879 c -2.7182,-8.35383 -5.7556,-16.16886 -6.7498,-17.36674 -2.4316,-2.92986 -39.7915,-3.1439 -43.3417,-0.24831 -1.3012,1.0613 -4.2587,8.18166 -6.5721,15.82303 -2.3135,7.64136 -4.4858,14.76172 -4.8275,15.82302 -0.3991,1.23999 -3.7101,1.92964 -9.264,1.92964 -7.5258,0 -8.5331,-0.34916 -7.7933,-2.70149 z m 65.5599,-50.34188 c 1.3056,-1.57317 1.2138,-3.4152 -0.3653,-7.33263 -1.1599,-2.87742 -4.4547,-13.47872 -7.3218,-23.55845 -4.8971,-17.216939 -7.5096,-21.764599 -10.6515,-18.541309 -2.4024,2.46463 -14.4445,46.347279 -13.4381,48.969839 0.8202,2.13752 3.3973,2.56349 15.5084,2.56349 10.3681,0 15.0236,-0.60123 16.2683,-2.10094 z m 56.85009,52.08357 c -0.6041,-0.60416 -1.09849,-26.54654 -1.09849,-57.64972 0,-41.926019 -0.479,-57.030319 -1.8524,-58.403689 -1.157,-1.15701 -6.8964,-1.85245 -15.2881,-1.85245 l -13.4357,0 -0.642,-8.10448 c -0.3532,-4.45746 -0.19778,-9.633935 0.0422,-10.139125 0.24,-0.50519 18.02725,-0.129663 40.13345,-0.226513 l 40.44133,0.07195 0,9.19908 0,9.19909 -14.4763,0 c -10.6564,0 -14.9587,0.58136 -16.3047,2.20321 -1.3522,1.62936 -1.7247,17.00873 -1.4301,59.046897 l 0.3983,56.8437 -7.6945,0.45527 c -4.232,0.2504 -8.1888,-0.0391 -8.793,-0.64322 z m 44.94731,-0.11794 -8.3034,-0.15524 1.8,-7.73362 c 2.1383,-6.75883 17.941,-61.79136 20.6973,-72.07817 6.732,-25.124089 13.1999,-45.649539 15.6713,-49.732239 2.1733,-3.59023 4.5573,-5.25581 8.6114,-6.01636 10.802,-2.02646 15.8314,3.7218 21.7641,24.8744 1.6669,5.94329 5.4765,18.79467 8.4658,28.558639 2.9894,9.76396 9.364,30.95138 14.166,47.08315 4.8019,16.13177 8.9314,30.60875 9.5533,32.03198 1.2765,2.92177 -0.3371,2.70149 -8.4958,2.70149 l -9.3183,0 -2.3309,-7.33262 c -1.282,-4.03294 -2.7504,-9.44468 -3.263,-12.02609 -0.5127,-2.5814 -2.2881,-6.92309 -3.9453,-9.64818 l -3.0132,-4.95473 -19.7958,0 c -13.5503,0 -20.5397,0.60881 -22.1534,1.92964 -1.2966,1.0613 -3.1981,5.05565 -4.2256,8.87633 -1.0274,3.82068 -2.5063,8.33604 -3.2863,10.03412 -0.7801,1.69808 -2.0039,5.51876 -2.7195,8.4904 -1.3881,5.76411 0.7426,5.32607 -9.8787,5.0971 z m 58.0746,-52.82256 c 0.4807,-0.7778 0.08,-3.38281 -0.8896,-5.78892 -0.97,-2.40611 -4.3064,-13.05811 -7.4141,-23.67111 -4.7407,-16.189759 -6.1361,-19.296379 -8.6674,-19.296379 -2.2727,0 -3.4732,1.71383 -4.8659,6.9467 -1.0169,3.82068 -3.9571,13.893389 -6.5338,22.383789 -6.7887,22.36888 -7.6235,20.84008 11.379,20.84008 8.8648,0 16.5111,-0.63637 16.9918,-1.41416 z m 51.3476,51.39525 c -0.5288,-0.52874 -0.9896,-27.79452 -1.024,-60.59062 -0.067,-64.186499 -0.067,-64.191779 8.1488,-70.286419 3.8694,-2.8704 6.4904,-3.23624 23.1861,-3.23624 18.7948,0 18.8376,0.008 28.0439,5.47224 7.7923,4.62469 9.9992,6.97674 14.2489,15.18605 5.7697,11.1456 6.6097,21.55233 2.6468,32.791549 -2.7517,7.80407 -11.3521,17.31622 -19.4257,21.48514 -10.3492,5.34392 -10.0063,6.68991 9.5016,37.29115 l 14.0736,22.07664 -8.0325,0.47361 c -4.4179,0.26047 -8.8613,0.15556 -9.8742,-0.23315 -1.013,-0.38871 -8.6446,-11.59875 -16.9592,-24.91121 -12.7534,-20.41949 -15.1041,-25.17032 -15.0321,-30.38107 0.1063,-7.70334 3.4247,-12.94642 9.0629,-14.31949 17.1932,-4.18705 25.2303,-20.997439 17.0208,-35.600969 -4.9904,-8.87732 -11.5586,-11.73319 -25.8085,-11.22161 l -11.5778,0.41564 -0.4045,58.275049 -0.4045,58.27505 -8.2145,0 c -4.518,0 -8.6472,-0.43261 -9.1759,-0.96134 z m 96.1568,-66.9619 0,-67.923229 9.2622,0 9.26229,0 0,67.923229 0,67.92324 -9.26229,0 -9.2622,0 0,-67.92324 z"
       id="path2839"
       sodipodi:nodetypes="cssssssscccsssssccsssssccsscccscccccscccccccssssssscccscccssssccssssssccssssssscccsssssccccccccccccccc" />
    <text
       xml:space="preserve"
       style="font-size:48.49572372px;font-style:normal;font-weight:normal;fill:#3b6fc6;fill-opacity:1;stroke:none;font-family:Century Gothic;-inkscape-font-specification:Century Gothic"
       x="-163.88103"
       y="598.96686"
       id="text2901"
       transform="matrix(0.00932114,-0.99449687,1.0052326,0.03211282,0,0)"
       inkscape:transform-center-x="36.672788"><tspan
         sodipodi:role="line"
         id="tspan2903"
         x="-163.88103"
         y="598.96686">52OO</tspan></text>
    <path
       style="fill:#951c1b;fill-opacity:1"
       d="m 2.1133417,137.02094 c -1.0205154,-0.17901 -1.56202381,-0.62663 -1.56202381,-1.29118 0,-0.55944 2.57275621,-9.5525 5.71723611,-19.98457 3.1444796,-10.43207 6.994073,-23.823878 8.554652,-29.759568 7.97673,-30.339641 20.19988,-70.546628 23.390866,-76.94222 3.047523,-6.1080558 5.904291,-8.54308501 10.022717,-8.54308501 5.360038,0 10.364447,2.62729051 13.123998,6.89003491 2.535164,3.9161381 4.065675,8.2008381 9.408194,26.3384721 2.668584,9.059738 7.75074,26.313002 11.293671,38.340585 13.926039,47.276231 17.510111,60.377631 17.215599,62.930831 l -0.177429,1.53815 -7.100108,0.14254 c -3.90506,0.0784 -7.355713,-0.0494 -7.668117,-0.28401 -0.312405,-0.23459 -2.485038,-6.17661 -4.828074,-13.20448 -5.097861,-15.29089 -6.790027,-19.11679 -8.791792,-19.87786 -6.242472,-2.37339 -37.902549,-2.09726 -41.678103,0.36349 -0.735431,0.47933 -2.04847,2.4457 -2.917866,4.36972 -1.445955,3.19998 -5.954001,16.56286 -8.237541,24.41796 -0.584047,2.00905 -1.376543,3.45943 -2.102561,3.84798 -1.236437,0.66173 -11.0321725,1.16875 -13.6633183,0.70721 l 0,0 z M 64.290076,85.545398 C 67.641497,84.107916 67.600657,83.09218 63.695547,70.759292 61.796915,64.763154 59.041289,55.895362 57.57193,51.053089 53.464639,37.517496 51.700952,34.012828 48.996601,34.012828 c -1.093623,0 -1.632147,0.590081 -2.721498,2.982046 -2.709568,5.949591 -10.756183,34.77031 -12.168645,43.58468 -0.460789,2.875521 -0.429986,3.842118 0.140621,4.412728 1.367582,1.367584 5.765559,1.791449 16.85701,1.624636 8.585355,-0.12912 11.550627,-0.370086 13.185987,-1.07152 z"
       id="path2952"
       transform="translate(161.31127,46.459515)" />
    <path
       style="fill:#3b6fc6;fill-opacity:1"
       d="m 2.1133417,137.02094 c -1.0113253,-0.1774 -1.56202381,-0.62785 -1.56202381,-1.27768 0,-0.55202 2.18140061,-8.26706 4.84755691,-17.14453 C 11.077299,99.691341 14.64567,87.183569 16.728746,78.885513 21.730753,58.959712 35.276356,14.923595 38.212327,9.043402 41.276286,2.9068709 44.114253,0.50031699 48.286895,0.50031699 c 3.769323,0 8.470375,1.86350671 11.069895,4.38812901 4.003115,3.8877721 5.097474,6.956038 16.972104,47.584664 3.287066,11.246572 8.171044,27.860825 10.853288,36.920564 5.521777,18.650756 10.680989,37.257126 11.703757,42.208896 1.081227,5.23478 1.099443,5.22124 -7.009403,5.21113 -3.836763,-0.005 -7.231535,-0.19648 -7.543939,-0.42601 -0.312405,-0.22952 -2.452594,-6.04059 -4.755977,-12.9135 -5.231598,-15.6102 -6.90168,-19.41358 -8.849853,-20.15427 -5.879447,-2.23537 -36.367232,-2.14296 -41.098262,0.12457 -0.830565,0.39807 -2.065835,1.74476 -2.745044,2.99263 -1.269129,2.33169 -5.84094,15.45928 -8.454798,24.27729 -1.02575,3.46043 -1.828441,5.15857 -2.644946,5.59555 -1.241896,0.66464 -11.031875,1.17381 -13.6703753,0.71098 l 0,0 z M 64.255558,85.549851 C 65.396971,85.06555 66.491052,84.164574 66.686845,83.547683 67.102139,82.239201 66.404772,78.85433 64.731617,74.05744 64.077816,72.183011 61.754564,64.770498 59.568844,57.585188 53.388533,37.268137 51.94092,34.012828 49.086377,34.012828 c -1.013865,0 -1.654965,0.563965 -2.480414,2.181978 -2.410299,4.724577 -11.421046,36.789148 -12.440584,44.269584 -0.589357,4.324159 -0.170527,5.057242 3.306502,5.787401 4.174241,0.876568 24.306932,0.348939 26.783677,-0.70194 l 0,0 z"
       id="path2954"
       transform="translate(161.31127,46.459515)" />
    <path
       style="fill:#3b6fc6;fill-opacity:0"
       d="m 1.8293374,137.02687 c -0.7165072,-0.15893 -1.27801951,-0.71018 -1.27801951,-1.25466 0,-0.53415 2.44000111,-9.14301 5.42222491,-19.13079 C 8.9557661,106.65363 12.805795,93.241932 14.529162,86.837635 24.237739,50.759065 34.946307,15.583223 38.212031,9.043402 41.27638,2.9068478 44.114403,0.50031699 48.286895,0.50031699 c 3.769323,0 8.470375,1.86350671 11.069895,4.38812901 4.082017,3.9644044 4.77881,5.968959 19.600934,56.388799 16.667186,56.696095 20.62732,71.063715 20.320442,73.723875 l -0.177344,1.53727 -7.100108,0.14254 c -3.90506,0.0784 -7.355713,-0.0494 -7.668117,-0.28401 -0.312405,-0.23459 -2.193281,-5.26993 -4.179726,-11.18965 -4.582637,-13.65651 -6.746824,-19.3188 -7.93908,-20.77149 -1.270715,-1.5483 -5.566264,-2.20687 -17.133641,-2.62683 -10.072677,-0.3657 -23.022747,0.4714 -25.474958,1.64671 -0.882085,0.42277 -2.090826,1.96198 -3.008145,3.83055 -1.536239,3.12932 -5.356659,14.11007 -8.151128,23.4282 -1.043131,3.4783 -1.845996,5.15873 -2.677264,5.60361 -1.243007,0.66524 -11.7314226,1.1986 -13.9393176,0.70885 l 0,0 z M 59.442917,86.294669 c 5.129402,-0.589837 6.772458,-1.323488 7.25313,-3.238632 0.186414,-0.742745 -0.774503,-4.791993 -2.29755,-9.681724 C 62.958612,68.751557 60.52545,60.82056 58.991481,55.749878 53.469895,37.497791 51.557389,33.490782 48.708682,34.205762 c -1.136813,0.285322 -1.767129,1.144712 -2.87533,3.920306 -3.326875,8.332467 -11.087226,37.158032 -11.596257,43.073905 -0.318768,3.70466 -0.30827,3.739627 1.314724,4.379108 0.899832,0.354545 2.40287,0.744466 3.340084,0.866486 3.507226,0.456622 16.070025,0.364383 20.551014,-0.150898 l 0,0 z"
       id="path2956"
       transform="translate(161.31127,46.459515)" />
    <path
       style="fill:#3b6fc6;fill-opacity:0"
       d="M 1.800937,136.87004 C 0.80980494,136.58587 0.43630454,136.13119 0.56430489,135.36463 0.66516915,134.76058 3.3990688,125.32022 6.6396375,114.38606 9.8802059,103.45189 13.583759,90.543891 14.869754,85.701617 21.232873,61.742001 33.557022,20.329197 36.81999,11.942303 38.658619,7.2164248 41.486563,3.1477698 43.996304,1.6175061 47.82704,-0.71820724 55.427657,0.91136612 59.300506,4.8987295 c 3.994833,4.1129543 5.902587,9.2922185 15.222308,41.3262855 2.544878,8.747333 6.37375,21.783132 8.508605,28.968442 11.488061,38.665503 16.946346,58.992503 16.295993,60.687303 -0.309599,0.8068 -1.36025,0.94039 -7.337275,0.93294 -3.836762,-0.005 -7.249443,-0.19648 -7.583739,-0.42601 -0.334296,-0.22952 -2.459313,-5.91279 -4.722254,-12.62949 -5.137104,-15.24759 -7.068521,-19.58901 -9.076829,-20.40282 -1.97717,-0.80118 -13.050698,-1.7398 -20.525641,-1.7398 -7.857954,0 -18.544672,0.96843 -20.374197,1.84632 -2.573436,1.23484 -4.511189,5.80414 -10.293439,24.27236 l -2.578664,8.23612 -2.547143,0.6643 c -2.810432,0.73297 -10.2618504,0.87341 -12.487294,0.23536 z M 59.675675,86.281083 C 67.503744,85.381096 67.96746,84.046321 64.316704,72.922257 63.086232,69.17294 60.496948,60.865438 58.562742,54.461141 54.179023,39.946316 51.930211,34.781312 49.756755,34.235809 c -1.872771,-0.470036 -2.564513,0.313063 -4.245686,4.806401 -3.092416,8.265222 -10.459218,35.378931 -11.532244,42.444732 -0.468976,3.088166 0.413917,4.161146 3.904017,4.744559 4.005085,0.669501 16.160227,0.697151 21.792833,0.04959 l 0,-5e-6 z"
       id="path3730"
       transform="translate(161.31127,46.459515)" />
    <path
       style="fill:#3b6fc6;fill-opacity:0"
       d="M 1.800937,136.87004 C 0.80980494,136.58587 0.43630454,136.13119 0.56430489,135.36463 0.66516915,134.76058 3.3990688,125.32022 6.6396375,114.38606 9.8802059,103.45189 13.583759,90.543891 14.869754,85.701617 21.232873,61.742001 33.557022,20.329197 36.81999,11.942303 38.658619,7.2164248 41.486563,3.1477698 43.996304,1.6175061 47.82704,-0.71820724 55.427657,0.91136612 59.300506,4.8987295 c 3.994833,4.1129543 5.902587,9.2922185 15.222308,41.3262855 2.544878,8.747333 6.37375,21.783132 8.508605,28.968442 11.488061,38.665503 16.946346,58.992503 16.295993,60.687303 -0.309599,0.8068 -1.36025,0.94039 -7.337275,0.93294 -3.836762,-0.005 -7.249443,-0.19648 -7.583739,-0.42601 -0.334296,-0.22952 -2.459313,-5.91279 -4.722254,-12.62949 -5.137104,-15.24759 -7.068521,-19.58901 -9.076829,-20.40282 -1.97717,-0.80118 -13.050698,-1.7398 -20.525641,-1.7398 -7.857954,0 -18.544672,0.96843 -20.374197,1.84632 -2.573436,1.23484 -4.511189,5.80414 -10.293439,24.27236 l -2.578664,8.23612 -2.547143,0.6643 c -2.810432,0.73297 -10.2618504,0.87341 -12.487294,0.23536 z M 59.675675,86.281083 C 67.503744,85.381096 67.96746,84.046321 64.316704,72.922257 63.086232,69.17294 60.496948,60.865438 58.562742,54.461141 54.179023,39.946316 51.930211,34.781312 49.756755,34.235809 c -1.872771,-0.470036 -2.564513,0.313063 -4.245686,4.806401 -3.092416,8.265222 -10.459218,35.378931 -11.532244,42.444732 -0.468976,3.088166 0.413917,4.161146 3.904017,4.744559 4.005085,0.669501 16.160227,0.697151 21.792833,0.04959 l 0,-5e-6 z"
       id="path3732"
       transform="translate(161.31127,46.459515)" />
    <path
       style="fill:#3b6fc6;fill-opacity:0"
       d="M 1.800937,136.87004 C 0.80980494,136.58587 0.43630454,136.13119 0.56430489,135.36463 0.66516915,134.76058 3.3990688,125.32022 6.6396375,114.38606 9.8802059,103.45189 13.583759,90.543891 14.869754,85.701617 21.232873,61.742001 33.557022,20.329197 36.81999,11.942303 38.658619,7.2164248 41.486563,3.1477698 43.996304,1.6175061 47.82704,-0.71820724 55.427657,0.91136612 59.300506,4.8987295 c 3.994833,4.1129543 5.902587,9.2922185 15.222308,41.3262855 2.544878,8.747333 6.37375,21.783132 8.508605,28.968442 11.488061,38.665503 16.946346,58.992503 16.295993,60.687303 -0.309599,0.8068 -1.36025,0.94039 -7.337275,0.93294 -3.836762,-0.005 -7.249443,-0.19648 -7.583739,-0.42601 -0.334296,-0.22952 -2.459313,-5.91279 -4.722254,-12.62949 -5.137104,-15.24759 -7.068521,-19.58901 -9.076829,-20.40282 -1.97717,-0.80118 -13.050698,-1.7398 -20.525641,-1.7398 -7.857954,0 -18.544672,0.96843 -20.374197,1.84632 -2.573436,1.23484 -4.511189,5.80414 -10.293439,24.27236 l -2.578664,8.23612 -2.547143,0.6643 c -2.810432,0.73297 -10.2618504,0.87341 -12.487294,0.23536 z M 59.675675,86.281083 C 67.503744,85.381096 67.96746,84.046321 64.316704,72.922257 63.086232,69.17294 60.496948,60.865438 58.562742,54.461141 54.179023,39.946316 51.930211,34.781312 49.756755,34.235809 c -1.872771,-0.470036 -2.564513,0.313063 -4.245686,4.806401 -3.092416,8.265222 -10.459218,35.378931 -11.532244,42.444732 -0.468976,3.088166 0.413917,4.161146 3.904017,4.744559 4.005085,0.669501 16.160227,0.697151 21.792833,0.04959 l 0,-5e-6 z"
       id="path3734"
       transform="translate(161.31127,46.459515)" />
    <path
       style="fill:#3b6fc6;fill-opacity:0"
       d="M 1.800937,136.87004 C 0.80980494,136.58587 0.43630454,136.13119 0.56430489,135.36463 0.66516915,134.76058 3.3990688,125.32022 6.6396375,114.38606 9.8802059,103.45189 13.583759,90.543891 14.869754,85.701617 21.232873,61.742001 33.557022,20.329197 36.81999,11.942303 38.658619,7.2164248 41.486563,3.1477698 43.996304,1.6175061 47.82704,-0.71820724 55.427657,0.91136612 59.300506,4.8987295 c 3.994833,4.1129543 5.902587,9.2922185 15.222308,41.3262855 2.544878,8.747333 6.37375,21.783132 8.508605,28.968442 11.488061,38.665503 16.946346,58.992503 16.295993,60.687303 -0.309599,0.8068 -1.36025,0.94039 -7.337275,0.93294 -3.836762,-0.005 -7.249443,-0.19648 -7.583739,-0.42601 -0.334296,-0.22952 -2.459313,-5.91279 -4.722254,-12.62949 -5.137104,-15.24759 -7.068521,-19.58901 -9.076829,-20.40282 -1.97717,-0.80118 -13.050698,-1.7398 -20.525641,-1.7398 -7.857954,0 -18.544672,0.96843 -20.374197,1.84632 -2.573436,1.23484 -4.511189,5.80414 -10.293439,24.27236 l -2.578664,8.23612 -2.547143,0.6643 c -2.810432,0.73297 -10.2618504,0.87341 -12.487294,0.23536 z M 59.675675,86.281083 C 67.503744,85.381096 67.96746,84.046321 64.316704,72.922257 63.086232,69.17294 60.496948,60.865438 58.562742,54.461141 54.179023,39.946316 51.930211,34.781312 49.756755,34.235809 c -1.872771,-0.470036 -2.564513,0.313063 -4.245686,4.806401 -3.092416,8.265222 -10.459218,35.378931 -11.532244,42.444732 -0.468976,3.088166 0.413917,4.161146 3.904017,4.744559 4.005085,0.669501 16.160227,0.697151 21.792833,0.04959 l 0,-5e-6 z"
       id="path3736"
       transform="translate(161.31127,46.459515)" />
    <path
       style="fill:#3b6fc6;fill-opacity:0"
       d="m 122.98449,136.12857 c -0.57902,-0.91938 -1.21227,-35.72562 -1.29465,-71.159269 -0.0697,-30.001369 -0.63815,-43.159158 -1.91982,-44.440824 -1.33508,-1.33508 -4.604,-1.756598 -16.87872,-2.176459 L 91.134436,17.949871 90.775767,13.343157 C 90.578499,10.809464 90.415566,6.8833144 90.413694,4.6183798 l -0.0034,-4.11806281 40.044606,0 40.04461,0 0,8.71743921 0,8.7174388 -12.35418,0.395136 c -6.79481,0.217325 -13.29686,0.542075 -14.449,0.721667 -3.30962,0.515893 -4.24913,1.803524 -4.77756,6.547863 -0.25441,2.284096 -0.47362,28.179669 -0.48715,57.545717 l -0.0246,53.392812 -7.48259,0.15819 c -5.59862,0.11835 -7.59774,-0.0247 -7.93994,-0.56801 l 0,0 z"
       id="path3738"
       transform="translate(161.31127,46.459515)" />
    <path
       style="fill:#3b6fc6;fill-opacity:0"
       d="m 122.98449,136.12857 c -0.57902,-0.91938 -1.21227,-35.72562 -1.29465,-71.159269 -0.0697,-30.001369 -0.63815,-43.159158 -1.91982,-44.440824 -1.33508,-1.33508 -4.604,-1.756598 -16.87872,-2.176459 L 91.134436,17.949871 90.775767,13.343157 C 90.578499,10.809464 90.415566,6.8833144 90.413694,4.6183798 l -0.0034,-4.11806281 40.044606,0 40.04461,0 0,8.71743921 0,8.7174388 -12.35418,0.395136 c -6.79481,0.217325 -13.29686,0.542075 -14.449,0.721667 -3.30962,0.515893 -4.24913,1.803524 -4.77756,6.547863 -0.25441,2.284096 -0.47362,28.179669 -0.48715,57.545717 l -0.0246,53.392812 -7.48259,0.15819 c -5.59862,0.11835 -7.59774,-0.0247 -7.93994,-0.56801 l 0,0 z"
       id="path3740"
       transform="translate(161.31127,46.459515)" />
    <path
       style="fill:#3b6fc6;fill-opacity:0;fill-rule:nonzero"
       d="m 122.98449,136.12857 c -0.57902,-0.91938 -1.21227,-35.72562 -1.29465,-71.159269 -0.0697,-30.001369 -0.63815,-43.159158 -1.91982,-44.440824 -1.33508,-1.33508 -4.604,-1.756598 -16.87872,-2.176459 L 91.134436,17.949871 90.775767,13.343157 C 90.578499,10.809464 90.415566,6.8833144 90.413694,4.6183798 l -0.0034,-4.11806281 40.044606,0 40.04461,0 0,8.71743921 0,8.7174388 -12.35418,0.395136 c -6.79481,0.217325 -13.29686,0.542075 -14.449,0.721667 -3.30962,0.515893 -4.24913,1.803524 -4.77756,6.547863 -0.25441,2.284096 -0.47362,28.179669 -0.48715,57.545717 l -0.0246,53.392812 -7.48259,0.15819 c -5.59862,0.11835 -7.59774,-0.0247 -7.93994,-0.56801 l 0,0 z"
       id="path3742"
       transform="translate(161.31127,46.459515)" />
    <path
       style="fill:#3b6fc6;fill-opacity:0;fill-rule:nonzero"
       d="m 122.98449,136.12857 c -0.57902,-0.91938 -1.21227,-35.72562 -1.29465,-71.159269 -0.0697,-30.001369 -0.63815,-43.159158 -1.91982,-44.440824 -1.33508,-1.33508 -4.604,-1.756598 -16.87872,-2.176459 L 91.134436,17.949871 90.775767,13.343157 C 90.578499,10.809464 90.415566,6.8833144 90.413694,4.6183798 l -0.0034,-4.11806281 40.044606,0 40.04461,0 0,8.71743921 0,8.7174388 -12.35418,0.395136 c -6.79481,0.217325 -13.29686,0.542075 -14.449,0.721667 -3.30962,0.515893 -4.24913,1.803524 -4.77756,6.547863 -0.25441,2.284096 -0.47362,28.179669 -0.48715,57.545717 l -0.0246,53.392812 -7.48259,0.15819 c -5.59862,0.11835 -7.59774,-0.0247 -7.93994,-0.56801 l 0,0 z"
       id="path3762"
       transform="translate(161.31127,46.459515)" />
    <path
       style="fill:#3b6fc6;fill-opacity:0;fill-rule:nonzero"
       d="m 122.98449,136.12857 c -0.57902,-0.91938 -1.21227,-35.72562 -1.29465,-71.159269 -0.0697,-30.001369 -0.63815,-43.159158 -1.91982,-44.440824 -1.33508,-1.33508 -4.604,-1.756598 -16.87872,-2.176459 L 91.134436,17.949871 90.775767,13.343157 C 90.578499,10.809464 90.415566,6.8833144 90.413694,4.6183798 l -0.0034,-4.11806281 40.044606,0 40.04461,0 0,8.71743921 0,8.7174388 -12.35418,0.395136 c -6.79481,0.217325 -13.29686,0.542075 -14.449,0.721667 -3.30962,0.515893 -4.24913,1.803524 -4.77756,6.547863 -0.25441,2.284096 -0.47362,28.179669 -0.48715,57.545717 l -0.0246,53.392812 -7.48259,0.15819 c -5.59862,0.11835 -7.59774,-0.0247 -7.93994,-0.56801 l 0,0 z"
       id="path3764"
       transform="translate(161.31127,46.459515)" />
    <path
       style="fill:#3b6fc6;fill-opacity:0;fill-rule:nonzero"
       d="m 122.98449,136.12857 c -0.57902,-0.91938 -1.21227,-35.72562 -1.29465,-71.159269 -0.0697,-30.001369 -0.63815,-43.159158 -1.91982,-44.440824 -1.33508,-1.33508 -4.604,-1.756598 -16.87872,-2.176459 L 91.134436,17.949871 90.775767,13.343157 C 90.578499,10.809464 90.415566,6.8833144 90.413694,4.6183798 l -0.0034,-4.11806281 40.044606,0 40.04461,0 0,8.71743921 0,8.7174388 -12.35418,0.395136 c -6.79481,0.217325 -13.29686,0.542075 -14.449,0.721667 -3.30962,0.515893 -4.24913,1.803524 -4.77756,6.547863 -0.25441,2.284096 -0.47362,28.179669 -0.48715,57.545717 l -0.0246,53.392812 -7.48259,0.15819 c -5.59862,0.11835 -7.59774,-0.0247 -7.93994,-0.56801 l 0,0 z"
       id="path3766"
       transform="translate(161.31127,46.459515)" />
    <path
       style="fill:#0000ff;fill-opacity:0;fill-rule:nonzero"
       d="m 122.87922,136.12857 c -0.24696,-0.39941 -0.65066,-22.06912 -0.89711,-48.154918 -0.50674,-53.637703 -0.92142,-66.040899 -2.25242,-67.3719 -1.41975,-1.419757 -4.63843,-1.848019 -17.02511,-2.265281 L 90.972112,17.941246 90.571737,10.465915 C 90.351531,6.3544824 90.266944,2.4941746 90.383765,1.8874524 90.591334,0.80943088 91.504258,0.78100177 130.49104,0.63848345 l 39.89487,-0.14583783 0,8.80796998 0,8.8079704 -6.10609,0.03332 c -9.8141,0.05355 -21.31906,0.885839 -22.95621,1.660688 -0.83264,0.394079 -1.71179,1.260458 -1.95367,1.925287 -0.24188,0.664828 -0.58305,26.76917 -0.75815,58.009646 l -0.31837,56.800863 -7.48259,0.15819 c -5.60187,0.11843 -7.59545,-0.0244 -7.93161,-0.56801 l 0,0 z"
       id="path3770"
       transform="translate(161.31127,46.459515)" />
    <path
       style="fill:#0000ff;fill-opacity:0;fill-rule:nonzero"
       d="m 373.165,68.093349 0,-67.59303201 9.08814,0 9.08814,0 0,67.59303201 0,67.593031 -9.08814,0 -9.08814,0 0,-67.593031 z"
       id="path3774"
       transform="translate(161.31127,46.459515)" />
    <path
       style="fill:#0000ff;fill-opacity:0;fill-rule:nonzero"
       d="m 1.8293374,137.02687 c -0.7165072,-0.15893 -1.27801951,-0.71018 -1.27801951,-1.25466 0,-0.53415 2.44000111,-9.14301 5.42222491,-19.13079 C 8.9557661,106.65363 12.805795,93.241932 14.529162,86.837635 24.237739,50.759065 34.946307,15.583223 38.212031,9.043402 41.27638,2.9068478 44.114403,0.50031699 48.286895,0.50031699 c 3.769323,0 8.470375,1.86350671 11.069895,4.38812901 4.082017,3.9644044 4.77881,5.968959 19.600934,56.388799 16.667186,56.696095 20.62732,71.063715 20.320442,73.723875 l -0.177344,1.53727 -7.100108,0.14254 c -3.90506,0.0784 -7.355713,-0.0494 -7.668117,-0.28401 -0.312405,-0.23459 -2.193281,-5.26993 -4.179726,-11.18965 -4.582637,-13.65651 -6.746824,-19.3188 -7.93908,-20.77149 -1.270715,-1.5483 -5.566264,-2.20687 -17.133641,-2.62683 -10.072677,-0.3657 -23.022747,0.4714 -25.474958,1.64671 -0.882085,0.42277 -2.090826,1.96198 -3.008145,3.83055 -1.536239,3.12932 -5.356659,14.11007 -8.151128,23.4282 -1.043131,3.4783 -1.845996,5.15873 -2.677264,5.60361 -1.243007,0.66524 -11.7314226,1.1986 -13.9393176,0.70885 l 0,0 z M 59.442917,86.294669 c 5.129402,-0.589837 6.772458,-1.323488 7.25313,-3.238632 0.186414,-0.742745 -0.774503,-4.791993 -2.29755,-9.681724 C 62.958612,68.751557 60.52545,60.82056 58.991481,55.749878 53.469895,37.497791 51.557389,33.490782 48.708682,34.205762 c -1.136813,0.285322 -1.767129,1.144712 -2.87533,3.920306 -3.326875,8.332467 -11.087226,37.158032 -11.596257,43.073905 -0.318768,3.70466 -0.30827,3.739627 1.314724,4.379108 0.899832,0.354545 2.40287,0.744466 3.340084,0.866486 3.507226,0.456622 16.070025,0.364383 20.551014,-0.150898 l 0,0 z"
       id="path3776"
       transform="translate(161.31127,46.459515)" />
    <path
       style="fill:#0000ff;fill-opacity:0;fill-rule:nonzero"
       d="m 122.87922,136.12857 c -0.24696,-0.39941 -0.65066,-22.06912 -0.89711,-48.154918 -0.50674,-53.637703 -0.92142,-66.040899 -2.25242,-67.3719 -1.41975,-1.419757 -4.63843,-1.848019 -17.02511,-2.265281 L 90.972112,17.941246 90.571737,10.465915 C 90.351531,6.3544824 90.266944,2.4941746 90.383765,1.8874524 90.591334,0.80943088 91.504258,0.78100177 130.49104,0.63848345 l 39.89487,-0.14583783 0,8.80796998 0,8.8079704 -6.10609,0.03332 c -9.8141,0.05355 -21.31906,0.885839 -22.95621,1.660688 -0.83264,0.394079 -1.71179,1.260458 -1.95367,1.925287 -0.24188,0.664828 -0.58305,26.76917 -0.75815,58.009646 l -0.31837,56.800863 -7.48259,0.15819 c -5.60187,0.11843 -7.59545,-0.0244 -7.93161,-0.56801 l 0,0 z"
       id="path3778"
       transform="translate(161.31127,46.459515)" />
    <path
       style="fill:#0000ff;fill-opacity:0;fill-rule:nonzero"
       d=""
       id="path3780"
       transform="translate(161.31127,46.459515)" />
    <path
       style="fill:#0000ff;fill-opacity:0;fill-rule:nonzero"
       d="m 159.9656,134.40836 c 0.18889,-1.01531 2.36783,-8.87513 4.84208,-17.46627 2.47425,-8.59113 8.32945,-29.167241 13.01156,-45.724694 15.68648,-55.472512 18.36209,-63.5656193 22.19665,-67.139915 2.07769,-1.9366711 5.54002,-3.13726567 9.27861,-3.21744157 2.75773,-0.0591408 3.90341,0.21787457 6.00396,1.45170847 5.37312,3.1560938 7.85238,8.7180781 15.7973,35.4398061 3.42909,11.533308 11.3702,38.076744 17.64691,58.985415 8.71266,29.023171 11.24147,38.124131 10.6904,38.473891 -0.397,0.25197 -4.3705,0.46204 -8.82999,0.46682 l -8.10819,0.009 -0.589,-1.54919 c -0.32394,-0.85204 -1.72105,-5.57015 -3.10468,-10.48465 -3.33584,-11.84855 -3.68393,-12.79561 -6.53366,-17.7763 l -2.44333,-4.27038 -13.3889,0.009 c -14.34076,0.01 -25.78552,0.71781 -28.01471,1.73349 -0.75608,0.3445 -1.82067,1.38133 -2.36575,2.30407 -1.15093,1.94838 -6.68501,17.9944 -8.49731,24.63789 -0.68177,2.49924 -1.43916,4.86357 -1.6831,5.25408 -0.32028,0.51275 -2.6396,0.71001 -8.34791,0.71001 l -7.90439,2e-5 0.34345,-1.84603 z m 65.09114,-50.087799 c 1.4297,-0.639339 1.24575,-2.40208 -0.96836,-9.279609 -1.07931,-3.352574 -3.90537,-12.474725 -6.28013,-20.27145 -4.35639,-14.302785 -6.0989,-18.764466 -7.73035,-19.79356 -1.41029,-0.889589 -3.80536,0.03191 -4.72993,1.819838 -1.14737,2.218767 -12.05291,39.427312 -12.54579,42.804902 -0.42284,2.897611 0.11844,4.093837 2.27239,5.02202 1.39636,0.601714 28.57339,0.327843 29.98217,-0.302141 l 0,0 z"
       id="path3782"
       transform="translate(161.31127,46.459515)" />
    <path
       style="fill:#0000ff;fill-opacity:0;fill-rule:nonzero"
       d="m 278.78411,135.28442 c -1.47643,-0.22638 -1.52034,-0.3528 -1.89368,-5.45298 -0.21022,-2.87168 -0.41866,-27.58657 -0.46322,-54.921987 -0.086,-52.783105 0.1505,-58.717568 2.56381,-64.327475 2.18183,-5.0718024 7.06352,-8.1424654 14.26041,-8.9700441 6.02301,-0.69259128 22.63328,-0.68807262 28.68556,0.0078 3.60324,0.414291 5.68298,1.0331211 8.78497,2.6139814 5.17339,2.6364978 9.75331,5.7635571 12.53312,8.5573117 5.79228,5.821343 11.16564,19.278735 11.16564,27.963988 0,3.538565 -1.28901,10.357537 -2.5909,13.706122 -2.8259,7.26846 -11.27824,16.490268 -19.41447,21.181883 -5.66216,3.264988 -6.63303,4.542122 -6.27618,8.255955 0.43306,4.506962 3.0002,9.046924 22.16517,39.198835 4.03836,6.35349 7.22347,11.67082 7.078,11.81629 -0.14547,0.14546 -3.84267,0.31483 -8.21601,0.37638 -7.20502,0.10139 -8.0682,0.007 -9.19439,-1.00789 -1.42086,-1.28013 -10.79994,-15.3265 -18.1563,-27.19137 -11.19967,-18.063649 -13.41713,-22.977731 -12.90703,-28.603163 0.36311,-4.004496 2.40896,-8.548167 4.63863,-10.302025 0.80787,-0.635465 3.48588,-1.82713 5.95114,-2.648136 15.69826,-5.227997 22.65549,-20.125452 15.91617,-34.081111 -4.45868,-9.232936 -11.31393,-12.768336 -24.77483,-12.776905 -2.84261,-0.0018 -7.12398,0.162019 -9.51415,0.364062 l -4.34576,0.367352 0,15.443071 c 0,8.493689 -0.16984,34.655582 -0.37742,58.137543 l -0.37743,42.694472 -6.86469,-0.0851 c -3.77557,-0.0468 -7.54485,-0.1894 -8.37616,-0.31686 z"
       id="path3784"
       transform="translate(161.31127,46.459515)" />
    <path
       style="fill:#0000ff;fill-opacity:0;fill-rule:nonzero"
       d="m 373.165,68.093349 0,-67.59303201 9.08814,0 9.08814,0 0,67.59303201 0,67.593031 -9.08814,0 -9.08814,0 0,-67.593031 z"
       id="path3786"
       transform="translate(161.31127,46.459515)" />
    <path
       style="fill:#0000ff;fill-opacity:0;fill-rule:nonzero"
       d="m 122.87922,136.12857 c -0.24696,-0.39941 -0.65066,-22.06912 -0.89711,-48.154918 -0.50674,-53.637703 -0.92142,-66.040899 -2.25242,-67.3719 -1.41975,-1.419757 -4.63843,-1.848019 -17.02511,-2.265281 L 90.972112,17.941246 90.571737,10.465915 C 90.351531,6.3544824 90.266944,2.4941746 90.383765,1.8874524 90.591334,0.80943088 91.504258,0.78100177 130.49104,0.63848345 l 39.89487,-0.14583783 0,8.80796998 0,8.8079704 -6.10609,0.03332 c -9.8141,0.05355 -21.31906,0.885839 -22.95621,1.660688 -0.83264,0.394079 -1.71179,1.260458 -1.95367,1.925287 -0.24188,0.664828 -0.58305,26.76917 -0.75815,58.009646 l -0.31837,56.800863 -7.48259,0.15819 c -5.60187,0.11843 -7.59545,-0.0244 -7.93161,-0.56801 l 0,0 z"
       id="path3790"
       transform="translate(161.31127,46.459515)" />
    <path
       style="fill:#0000ff;fill-opacity:0;fill-rule:nonzero"
       d="m 122.87922,136.12857 c -0.24696,-0.39941 -0.65066,-22.06912 -0.89711,-48.154918 -0.50674,-53.637703 -0.92142,-66.040899 -2.25242,-67.3719 -1.41975,-1.419757 -4.63843,-1.848019 -17.02511,-2.265281 L 90.972112,17.941246 90.571737,10.465915 C 90.351531,6.3544824 90.266944,2.4941746 90.383765,1.8874524 90.591334,0.80943088 91.504258,0.78100177 130.49104,0.63848345 l 39.89487,-0.14583783 0,8.80796998 0,8.8079704 -6.10609,0.03332 c -9.8141,0.05355 -21.31906,0.885839 -22.95621,1.660688 -0.83264,0.394079 -1.71179,1.260458 -1.95367,1.925287 -0.24188,0.664828 -0.58305,26.76917 -0.75815,58.009646 l -0.31837,56.800863 -7.48259,0.15819 c -5.60187,0.11843 -7.59545,-0.0244 -7.93161,-0.56801 l 0,0 z"
       id="path3792"
       transform="translate(161.31127,46.459515)" />
    <path
       style="color:#000000;fill:#3b6fc6;fill-opacity:0;fill-rule:nonzero;stroke:none;stroke-width:1px;marker:none;visibility:visible;display:inline;overflow:visible;enable-background:accumulate"
       d="m 278.88876,135.28355 c -1.42295,-0.2177 -1.54676,-0.47624 -1.93127,-4.03295 -0.22597,-2.09019 -0.43639,-27.1881 -0.46761,-55.773139 -0.0597,-54.635345 0.12731,-59.503405 2.49783,-65.033597 1.08789,-2.5379329 4.603,-5.8942544 7.72441,-7.3754579 2.76947,-1.3142015 9.89808,-1.9914589 20.96149,-1.9914589 13.09968,0 18.06763,0.626103 22.4263,2.8263558 10.09426,5.0955665 14.77345,9.4153 18.9425,17.487356 5.77083,11.173391 6.73016,20.89577 3.14131,31.835557 -2.46475,7.513204 -11.04993,17.512343 -18.61705,21.683237 -1.98375,1.093416 -4.53157,2.799163 -5.66181,3.790554 -1.82383,1.599774 -2.04428,2.084694 -1.95987,4.311112 0.0523,1.379727 0.83873,4.147049 1.74759,6.149603 1.71797,3.785289 11.23683,19.431408 21.86646,35.941808 3.39241,5.26924 6.06348,9.68499 5.9357,9.81277 -0.12777,0.12777 -3.81745,0.28964 -8.19928,0.35969 -7.26421,0.11615 -8.07999,0.0272 -9.24831,-1.00863 -1.66216,-1.47364 -14.72708,-21.26923 -21.80343,-33.03591 -9.28518,-15.439576 -10.64275,-19.7325 -8.51059,-26.912266 1.29235,-4.351821 3.92375,-6.751595 9.58154,-8.738155 8.11264,-2.8485 13.74577,-7.537537 16.64991,-13.859447 2.1313,-4.639551 2.43486,-11.716531 0.72929,-17.002481 -2.41281,-7.477864 -7.39421,-12.670857 -14.16552,-14.767228 -2.58562,-0.800499 -5.28922,-0.985999 -14.10774,-0.967967 -6.00002,0.01227 -11.04216,0.155335 -11.20476,0.317925 -0.16259,0.16259 -0.47139,26.415853 -0.68622,58.340584 l -0.3906,58.044965 -6.86492,-0.0851 c -3.77571,-0.0468 -7.54911,-0.18979 -8.38535,-0.31773 l 0,0 z"
       id="path3794"
       transform="translate(161.31127,46.459515)" />
    <path
       style="color:#000000;fill:#3b6fc6;fill-opacity:0;fill-rule:nonzero;stroke:none;stroke-width:1px;marker:none;visibility:visible;display:inline;overflow:visible;enable-background:accumulate"
       d="m 278.88876,135.28355 c -1.42295,-0.2177 -1.54676,-0.47624 -1.93127,-4.03295 -0.22597,-2.09019 -0.43639,-27.1881 -0.46761,-55.773139 -0.0597,-54.635345 0.12731,-59.503405 2.49783,-65.033597 1.08789,-2.5379329 4.603,-5.8942544 7.72441,-7.3754579 2.76947,-1.3142015 9.89808,-1.9914589 20.96149,-1.9914589 13.09968,0 18.06763,0.626103 22.4263,2.8263558 10.09426,5.0955665 14.77345,9.4153 18.9425,17.487356 5.77083,11.173391 6.73016,20.89577 3.14131,31.835557 -2.46475,7.513204 -11.04993,17.512343 -18.61705,21.683237 -1.98375,1.093416 -4.53157,2.799163 -5.66181,3.790554 -1.82383,1.599774 -2.04428,2.084694 -1.95987,4.311112 0.0523,1.379727 0.83873,4.147049 1.74759,6.149603 1.71797,3.785289 11.23683,19.431408 21.86646,35.941808 3.39241,5.26924 6.06348,9.68499 5.9357,9.81277 -0.12777,0.12777 -3.81745,0.28964 -8.19928,0.35969 -7.26421,0.11615 -8.07999,0.0272 -9.24831,-1.00863 -1.66216,-1.47364 -14.72708,-21.26923 -21.80343,-33.03591 -9.28518,-15.439576 -10.64275,-19.7325 -8.51059,-26.912266 1.29235,-4.351821 3.92375,-6.751595 9.58154,-8.738155 8.11264,-2.8485 13.74577,-7.537537 16.64991,-13.859447 2.1313,-4.639551 2.43486,-11.716531 0.72929,-17.002481 -2.41281,-7.477864 -7.39421,-12.670857 -14.16552,-14.767228 -2.58562,-0.800499 -5.28922,-0.985999 -14.10774,-0.967967 -6.00002,0.01227 -11.04216,0.155335 -11.20476,0.317925 -0.16259,0.16259 -0.47139,26.415853 -0.68622,58.340584 l -0.3906,58.044965 -6.86492,-0.0851 c -3.77571,-0.0468 -7.54911,-0.18979 -8.38535,-0.31773 l 0,0 z"
       id="path3796"
       transform="translate(161.31127,46.459515)" />
    <path
       style="color:#000000;fill:#3b6fc6;fill-opacity:0;fill-rule:nonzero;stroke:none;stroke-width:1px;marker:none;visibility:visible;display:inline;overflow:visible;enable-background:accumulate"
       d="m 278.88876,135.28355 c -1.42295,-0.2177 -1.54676,-0.47624 -1.93127,-4.03295 -0.22597,-2.09019 -0.43639,-27.1881 -0.46761,-55.773139 -0.0597,-54.635345 0.12731,-59.503405 2.49783,-65.033597 1.08789,-2.5379329 4.603,-5.8942544 7.72441,-7.3754579 2.76947,-1.3142015 9.89808,-1.9914589 20.96149,-1.9914589 13.09968,0 18.06763,0.626103 22.4263,2.8263558 10.09426,5.0955665 14.77345,9.4153 18.9425,17.487356 5.77083,11.173391 6.73016,20.89577 3.14131,31.835557 -2.46475,7.513204 -11.04993,17.512343 -18.61705,21.683237 -1.98375,1.093416 -4.53157,2.799163 -5.66181,3.790554 -1.82383,1.599774 -2.04428,2.084694 -1.95987,4.311112 0.0523,1.379727 0.83873,4.147049 1.74759,6.149603 1.71797,3.785289 11.23683,19.431408 21.86646,35.941808 3.39241,5.26924 6.06348,9.68499 5.9357,9.81277 -0.12777,0.12777 -3.81745,0.28964 -8.19928,0.35969 -7.26421,0.11615 -8.07999,0.0272 -9.24831,-1.00863 -1.66216,-1.47364 -14.72708,-21.26923 -21.80343,-33.03591 -9.28518,-15.439576 -10.64275,-19.7325 -8.51059,-26.912266 1.29235,-4.351821 3.92375,-6.751595 9.58154,-8.738155 8.11264,-2.8485 13.74577,-7.537537 16.64991,-13.859447 2.1313,-4.639551 2.43486,-11.716531 0.72929,-17.002481 -2.41281,-7.477864 -7.39421,-12.670857 -14.16552,-14.767228 -2.58562,-0.800499 -5.28922,-0.985999 -14.10774,-0.967967 -6.00002,0.01227 -11.04216,0.155335 -11.20476,0.317925 -0.16259,0.16259 -0.47139,26.415853 -0.68622,58.340584 l -0.3906,58.044965 -6.86492,-0.0851 c -3.77571,-0.0468 -7.54911,-0.18979 -8.38535,-0.31773 l 0,0 z"
       id="path3798"
       transform="translate(161.31127,46.459515)" />
    <path
       style="color:#000000;fill:#3b6fc6;fill-opacity:1;fill-rule:nonzero;stroke:none;stroke-width:1px;marker:none;visibility:visible;display:inline;overflow:visible;enable-background:accumulate"
       d="m 373.27861,68.093349 0,-67.59303201 9.08814,0 9.08813,0 0,67.59303201 0,67.593031 -9.08813,0 -9.08814,0 0,-67.593031 z"
       id="path3800"
       transform="translate(161.31127,46.459515)" />
    <path
       style="color:#000000;fill:#0000ff;fill-opacity:1;fill-rule:nonzero;stroke:none;stroke-width:1px;marker:none;visibility:visible;display:inline;overflow:visible;enable-background:accumulate"
       d=""
       id="path3806"
       transform="translate(161.31127,46.459515)" />
  </g>
  <path
     style="fill:#0000ff;fill-opacity:0;fill-rule:nonzero"
     d="m 122.87922,136.12857 c -0.24696,-0.39941 -0.65066,-22.06912 -0.89711,-48.154916 -0.50674,-53.637703 -0.92142,-66.040899 -2.25242,-67.3719 -1.41975,-1.419757 -4.63843,-1.848019 -17.02511,-2.265281 L 90.972114,17.941248 90.571739,10.465917 C 90.351533,6.3544834 90.266946,2.4941756 90.383767,1.8874534 90.591336,0.80943198 91.50426,0.78100287 130.49104,0.63848455 l 39.89487,-0.14583783 0,8.80796988 0,8.8079714 -6.10609,0.03332 c -9.8141,0.05355 -21.31906,0.885839 -22.95621,1.660688 -0.83264,0.394079 -1.71179,1.260458 -1.95367,1.925287 -0.24188,0.664828 -0.58305,26.76917 -0.75815,58.009646 l -0.31837,56.800861 -7.48259,0.15819 c -5.60187,0.11843 -7.59545,-0.0244 -7.93161,-0.56801 l 0,0 z"
     id="path3788" />
</svg>
