<?xml version="1.0" encoding="UTF-8"?>
<svg xmlns="http://www.w3.org/2000/svg" xmlns:xlink="http://www.w3.org/1999/xlink" width="793pt" height="613pt" viewBox="0 0 793 613" version="1.1">
<g id="surface1">
<path style=" stroke:none;fill-rule:nonzero;fill:rgb(13.699341%,12.199402%,12.5%);fill-opacity:1;" d="M 0.5 612.5 L 792.5 612.5 L 792.5 0.5 L 0.5 0.5 Z M 0.5 612.5 "/>
<path style="fill:none;stroke-width:10;stroke-linecap:butt;stroke-linejoin:miter;stroke:rgb(100%,100%,100%);stroke-opacity:1;stroke-miterlimit:4;" d="M 7925 5 L 5 5 L 5 6125 L 7925 6125 Z M 7925 5 " transform="matrix(0.1,0,0,-0.1,0,613)"/>
<path style=" stroke:none;fill-rule:nonzero;fill:rgb(92.199707%,17.599487%,17.999268%);fill-opacity:1;" d="M 172.800781 218.429688 C 173.820313 218.679688 174.300781 217.628906 175.050781 217.179688 C 176.25 216.460938 187.519531 212.929688 187.640625 212.800781 C 188.78125 211.671875 187.070313 208.910156 188.050781 208.300781 C 189.101563 207.640625 191.308594 207.949219 192.179688 207.429688 C 196.53125 204.820313 203.070313 204.699219 207.308594 202.050781 C 208.609375 201.230469 209.839844 199.089844 211.179688 198.550781 C 213.941406 197.449219 217.328125 197.488281 220.308594 196.300781 C 221.851563 195.679688 222.269531 193.238281 223.191406 192.171875 C 224.929688 190.140625 226.878906 189.691406 228.941406 188.050781 C 231.898438 185.671875 217.578125 188.519531 222.808594 183.289063 C 227.828125 178.269531 248.109375 180.25 250.070313 178.289063 L 250.441406 177.671875 C 251.808594 176.300781 255.191406 177.941406 255.191406 174.171875 L 255.191406 172.921875 C 255.03125 172.808594 242.148438 174.179688 241.191406 174.421875 C 232.78125 176.519531 221.941406 175.550781 214.058594 177.921875 C 210.648438 178.941406 193.078125 181.710938 191.789063 183 L 188.679688 185.171875 C 174.058594 188.089844 159.289063 189.730469 144.660156 192.171875 C 137.410156 193.378906 126.820313 193.710938 120.488281 195.820313 C 114.710938 197.75 105.398438 198.199219 99.648438 199.800781 C 95.128906 201.058594 82.398438 198.339844 78.398438 200.050781 C 77.480469 200.441406 76.539063 204.941406 77.148438 205.550781 C 77.691406 206.101563 79.351563 205.960938 80.019531 206.429688 C 80.609375 206.839844 81.648438 207.359375 81.269531 208.300781 C 80.761719 209.570313 75.609375 208.058594 74.269531 210.300781 C 72.640625 213.019531 78.410156 216.78125 79.398438 218.429688 C 80.917969 220.960938 74.941406 222.101563 76.269531 225.429688 L 78.769531 225.429688 C 80.019531 225.429688 81.082031 225.828125 81.898438 227.058594 L 82.988281 227.929688 C 85.378906 231.308594 141.039063 221.929688 141.039063 221.929688 C 141.039063 221.929688 124.78125 360.660156 59.019531 367.96875 C 44.011719 369.640625 28.082031 350.359375 27.011719 349.960938 C 26.019531 349.589844 24.089844 349.5 23.449219 349.980469 C 22.808594 350.46875 22.101563 353.480469 24.082031 355.730469 C 31.558594 364.238281 53.820313 382.511719 76.019531 381.96875 C 145.039063 380.3125 172.800781 218.429688 172.800781 218.429688 "/>
<path style=" stroke:none;fill-rule:nonzero;fill:rgb(92.199707%,17.599487%,17.999268%);fill-opacity:1;" d="M 204.050781 279.25 L 203.929688 279.199219 C 203.929688 275.441406 212.429688 263.429688 213.808594 257.941406 L 213.808594 257.808594 C 214.730469 257.351563 215.011719 254.289063 215.308594 254.058594 C 217.769531 252.21875 221.730469 243.519531 225.441406 239.808594 L 229.441406 235.929688 C 229.710938 235.660156 230.289063 235.410156 230.558594 235.679688 C 231.210938 236.328125 230.410156 247.910156 230.191406 249.039063 C 229.46875 252.609375 230.640625 263.808594 229.941406 265.441406 C 229.191406 267.199219 226.101563 268.078125 222.898438 269.820313 C 218.558594 272.191406 213.628906 275.230469 210.679688 275.820313 C 209.03125 276.148438 209.28125 279.570313 204.179688 279.570313 Z M 167.921875 292.699219 L 167.921875 293.070313 C 167.921875 300.078125 172.800781 295.199219 174.421875 296.820313 C 174.730469 297.128906 174.28125 300.25 174.050781 300.699219 C 168.28125 312.230469 163.328125 324.21875 155.921875 335.339844 C 155.480469 335.988281 155.519531 336.878906 155.171875 337.589844 C 152.578125 342.769531 148.539063 348.46875 146.421875 352.710938 C 145.609375 354.328125 145.460938 356.121094 144.539063 357.96875 C 144.441406 358.171875 144.039063 361.460938 143.789063 360.96875 C 143.789063 365.390625 139.171875 373.238281 140.789063 376.46875 C 141.269531 377.4375 141.011719 375.699219 141.539063 375.351563 C 142.710938 374.5625 144.480469 373.929688 145.289063 372.71875 C 145.980469 371.679688 147.441406 364.78125 147.921875 364.46875 C 149.660156 363.3125 150.671875 360.9375 150.671875 364.089844 C 150.671875 365.539063 150.738281 366.488281 150.289063 367.839844 C 150.101563 368.410156 150.480469 369.160156 150.289063 369.71875 L 149.789063 370.839844 L 149.789063 372.71875 L 150.289063 371.96875 L 150.671875 371.21875 C 150.878906 370.800781 150.738281 370.328125 151.039063 369.71875 C 151.601563 368.601563 151.191406 368.859375 151.171875 368.839844 C 151.171875 368.828125 151.289063 368.71875 151.789063 368.21875 C 152.710938 367.300781 151.988281 365.390625 152.921875 364.46875 C 153.339844 364.039063 155.410156 360.488281 155.921875 359.46875 L 158.171875 355.339844 C 158.53125 354.609375 158.769531 353.320313 159.289063 353.839844 C 161.980469 356.53125 161.328125 363.621094 160.039063 367.46875 C 159.921875 367.828125 159.109375 369.910156 159.289063 370.089844 C 159.539063 370.339844 159.730469 369.5 160.039063 369.339844 C 163.570313 367.578125 160.980469 363.78125 161.921875 362.839844 C 165.519531 359.238281 166.078125 352.679688 169.800781 348.960938 C 176.050781 342.710938 187.730469 302.398438 193.679688 296.449219 C 198.398438 291.730469 223.851563 286.28125 228.691406 281.449219 C 231.828125 278.300781 231.691406 287.109375 231.691406 288.199219 C 231.691406 291.261719 231.511719 315.179688 231.691406 315.699219 C 232.5 318.128906 233.921875 319.519531 234.691406 321.828125 C 235.878906 325.410156 233.609375 339.5 237.441406 343.339844 C 237.988281 343.890625 237.78125 342.621094 237.820313 342.589844 C 238.289063 342.109375 239.691406 338.769531 239.691406 337.960938 C 239.691406 337.171875 239.878906 335.148438 240.441406 335.710938 C 240.871094 336.128906 244.199219 347.851563 244.570313 348.210938 C 245.371094 349.011719 244.441406 350.578125 244.941406 351.589844 C 245.210938 352.121094 245.96875 352.570313 246.070313 352.710938 C 246.21875 352.949219 246.320313 353.71875 246.441406 353.46875 C 247.25 351.851563 246.949219 349.449219 247.941406 347.460938 C 248.761719 345.828125 248.71875 342.0625 249.820313 340.960938 C 251.53125 339.25 254.03125 345.300781 254.320313 345.589844 C 254.609375 345.878906 255.898438 347.011719 256.199219 346.710938 L 256.199219 339.089844 C 256.199219 327.148438 256.199219 261.441406 256.570313 260.691406 C 257.109375 259.609375 259.699219 219.640625 259.699219 215.050781 C 259.699219 209.359375 258.75 210.730469 255.820313 207.800781 C 255.210938 207.199219 255.558594 201.539063 255.441406 201.421875 L 252.441406 198.800781 C 251.289063 197.640625 243.039063 202.550781 239.691406 202.550781 C 232.390625 202.550781 234.191406 204.921875 230.558594 208.550781 C 230.371094 208.75 230.011719 208.371094 229.808594 208.179688 C 229.03125 207.390625 229.058594 207.359375 229.058594 205.929688 L 229.058594 204.800781 C 228.5 204.519531 225.640625 205.710938 225.308594 205.929688 C 223.308594 207.261719 221.550781 212.070313 220.441406 214.300781 C 218.320313 218.539063 215.050781 221.820313 212.808594 226.308594 C 211.910156 228.109375 210.960938 234.648438 209.808594 235.808594 C 204.269531 241.339844 194.261719 257.78125 190.929688 264.441406 C 190.550781 265.199219 189.050781 270.441406 189.050781 270.441406 C 187.460938 272.03125 179.96875 285.050781 179.300781 287.070313 C 178.980469 288.019531 173.320313 290.328125 172.171875 290.820313 C 171.050781 291.308594 169.539063 291.078125 168.671875 291.949219 C 168.128906 292.488281 168.441406 292.5 168.441406 292.519531 C 168.441406 292.539063 168.339844 292.558594 167.921875 292.699219 "/>
<path style=" stroke:none;fill-rule:nonzero;fill:rgb(92.199707%,17.599487%,17.999268%);fill-opacity:1;" d="M 330.890625 202.328125 L 330.839844 202.300781 L 331.089844 202.300781 C 331.828125 202.550781 332.699219 202.5 333.339844 202.921875 C 333.96875 203.339844 333.488281 202.46875 334.089844 202.921875 C 335.011719 203.621094 336.808594 205.53125 338.089844 206.179688 C 338.769531 206.511719 339.949219 206.300781 340.71875 206.300781 L 341.71875 206.300781 C 342.078125 207.75 346.148438 214.609375 347.71875 215.550781 C 348.621094 216.089844 350.640625 216.070313 351.851563 216.679688 C 352.140625 216.820313 352.800781 216.660156 353.101563 216.800781 L 353.601563 216.800781 C 353.601563 218.769531 348.699219 220.160156 350.101563 221.550781 C 352.179688 223.640625 352.628906 226.140625 347.96875 227.308594 C 344.488281 228.179688 340.558594 226.839844 337.21875 228.179688 C 333.289063 229.75 329.328125 232.898438 325.210938 233.929688 L 325.089844 233.929688 C 305.480469 240.46875 284.949219 268.261719 284.949219 289.199219 L 284.949219 289.949219 C 284.949219 303.769531 293.128906 319.550781 305.710938 324.578125 C 307.441406 325.28125 308.808594 327.21875 310.960938 327.578125 C 312.660156 327.871094 314.949219 328.960938 317.089844 328.960938 C 318.589844 328.960938 327.019531 330.269531 328.210938 329.578125 C 331.070313 327.949219 334.25 326.980469 337.089844 325.078125 C 338.601563 324.078125 337.429688 319.121094 336.839844 318.828125 C 333.628906 317.21875 336.460938 297.460938 337.71875 293.699219 C 338.761719 290.578125 340.96875 285.699219 339.21875 283.949219 L 338.71875 283.449219 C 338.601563 283.328125 336.570313 282.921875 336.339844 283.070313 C 333.691406 284.839844 326.300781 283.699219 325.210938 284.320313 C 321.390625 286.5 317.53125 288.199219 313.710938 290.320313 C 312.691406 290.890625 306.320313 294.800781 305.578125 293.320313 C 305.421875 292.988281 306.390625 292.390625 306.578125 292.199219 C 307.378906 291.398438 309.039063 289.699219 310.078125 289.070313 C 312.289063 287.75 313.921875 281.660156 316.210938 279.820313 C 322.75 274.589844 334.539063 269.109375 343.21875 266.941406 C 343.421875 266.890625 343.75 267.011719 343.839844 266.820313 L 344.089844 266.320313 L 348.851563 264.191406 C 350.46875 263.378906 351.410156 261.101563 353.101563 260.820313 C 354.511719 260.578125 355.101563 262.441406 356.101563 262.941406 C 359.789063 264.789063 363.851563 260.769531 363.851563 265.070313 L 363.851563 268.441406 C 361.820313 270.46875 363.300781 275.671875 362.101563 278.070313 C 361.519531 279.230469 356.96875 296.960938 356.96875 297.449219 C 356.96875 298.070313 355.300781 305.601563 355.21875 305.699219 C 354.609375 306.46875 354.351563 326.851563 354.351563 329.578125 C 354.351563 333.660156 355.398438 337.109375 356.601563 340.710938 C 356.839844 341.4375 357.351563 342.789063 357.351563 343.460938 C 357.351563 343.898438 357.75 343.929688 357.601563 344.089844 C 356.789063 344.898438 355.75 342.921875 355.46875 342.839844 C 348.890625 340.960938 342.550781 330.039063 342.339844 329.960938 C 339.019531 328.628906 339.210938 334.28125 336.589844 335.589844 C 334.140625 336.8125 330.488281 340.140625 328.75 342.460938 C 326.75 345.128906 305.941406 344.9375 304.078125 343.089844 C 301.371094 340.378906 296.21875 340.75 293.328125 338.589844 C 291.679688 337.351563 274.980469 322.429688 274.699219 321.460938 C 273.890625 318.621094 271.949219 314.449219 270.570313 311.699219 C 270.570313 311.699219 267.679688 297.890625 267.039063 289.320313 C 264.941406 261.320313 280.480469 233.679688 299.578125 217.300781 C 302.308594 214.960938 305.320313 210.609375 308.578125 209.300781 C 312.46875 207.75 315.839844 207.050781 319.960938 205.679688 C 322.878906 204.699219 326.480469 204.230469 329.089844 202.921875 C 329.519531 202.710938 330.238281 202.148438 330.839844 202.300781 L 330.890625 202.328125 "/>
<path style=" stroke:none;fill-rule:nonzero;fill:rgb(92.199707%,17.599487%,17.999268%);fill-opacity:1;" d="M 509.390625 263.191406 C 509.5625 263.191406 510.628906 259.378906 511.261719 258.308594 C 513.898438 253.929688 516.648438 248.429688 519.640625 244.441406 C 522.21875 241 535.011719 224.71875 532.019531 239.679688 C 531.398438 242.769531 530.019531 244.261719 530.019531 247.691406 C 530.019531 254.089844 528.511719 253.378906 523.769531 254.558594 C 519.011719 255.75 513.539063 263.191406 509.390625 263.191406 Z M 406.109375 195.921875 L 405.609375 195.921875 C 406.277344 196.589844 405.109375 196.421875 405.109375 196.421875 C 404.660156 196.871094 402.96875 198.359375 402.609375 199.421875 C 402.019531 201.191406 395.519531 208.660156 396.609375 211.929688 C 396.5 211.820313 395.289063 212.738281 395.109375 212.929688 C 393.878906 214.160156 392.761719 217.699219 391.609375 219.429688 C 390.578125 220.96875 384.558594 237.078125 383.601563 239.929688 C 383.398438 240.558594 383.859375 242.421875 383.601563 242.941406 C 381.648438 246.851563 379.089844 250.96875 377.101563 254.941406 C 374.21875 260.710938 372.121094 270.910156 368.601563 277.941406 C 366.289063 282.558594 363.601563 294.449219 362.101563 303.949219 C 361.351563 308.6875 362.101563 316.1875 362.101563 320.460938 C 362.101563 321.96875 362.078125 326.421875 362.601563 327.460938 C 362.808594 327.878906 363.761719 329.789063 364.101563 329.460938 C 363.570313 331.050781 366.511719 331.871094 367.101563 332.460938 C 367.21875 332.578125 368.269531 335.128906 368.601563 335.460938 C 368.628906 335.488281 370.058594 336 369.601563 336.460938 C 374.371094 334.871094 381.230469 338.710938 387.609375 334.460938 C 388.941406 333.570313 398.910156 327.390625 399.109375 327.460938 L 400.609375 325.460938 C 402.050781 323.289063 404.839844 321.988281 406.109375 319.460938 C 407.351563 316.980469 412.640625 308.449219 415.109375 308.449219 C 411.027344 309.039063 414.109375 332.601563 414.109375 335.460938 L 415.109375 335.460938 C 415.109375 336.550781 415.769531 340.628906 417.109375 339.960938 C 416.738281 341.078125 419.671875 342.828125 420.609375 343.460938 C 426.4375 347.351563 434.898438 337.738281 437.121094 339.960938 C 437.480469 340.320313 434.949219 344.648438 434.621094 345.960938 C 434.320313 347.140625 426.839844 363.738281 425.621094 364.96875 C 424.371094 366.21875 420.609375 370.9375 420.609375 372.96875 C 420.609375 374.339844 420.398438 374.75 421.109375 375.46875 C 421.109375 375.46875 420.949219 376.640625 421.621094 375.96875 L 421.621094 376.96875 C 422.210938 376.378906 423.578125 379.429688 423.621094 379.46875 C 424.5625 380.421875 430.269531 377.921875 429.621094 375.96875 C 430.21875 376.570313 430.511719 374.171875 431.121094 373.96875 C 433.421875 373.199219 433.960938 375.800781 434.621094 375.46875 C 436.96875 374.300781 441.621094 366.9375 441.621094 372.46875 L 442.621094 372.46875 L 442.621094 371.46875 C 442.921875 371.621094 444.410156 370.609375 444.621094 370.46875 C 445.949219 369.589844 453.171875 358.8125 454.121094 355.96875 C 454.460938 354.96875 457.0625 351.679688 457.621094 351.960938 L 457.621094 350.960938 C 458.078125 351.421875 458.589844 350 458.628906 349.960938 C 459.019531 349.570313 460.277344 349.03125 461.128906 348.460938 C 461.46875 348.230469 461.578125 347.6875 462.128906 347.960938 C 461.71875 346.761719 462.730469 345.359375 463.628906 344.460938 C 469.769531 338.3125 483.25 309.710938 488.128906 299.949219 C 488.449219 299.320313 495.277344 289.878906 496.140625 289.449219 L 501.640625 288.949219 C 501.988281 288.949219 503.578125 288.390625 503.140625 287.949219 C 503.980469 288.230469 515.9375 278.441406 520.140625 278.441406 C 519.839844 278.148438 521.777344 277.039063 522.140625 276.941406 C 523.988281 276.480469 525.789063 275.441406 527.640625 275.441406 L 527.640625 274.441406 C 528.25 274.441406 531.8125 272.609375 532.648438 273.441406 C 534.609375 275.410156 530.640625 291.28125 530.640625 291.449219 C 530.640625 292.941406 532.148438 298.429688 532.140625 298.449219 L 533.148438 298.449219 C 533.148438 305.421875 534.148438 312.28125 534.148438 319.460938 L 534.148438 321.460938 C 534.339844 321.648438 536.949219 321.261719 537.148438 321.460938 C 539.910156 324.21875 537.609375 336.421875 541.648438 340.460938 C 541.789063 340.601563 541.648438 340.769531 541.648438 340.960938 C 541.648438 342.078125 542.1875 342.460938 543.148438 342.460938 C 543.148438 344.300781 543.027344 344.578125 542.148438 345.460938 C 542.027344 345.578125 542.648438 347.039063 542.648438 347.960938 C 543.910156 347.328125 543.589844 349.410156 543.648438 349.460938 C 545.261719 351.078125 543.589844 354.578125 542.648438 356.46875 C 542.628906 356.5 542.3125 359.800781 543.148438 358.96875 C 542.5625 360.730469 544.148438 359.640625 544.148438 361.46875 L 545.148438 361.46875 C 544.9375 361.679688 546.410156 362.738281 546.648438 363.46875 C 547.101563 364.828125 547.648438 366.070313 547.648438 367.46875 L 548.148438 367.46875 L 548.148438 368.96875 L 549.148438 368.96875 L 549.648438 369.96875 L 549.648438 370.96875 C 550.71875 372.039063 550.820313 367.820313 550.148438 366.46875 C 549.128906 364.429688 550.648438 359.398438 550.648438 356.96875 C 550.648438 353.761719 552.140625 339 552.648438 337.460938 C 554.820313 330.960938 553.988281 295.710938 554.648438 292.949219 C 557.148438 282.449219 558.648438 263.191406 558.648438 249.941406 C 558.648438 241.078125 560.050781 230.351563 562.148438 221.929688 C 562.8125 219.28125 563.050781 215.140625 564.148438 212.929688 C 564.46875 212.289063 565.339844 212.058594 565.648438 211.429688 C 565.6875 211.359375 565.96875 208.609375 565.148438 209.429688 L 565.148438 206.929688 L 564.148438 206.929688 C 564.148438 206.761719 564.429688 204.648438 563.648438 205.429688 L 563.648438 204.421875 C 561.777344 204.421875 559.300781 203.421875 557.148438 203.421875 C 556.910156 203.421875 552.6875 202.878906 553.148438 202.421875 L 552.148438 202.421875 C 552.679688 201.898438 550.820313 201.089844 550.148438 201.421875 L 550.148438 200.421875 L 549.648438 199.921875 L 548.148438 199.921875 C 548.570313 199.511719 546.761719 198.53125 546.648438 198.421875 C 545.859375 197.628906 546.210938 195.78125 545.148438 195.421875 C 544.1875 195.101563 542.859375 196.640625 542.148438 195.921875 C 543.039063 198.609375 539.398438 197.921875 538.648438 199.421875 C 537.199219 202.320313 539.089844 206.53125 537.648438 209.429688 L 532.648438 213.929688 C 532.511719 214.070313 532.511719 214.289063 532.648438 214.429688 C 530.96875 214.429688 527.929688 217.621094 527.640625 217.429688 C 527.910156 217.691406 527.410156 218.171875 527.140625 218.429688 C 526.210938 219.359375 523.871094 220.46875 523.140625 221.929688 C 521.628906 224.949219 517.21875 227.78125 515.640625 230.929688 C 513.039063 236.128906 506.960938 245.28125 501.640625 247.941406 C 500.699219 248.410156 498.910156 253.578125 497.640625 252.941406 C 497.929688 253.808594 493.851563 257.519531 493.128906 258.941406 C 491.449219 262.300781 486.089844 272.511719 484.128906 275.441406 C 483.101563 276.988281 479.710938 278.191406 480.128906 279.449219 C 480.109375 279.429688 474.75 282.789063 475.128906 283.949219 C 474.351563 283.558594 466.851563 289.71875 466.128906 290.449219 C 464.648438 291.929688 458.777344 291.640625 458.121094 292.949219 C 457.660156 293.878906 460.851563 298.5 459.628906 300.949219 C 458.828125 302.539063 456.121094 303.179688 456.121094 304.949219 L 458.628906 304.949219 C 461.140625 304.949219 462.578125 303.449219 464.628906 303.449219 C 464.960938 303.449219 465.460938 303.28125 465.128906 303.949219 C 463.949219 306.308594 450.128906 327.121094 449.121094 327.460938 C 448.460938 327.679688 443.128906 326.96875 443.121094 326.960938 C 442.527344 326.371094 442.210938 324.371094 441.621094 324.960938 C 441.621094 323.828125 441.480469 315.230469 441.621094 314.949219 C 444.171875 309.859375 444.039063 303.109375 446.621094 297.949219 C 450.050781 291.101563 457.050781 271.558594 460.128906 266.941406 C 460.929688 265.738281 462.0625 265.179688 461.628906 263.441406 L 462.128906 263.441406 C 464.328125 255.269531 469.480469 247.390625 472.128906 239.429688 C 472.789063 237.460938 475.46875 229.589844 476.628906 228.429688 L 478.628906 226.929688 C 478.371094 226.148438 480.640625 222.441406 479.628906 221.429688 C 479.46875 221.269531 477.761719 219.800781 478.128906 219.429688 L 477.128906 219.429688 L 476.628906 218.929688 L 476.628906 217.929688 C 474.980469 219.570313 478.039063 208.519531 476.128906 210.429688 C 476.128906 206.390625 467.910156 206.929688 464.628906 206.929688 L 464.128906 206.429688 L 464.128906 205.429688 C 463.75 205.800781 463.148438 204.921875 462.628906 204.921875 C 461.539063 204.921875 457.289063 204.980469 456.621094 205.429688 C 453.351563 207.609375 446.21875 225.839844 443.121094 228.929688 L 441.621094 232.929688 C 441.1875 233.789063 439.519531 234.539063 440.121094 235.429688 L 439.621094 235.429688 C 441.078125 239.820313 436.988281 243.128906 435.121094 245.941406 C 434.769531 246.460938 432.121094 262.539063 432.121094 264.941406 L 431.121094 264.941406 C 431.121094 265.390625 430.601563 267.429688 430.121094 266.941406 C 430.660156 269.109375 427.261719 273.53125 426.621094 275.441406 C 419.800781 295.898438 422.019531 288.539063 407.609375 302.949219 C 404.96875 305.601563 402.898438 309.761719 399.609375 311.949219 C 397.949219 313.0625 396.550781 313.511719 395.109375 314.949219 C 394.96875 315.089844 394.96875 315.320313 395.109375 315.449219 L 394.109375 315.449219 C 394.839844 316.179688 390.460938 317.3125 391.109375 317.960938 C 390.878906 317.878906 384.75 324.28125 380.101563 321.960938 C 373.859375 318.839844 385.808594 296.070313 385.109375 293.949219 C 385.140625 293.988281 386.5 292.671875 387.109375 291.449219 C 388.460938 288.730469 387.949219 283.929688 389.609375 281.449219 C 393.460938 275.671875 397.609375 273.289063 397.609375 264.941406 L 398.109375 263.941406 L 399.109375 263.941406 C 399.078125 263.878906 400.109375 261.890625 400.109375 260.941406 C 400.25 261.078125 400.46875 261.078125 400.609375 260.941406 L 403.109375 258.441406 C 405.769531 255.78125 405.949219 250.761719 407.609375 247.441406 C 408.460938 245.738281 411.328125 244.5 412.109375 242.941406 C 412.8125 241.53125 411.5 237.148438 412.609375 234.929688 C 412.777344 234.601563 413.679688 232.5 414.109375 232.929688 C 413.769531 231.910156 423.140625 219.488281 422.621094 218.429688 L 423.621094 218.429688 C 423.039063 217.269531 428.121094 208.308594 428.121094 207.929688 L 427.121094 207.929688 L 427.121094 206.929688 C 426.378906 207.660156 424.488281 204.300781 424.121094 203.921875 C 423.980469 203.789063 423.75 203.789063 423.621094 203.921875 L 423.621094 202.921875 L 422.621094 202.921875 C 423.277344 202.261719 422.121094 202.421875 422.121094 202.421875 C 422.078125 202.390625 421.761719 199.28125 421.109375 199.921875 C 421.109375 198.789063 419.527344 195.160156 419.609375 194.921875 L 418.609375 194.921875 C 420.511719 191.128906 412.699219 192.230469 410.609375 192.921875 C 409.480469 193.300781 406.871094 196.429688 406.109375 195.921875 "/>
<path style=" stroke:none;fill-rule:nonzero;fill:rgb(92.199707%,17.599487%,17.999268%);fill-opacity:1;" d="M 561.871094 380.921875 C 561.71875 380.921875 561.777344 380.621094 561.777344 380.46875 L 561.777344 377.96875 C 561.777344 376.121094 563.890625 372.828125 563.398438 372.351563 C 558.6875 367.640625 568.710938 353.8125 571.160156 348.089844 C 571.421875 347.46875 570.960938 342.53125 571.160156 342.339844 C 571.3125 342.179688 573.0625 341.578125 572.777344 341.089844 C 572.277344 340.21875 571.3125 337.730469 571.910156 336.339844 C 572.378906 335.238281 573.988281 334.769531 574.410156 333.828125 C 575.570313 331.230469 575.300781 329.5625 576.777344 327.328125 C 577.039063 326.9375 577.050781 325 577.660156 324.078125 C 578.050781 323.488281 578.039063 322.6875 578.410156 322.078125 C 579.578125 320.121094 581.4375 320.050781 582.027344 318.078125 C 583.078125 314.578125 581.179688 310.101563 582.027344 307.949219 C 583.621094 303.96875 589.429688 284.628906 590.539063 283.199219 L 591.789063 281.570313 C 594.050781 278.621094 591.859375 274.949219 593.039063 272.191406 C 594.25 269.359375 595.789063 266.398438 597.410156 263.691406 C 598.300781 262.210938 598.511719 256.410156 600.660156 252.808594 C 600.910156 252.410156 602.398438 245.171875 601.910156 244.691406 C 601.3125 244.078125 599.390625 246.699219 598.660156 247.191406 C 597.390625 248.039063 595.960938 247.890625 594.660156 249.191406 C 594.261719 249.589844 582 252.238281 582.910156 248.308594 C 582.699219 248.519531 581.398438 247.238281 581.277344 247.191406 C 580.179688 246.710938 580.621094 247.449219 579.277344 246.691406 C 579.121094 246.589844 575.3125 246.460938 575.160156 246.308594 C 572.449219 243.609375 572.460938 242.570313 569.148438 240.679688 C 568.320313 240.210938 569.011719 239.730469 567.527344 240.179688 C 567.898438 239.910156 566.300781 239.460938 566.277344 239.429688 C 565.628906 238.789063 566.671875 233.671875 567.027344 233.308594 C 569.527344 230.808594 578.429688 225.421875 577.160156 221.179688 C 578.078125 220.78125 577.289063 221.171875 578.027344 220.429688 C 578.269531 220.191406 580.238281 219.058594 580.910156 218.800781 C 582.921875 218.050781 587.71875 216.820313 589.410156 215.550781 C 590.480469 214.75 591.199219 214.550781 592.660156 213.929688 C 598.609375 211.378906 604.449219 209.328125 610.789063 207.429688 C 612.148438 207.019531 612.5625 205.519531 614.039063 204.921875 C 615.210938 204.460938 617.527344 204.511719 618.539063 203.800781 L 619.789063 202.921875 C 626.277344 198.390625 643.277344 200.421875 646.550781 198.550781 C 648.601563 197.378906 650.671875 194.800781 652.179688 194.050781 C 654.640625 192.820313 681.550781 196.96875 683.4375 198.050781 C 686.601563 199.851563 688.371094 199.851563 690.6875 202.171875 C 690.828125 202.308594 693.230469 205.828125 693.9375 205.429688 C 693.910156 207.578125 699.261719 208.429688 699.570313 209.050781 C 700.628906 211.179688 702.21875 213.191406 704.4375 214.300781 C 704.71875 214.441406 705.5 217.109375 705.6875 217.550781 C 706.410156 219.21875 707.9375 220.550781 708.9375 221.550781 C 710.398438 223.011719 708.769531 225.839844 709.6875 227.679688 C 710.160156 228.621094 709.171875 231.96875 709.320313 232.929688 C 708.339844 235.21875 709.761719 239.738281 708.96875 242.328125 C 706.929688 248.960938 704.109375 253.351563 699.9375 259.308594 C 697.359375 263 693.039063 263.75 691.0625 266.570313 C 690.710938 267.070313 689.921875 269.929688 689.0625 270.191406 C 687.070313 270.789063 680.148438 274.351563 678.5625 275.941406 C 677.128906 277.378906 675.550781 278.769531 673.679688 279.570313 L 672.0625 279.949219 L 671.179688 279.949219 C 671.179688 280.210938 679.910156 288.171875 680.5625 288.820313 C 685.421875 293.679688 687.890625 301.410156 691.9375 305.449219 C 694.769531 308.289063 699.101563 311.878906 701.570313 315.578125 C 701.671875 315.738281 701.878906 315.511719 702.070313 315.578125 C 713.300781 320.070313 724.851563 336.511719 735.199219 341.089844 C 734.9375 341.539063 737.378906 343.339844 737.699219 343.589844 C 739.339844 344.851563 743.160156 348.519531 744.199219 350.089844 C 745.890625 352.621094 765.929688 371.359375 770.539063 375.96875 C 770.988281 376.421875 771.800781 381.21875 771.328125 381.71875 C 772.320313 378.4375 754.96875 370.699219 753.828125 367.839844 C 752.539063 364.621094 736.820313 352.628906 732.820313 351.210938 C 732.671875 351.160156 722.210938 341.019531 721.070313 340.339844 C 718.140625 338.578125 713.109375 336.839844 710.070313 334.710938 C 705.640625 331.609375 703.921875 326.890625 701.1875 323.710938 C 699.378906 321.601563 696.390625 322.148438 693.5625 317.210938 C 693.300781 316.75 690.8125 315.53125 690.3125 314.828125 L 689.4375 313.578125 C 688.210938 311.828125 686.4375 311.078125 684.9375 309.578125 C 684.75 309.390625 684.46875 307.8125 683.8125 307.449219 C 683.269531 307.160156 680.769531 305.519531 681.3125 304.699219 L 680.1875 304.699219 C 680.449219 304.25 678.730469 303.28125 678.5625 302.699219 C 678.339844 301.96875 676.121094 299.390625 675.3125 298.578125 C 675.140625 298.410156 672.460938 298.78125 672.0625 298.578125 L 670.0625 297.320313 C 669.800781 297.179688 668.4375 296.570313 668.8125 296.199219 C 667.121094 296.199219 663.578125 292.601563 662.3125 291.320313 C 661.429688 290.449219 656.730469 290.738281 655.429688 287.699219 C 654.738281 286.089844 652.738281 285.449219 651.300781 284.449219 C 650.449219 283.851563 649.328125 283.398438 648.929688 282.449219 L 648.179688 280.820313 C 647.949219 280.289063 648 280.210938 648.011719 280.210938 C 648.027344 280.21875 647.988281 280.359375 647.300781 279.949219 C 646.839844 279.671875 646.929688 279.621094 646.929688 279.199219 L 646.929688 278.320313 L 646.929688 279.570313 L 647.679688 280.320313 L 648.179688 281.570313 C 648.460938 282.488281 648.550781 282.378906 648.550781 283.570313 C 648.550781 284.761719 648.96875 286.078125 649.800781 286.820313 C 651.828125 288.648438 654.050781 290.519531 655.800781 292.570313 C 657.609375 294.679688 661.769531 297.671875 663.929688 299.828125 C 668.179688 304.070313 674.960938 307.980469 680.1875 313.199219 C 682.359375 315.378906 683.027344 317.171875 684.5625 319.210938 C 684.679688 319.359375 684.390625 319.609375 684.5625 319.710938 L 689.0625 320.828125 C 692.96875 325.398438 699.730469 328.089844 702.4375 334.210938 C 702.871094 333.929688 703.011719 334.578125 703.1875 334.710938 C 705.0625 336.019531 709.050781 339.320313 709.320313 341.089844 C 710.488281 340.621094 710.851563 342.351563 711.6875 342.710938 C 721.140625 346.761719 732.039063 356.929688 739.328125 364.21875 C 739.988281 364.878906 743.277344 370.289063 744.578125 370.71875 C 746.601563 371.398438 751.738281 373.851563 753.078125 375.601563 C 753.621094 376.289063 754.070313 378.4375 754.328125 379.21875 C 754.339844 379.261719 768.4375 393.679688 769.710938 394.230469 C 769.839844 394.28125 769.671875 394.460938 769.710938 394.601563 C 770.21875 396.320313 772.960938 396.21875 772.960938 397.851563 C 772.960938 398.519531 773.570313 399.589844 772.960938 399.851563 C 772.730469 399.949219 771.859375 399.398438 771.710938 399.101563 C 771.601563 398.890625 762.21875 389.828125 761.960938 389.730469 C 755.171875 387.011719 735.9375 368.089844 726.699219 363.46875 C 719.527344 359.878906 709.539063 348.5625 703.6875 342.710938 C 700.789063 339.8125 699.109375 337.390625 697.1875 335.460938 C 696.398438 334.671875 693.199219 334.121094 692.3125 333.078125 L 691.4375 331.828125 C 683.910156 328.5 679.921875 322.328125 673.679688 320.460938 L 672.429688 319.710938 C 672.300781 319.640625 672.121094 319.839844 672.0625 319.710938 C 671.628906 318.71875 651.421875 295.761719 650.550781 295.320313 C 648.921875 294.511719 632.148438 283.789063 631.550781 283.199219 C 630.589844 282.238281 631.761719 280.441406 632.300781 279.199219 C 635.609375 271.480469 638.46875 280.648438 644.050781 275.070313 C 644.878906 274.238281 639.859375 269.800781 638.800781 269.441406 C 638.148438 269.230469 637 268.230469 637.550781 267.820313 L 636.421875 267.441406 C 636.421875 265.171875 636.621094 264.019531 638.050781 262.941406 C 638.660156 262.480469 638.628906 261.480469 639.171875 260.941406 C 640.019531 260.101563 642.371094 261.988281 642.421875 262.070313 C 645.570313 266.25 648.421875 267.820313 655.429688 267.820313 C 656.519531 267.820313 658.019531 268.308594 658.679688 267.441406 C 663.160156 261.460938 669.929688 249.191406 674.429688 243.941406 C 674.660156 243.671875 675.070313 240.941406 674.8125 240.679688 C 674.019531 239.898438 672.519531 237.25 672.0625 236.179688 L 666.3125 234.179688 C 665.398438 233.910156 665.8125 233.53125 665.5625 232.929688 C 665.5 232.800781 665.320313 232.988281 665.179688 232.929688 C 663.5625 232.238281 659.820313 230.089844 659.429688 229.308594 L 658.300781 229.308594 C 657.851563 229.308594 654.710938 229.179688 654.550781 229.308594 C 653.9375 229.828125 654.21875 229.988281 654.199219 230.039063 C 654.1875 230.058594 654.109375 230.058594 653.800781 230.058594 C 640.210938 230.058594 638.140625 231.550781 633.171875 242.308594 C 632.679688 243.371094 631.640625 244.238281 631.550781 245.558594 C 630.578125 246.109375 630.820313 242.039063 627.421875 243.058594 C 626.71875 243.269531 624.238281 255.011719 623.421875 256.058594 L 617.671875 263.320313 C 612.21875 271.5 609.738281 300.871094 605.539063 305.078125 C 605.25 305.371094 605.539063 305.910156 605.539063 306.328125 C 605.539063 311.679688 604.601563 314.980469 602.789063 319.210938 C 602.160156 320.679688 601.140625 335.019531 599.910156 338.710938 C 598.730469 342.25 597.5 343.128906 596.289063 345.960938 C 593.8125 351.730469 598.050781 356.171875 592.160156 360.589844 C 592.039063 360.679688 592.160156 360.820313 592.160156 360.96875 C 592.160156 362.789063 592.3125 366.550781 591.039063 367.089844 C 590.578125 367.289063 587.261719 366.371094 586.910156 366.21875 C 586.300781 365.960938 586.527344 364.761719 586.910156 364.21875 C 587.578125 363.261719 590.277344 360.601563 591.039063 359.839844 C 591.761719 359.121094 591.039063 354.96875 591.410156 354.089844 C 591.671875 353.480469 594.550781 350.578125 595.039063 350.089844 C 595.777344 349.351563 595.710938 348.078125 596.289063 347.210938 C 596.550781 346.820313 595.140625 344.4375 595.039063 344.339844 C 594.910156 344.21875 595.160156 340.460938 595.039063 340.339844 C 594.179688 339.480469 592.171875 342.820313 591.789063 343.589844 C 590.851563 345.449219 585.699219 358.929688 585.660156 358.96875 C 583.148438 361.480469 580.21875 370.769531 578.777344 371.601563 C 576.898438 372.671875 576.179688 362.648438 572.277344 369.46875 C 572.109375 369.78125 572.078125 373.828125 571.910156 374.351563 C 571.210938 376.421875 569.980469 377.351563 569.148438 380.101563 L 569.148438 382.46875 C 568.449219 383 567.9375 380.121094 566.277344 381.21875 C 561.660156 384.300781 564.480469 383.050781 562.648438 381.21875 C 562.519531 381.078125 562.339844 381.171875 562.148438 381.21875 L 562.269531 381.320313 "/>
<path style=" stroke:none;fill-rule:nonzero;fill:rgb(92.199707%,17.599487%,17.999268%);fill-opacity:1;" d="M 619.839844 284.609375 L 619.789063 284.570313 C 621.121094 285.328125 622.199219 284.558594 623.171875 284.949219 C 626.660156 286.339844 629.828125 285.898438 633.171875 287.570313 C 637.8125 289.890625 643.210938 296.960938 649.179688 298.949219 C 649.5 299.058594 649.238281 299.660156 649.429688 299.949219 C 650.070313 300.980469 651.488281 303.011719 652.429688 303.949219 C 654.75 306.28125 662.488281 315.988281 664.429688 316.960938 C 665.148438 317.320313 667.179688 318.578125 667.429688 319.210938 C 667.738281 319.96875 668.921875 322.949219 669.179688 323.210938 C 671.777344 325.8125 673.269531 325.679688 676.429688 327.578125 C 677.148438 328.011719 678.839844 330.921875 679.179688 331.960938 C 679.390625 332.5625 680.269531 332.621094 680.8125 332.960938 C 682.898438 334.269531 692.800781 343.28125 693.8125 343.960938 C 695.121094 344.828125 695.578125 347.21875 697.4375 347.960938 C 698.5625 348.410156 698.371094 350.429688 699.4375 350.960938 C 704.289063 353.390625 718.449219 360.589844 722.820313 364.96875 C 723.71875 365.871094 723.789063 367.46875 724.820313 368.21875 C 727.21875 369.960938 732.511719 371.96875 734.199219 374.21875 C 737.449219 378.5625 747.1875 391.070313 751.828125 393.601563 C 752.820313 394.140625 753.421875 393.820313 753.449219 395.230469 C 753.5625 395.121094 753.730469 395.121094 753.828125 395.230469 C 754.351563 395.75 755.289063 397.050781 756.210938 397.601563 C 758.238281 398.820313 760.839844 402.628906 762.460938 403.980469 C 762.6875 404.179688 762.910156 404.148438 763.210938 404.230469 C 764.359375 404.519531 775.027344 410.78125 772.839844 412.980469 C 772.449219 413.359375 771.511719 413.429688 771.210938 412.980469 C 769.980469 411.140625 768.410156 409.398438 766.460938 408.230469 C 765.960938 407.929688 764.519531 408 764.210938 407.230469 C 761.789063 401.1875 741.949219 391.550781 739.199219 386.96875 C 739.027344 386.679688 737.269531 386.640625 737.199219 386.601563 C 736.359375 386.101563 732.871094 384.640625 732.820313 384.601563 C 731.300781 383.078125 729.351563 380.140625 727.820313 379.21875 C 724.109375 377 715.128906 366.949219 714.1875 366.589844 C 708.578125 364.488281 704.210938 359.410156 697.8125 356.21875 C 696.949219 355.78125 695.8125 355.710938 695.1875 354.96875 C 691.179688 350.160156 665.429688 331.121094 665.179688 328.210938 L 664.179688 328.210938 C 664.3125 328.121094 663.210938 327.410156 662.8125 327.210938 C 662.621094 327.109375 662.328125 327.359375 662.179688 327.210938 L 658.800781 325.210938 C 658.578125 325.121094 653.828125 317.609375 652.179688 315.960938 L 651.429688 315.199219 C 646.800781 310.578125 642.640625 305.871094 636.800781 302.949219 C 636.671875 302.890625 634.050781 298.078125 633.171875 297.199219 C 633.070313 297.101563 632.9375 297.238281 632.800781 297.199219 C 628.011719 296 623.871094 296.5 620.421875 294.199219 C 619.199219 293.390625 618.421875 289.011719 618.421875 286.570313 L 618.421875 286.199219 C 618.421875 285.949219 618.269531 285.769531 618.421875 285.570313 C 618.621094 285.308594 620.121094 285.171875 619.789063 284.949219 L 619.839844 284.609375 "/>
<path style=" stroke:none;fill-rule:nonzero;fill:rgb(92.199707%,17.599487%,17.999268%);fill-opacity:1;" d="M 759.828125 419.230469 C 760.21875 418.839844 761.148438 419.148438 761.460938 419.609375 C 762.410156 421.039063 763.878906 421.699219 764.460938 423.230469 C 765.078125 424.890625 768.300781 424.089844 769.210938 425.609375 C 769.671875 426.378906 770.019531 426.511719 770.460938 427.238281 C 770.898438 427.96875 771.210938 428.019531 771.210938 428.988281 L 771.210938 430.609375 L 770.828125 431.609375 C 770.828125 431.609375 771.171875 431.6875 770.460938 430.988281 C 769.878906 430.398438 770.789063 430.820313 770.210938 430.238281 L 769.828125 429.988281 C 769.761719 429.859375 769.9375 429.710938 769.828125 429.609375 C 769.351563 429.128906 769.277344 428.769531 768.828125 428.238281 C 768.46875 427.800781 767.128906 427.410156 766.460938 426.609375 C 765.75 425.761719 764.148438 425.300781 763.460938 424.609375 C 763.0625 424.21875 758.699219 420.929688 757.828125 420.609375 C 754.171875 419.238281 751.1875 417.21875 748.199219 414.230469 C 745.730469 411.761719 735.429688 406.050781 734.449219 403.601563 C 734.371094 403.410156 733.96875 403.75 733.820313 403.601563 C 732.648438 402.429688 731.921875 401.910156 730.199219 401.230469 C 729.3125 400.871094 709.898438 385.761719 709.820313 385.601563 C 709.699219 385.371094 709.699219 385.300781 709.710938 385.300781 C 709.738281 385.28125 709.851563 385.5 709.4375 385.21875 C 704.449219 381.898438 699.71875 376.609375 694.4375 373.96875 C 693.878906 373.6875 690.1875 368.109375 690.1875 367.21875 L 690.1875 366.96875 C 683.378906 362.429688 679.070313 363.949219 670.429688 353.589844 C 670.289063 353.421875 670.398438 353.039063 670.179688 352.96875 C 666.179688 351.628906 645.578125 329.46875 644.429688 326.578125 C 643.738281 324.878906 640.738281 325.160156 639.800781 323.578125 C 638.5 321.410156 639.019531 319.96875 637.421875 317.578125 C 636.921875 316.828125 629.589844 315.128906 629.421875 314.949219 C 627.371094 312.898438 626.4375 309.46875 625.171875 308.199219 C 623.640625 306.671875 619.480469 305.921875 618.171875 303.949219 C 618.070313 303.800781 618.171875 302.300781 618.171875 301.949219 C 618.4375 302.121094 619.277344 301.25 619.421875 301.199219 L 624.171875 301.199219 C 625.738281 302.140625 631.238281 306.910156 632.421875 307.199219 C 636.949219 308.339844 641.21875 309.21875 644.800781 312.199219 C 650.011719 316.539063 647.851563 319.421875 650.429688 324.578125 C 652.511719 328.75 673.121094 347.28125 677.429688 351.589844 C 679.078125 353.230469 680.160156 356.75 682.1875 357.96875 C 682.96875 358.4375 688.140625 359.289063 688.4375 359.589844 C 690.300781 361.449219 693.371094 363.148438 694.8125 364.589844 C 695.339844 365.121094 695.671875 368.28125 696.1875 368.589844 C 696.921875 369.03125 704.519531 375.378906 704.820313 375.96875 C 705.0625 376.460938 706.140625 375.769531 706.4375 376.21875 C 707.25 377.4375 710.261719 378.511719 711.4375 379.21875 C 712.351563 379.769531 714.339844 383.488281 715.4375 384.21875 C 716.140625 384.6875 720.421875 388.53125 720.449219 388.601563 C 720.910156 389.839844 722.269531 389.300781 723.199219 390.230469 C 725.511719 392.539063 730.949219 393.351563 733.199219 395.601563 C 743.4375 405.839844 754.609375 412.761719 761.828125 419.980469 "/>
<path style=" stroke:none;fill-rule:nonzero;fill:rgb(96.499634%,75.698853%,14.898682%);fill-opacity:1;" d="M 203.058594 421.980469 C 203.058594 410.929688 212.011719 401.980469 223.058594 401.980469 C 234.109375 401.980469 243.070313 410.929688 243.070313 421.980469 C 243.070313 433.03125 234.109375 441.988281 223.058594 441.988281 C 212.011719 441.988281 203.058594 433.03125 203.058594 421.980469 "/>
<path style=" stroke:none;fill-rule:nonzero;fill:rgb(96.499634%,75.698853%,14.898682%);fill-opacity:1;" d="M 269.070313 421.980469 C 269.070313 410.929688 278.03125 401.980469 289.078125 401.980469 C 300.128906 401.980469 309.078125 410.929688 309.078125 421.980469 C 309.078125 433.03125 300.128906 441.988281 289.078125 441.988281 C 278.03125 441.988281 269.070313 433.03125 269.070313 421.980469 "/>
<path style=" stroke:none;fill-rule:nonzero;fill:rgb(96.499634%,75.698853%,14.898682%);fill-opacity:1;" d="M 337.089844 421.980469 C 337.089844 410.929688 346.050781 401.980469 357.101563 401.980469 C 368.148438 401.980469 377.101563 410.929688 377.101563 421.980469 C 377.101563 433.03125 368.148438 441.988281 357.101563 441.988281 C 346.050781 441.988281 337.089844 433.03125 337.089844 421.980469 "/>
<path style=" stroke:none;fill-rule:nonzero;fill:rgb(96.499634%,75.698853%,14.898682%);fill-opacity:1;" d="M 405.109375 421.980469 C 405.109375 410.929688 414.070313 401.980469 425.121094 401.980469 C 436.160156 401.980469 445.121094 410.929688 445.121094 421.980469 C 445.121094 433.03125 436.160156 441.988281 425.121094 441.988281 C 414.070313 441.988281 405.109375 433.03125 405.109375 421.980469 "/>
<path style=" stroke:none;fill-rule:nonzero;fill:rgb(96.499634%,75.698853%,14.898682%);fill-opacity:1;" d="M 471.128906 421.980469 C 471.128906 410.929688 480.089844 401.980469 491.128906 401.980469 C 502.179688 401.980469 511.140625 410.929688 511.140625 421.980469 C 511.140625 433.03125 502.179688 441.988281 491.128906 441.988281 C 480.089844 441.988281 471.128906 433.03125 471.128906 421.980469 "/>
<path style=" stroke:none;fill-rule:nonzero;fill:rgb(96.499634%,75.698853%,14.898682%);fill-opacity:1;" d="M 539.148438 421.980469 C 539.148438 410.929688 548.101563 401.980469 559.148438 401.980469 C 570.199219 401.980469 579.160156 410.929688 579.160156 421.980469 C 579.160156 433.03125 570.199219 441.988281 559.148438 441.988281 C 548.101563 441.988281 539.148438 433.03125 539.148438 421.980469 "/>
<path style=" stroke:none;fill-rule:nonzero;fill:rgb(13.699341%,12.199402%,12.5%);fill-opacity:1;" d="M 551.148438 411.980469 L 551.148438 415.980469 L 557.148438 415.980469 L 557.148438 431.988281 L 561.148438 431.988281 L 561.148438 415.980469 L 567.148438 415.980469 L 567.148438 411.980469 L 551.148438 411.980469 "/>
<path style=" stroke:none;fill-rule:nonzero;fill:rgb(13.699341%,12.199402%,12.5%);fill-opacity:1;" d="M 489.128906 431.988281 L 493.128906 431.988281 L 493.128906 411.980469 L 489.128906 411.980469 Z M 489.128906 431.988281 "/>
<path style=" stroke:none;fill-rule:nonzero;fill:rgb(13.699341%,12.199402%,12.5%);fill-opacity:1;" d="M 353.101563 422.980469 L 361.101563 422.980469 L 361.101563 420.980469 L 353.101563 420.980469 Z M 353.101563 422.980469 "/>
<path style=" stroke:none;fill-rule:nonzero;fill:rgb(13.699341%,12.199402%,12.5%);fill-opacity:1;" d="M 290.078125 428.589844 L 290.078125 432.988281 L 294.078125 432.988281 L 294.078125 428.589844 L 298.078125 428.589844 L 298.078125 424.179688 L 294.078125 424.179688 L 294.078125 410.980469 L 288.078125 410.980469 L 280.078125 424.179688 L 280.078125 428.589844 Z M 290.078125 414.28125 L 290.078125 424.179688 L 284.078125 424.179688 L 290.078125 414.28125 "/>
<path style=" stroke:none;fill-rule:nonzero;fill:rgb(13.699341%,12.199402%,12.5%);fill-opacity:1;" d="M 433.828125 426.3125 C 433.828125 427.390625 433.621094 428.339844 433.210938 429.160156 C 432.800781 429.980469 432.25 430.660156 431.5625 431.199219 C 430.730469 431.839844 429.828125 432.300781 428.851563 432.578125 C 427.871094 432.851563 426.621094 432.988281 425.101563 432.988281 L 416.359375 432.988281 L 416.359375 411.171875 L 424.078125 411.171875 C 425.6875 411.171875 426.898438 411.230469 427.730469 411.351563 C 428.5625 411.480469 429.328125 411.730469 430.050781 412.121094 C 430.839844 412.539063 431.421875 413.101563 431.8125 413.8125 C 432.1875 414.511719 432.390625 415.320313 432.390625 416.238281 C 432.390625 417.300781 432.121094 418.25 431.589844 419.078125 C 431.0625 419.910156 430.320313 420.519531 429.378906 420.921875 L 429.378906 421.03125 C 430.730469 421.320313 431.800781 421.890625 432.609375 422.769531 C 433.421875 423.640625 433.828125 424.820313 433.828125 426.3125 Z M 426.8125 417.328125 C 426.8125 416.980469 426.71875 416.621094 426.539063 416.25 C 426.351563 415.878906 426.070313 415.609375 425.6875 415.4375 C 425.328125 415.28125 424.898438 415.199219 424.410156 415.179688 C 423.921875 415.171875 423.179688 415.160156 422.210938 415.160156 L 421.828125 415.160156 L 421.828125 419.78125 L 422.511719 419.78125 C 423.449219 419.78125 424.109375 419.769531 424.480469 419.75 C 424.859375 419.730469 425.25 419.628906 425.648438 419.449219 C 426.089844 419.238281 426.390625 418.960938 426.5625 418.589844 C 426.71875 418.230469 426.8125 417.8125 426.8125 417.328125 Z M 428.1875 426.210938 C 428.1875 425.539063 428.050781 425.011719 427.777344 424.628906 C 427.5 424.25 427.089844 423.960938 426.550781 423.769531 C 426.210938 423.640625 425.761719 423.570313 425.171875 423.5625 C 424.589844 423.539063 423.8125 423.53125 422.839844 423.53125 L 421.828125 423.53125 L 421.828125 429 L 422.121094 429 C 423.550781 429 424.527344 428.988281 425.078125 428.96875 C 425.628906 428.949219 426.179688 428.8125 426.75 428.570313 C 427.25 428.359375 427.609375 428.039063 427.839844 427.628906 C 428.070313 427.210938 428.1875 426.738281 428.1875 426.210938 "/>
<path style=" stroke:none;fill-rule:nonzero;fill:rgb(13.699341%,12.199402%,12.5%);fill-opacity:1;" d="M 230.179688 424.550781 C 230.179688 426.839844 229.449219 428.730469 228 430.210938 C 226.539063 431.699219 224.539063 432.4375 222 432.4375 C 220.730469 432.4375 219.601563 432.25 218.601563 431.890625 C 217.601563 431.519531 216.761719 430.980469 216.058594 430.269531 C 215.230469 429.429688 214.601563 428.339844 214.160156 427.011719 C 213.71875 425.6875 213.5 424.101563 213.5 422.25 C 213.5 420.339844 213.699219 418.640625 214.109375 417.148438 C 214.519531 415.671875 215.191406 414.351563 216.121094 413.210938 C 217.011719 412.121094 218.171875 411.28125 219.609375 410.671875 C 221.039063 410.0625 222.738281 409.75 224.699219 409.75 C 225.421875 409.75 226.128906 409.800781 226.851563 409.890625 C 227.570313 409.980469 228.058594 410.0625 228.320313 410.121094 L 228.320313 414.398438 L 227.929688 414.398438 C 227.671875 414.28125 227.25 414.140625 226.671875 413.980469 C 226.078125 413.820313 225.410156 413.738281 224.660156 413.738281 C 222.949219 413.738281 221.628906 414.1875 220.699219 415.089844 C 219.78125 415.980469 219.199219 417.269531 218.988281 418.9375 C 219.699219 418.480469 220.429688 418.121094 221.171875 417.839844 C 221.910156 417.570313 222.738281 417.429688 223.671875 417.429688 C 224.449219 417.429688 225.191406 417.539063 225.878906 417.75 C 226.570313 417.960938 227.179688 418.261719 227.71875 418.660156 C 228.46875 419.238281 229.070313 420 229.519531 420.9375 C 229.960938 421.878906 230.179688 423.078125 230.179688 424.550781 Z M 223.808594 427.839844 C 224.101563 427.480469 224.308594 427.101563 224.460938 426.6875 C 224.621094 426.269531 224.691406 425.640625 224.691406 424.800781 C 224.691406 424.101563 224.601563 423.519531 224.429688 423.0625 C 224.25 422.601563 224 422.230469 223.679688 421.960938 C 223.359375 421.6875 222.988281 421.5 222.578125 421.398438 C 222.171875 421.289063 221.738281 421.238281 221.28125 421.238281 C 220.890625 421.238281 220.5 421.289063 220.101563 421.390625 C 219.691406 421.488281 219.308594 421.609375 218.960938 421.761719 L 218.941406 422.238281 C 218.941406 422.460938 218.929688 422.75 218.929688 423.089844 C 218.929688 424.339844 219.039063 425.351563 219.261719 426.109375 C 219.480469 426.871094 219.761719 427.449219 220.089844 427.839844 C 220.339844 428.148438 220.628906 428.371094 220.960938 428.511719 C 221.289063 428.648438 221.628906 428.71875 221.988281 428.71875 C 222.289063 428.71875 222.609375 428.640625 222.949219 428.5 C 223.289063 428.351563 223.578125 428.128906 223.808594 427.839844 "/>
</g>
</svg>
