<?xml version="1.0" standalone="no"?>
<!DOCTYPE svg PUBLIC "-//W3C//DTD SVG 20010904//EN"
 "http://www.w3.org/TR/2001/REC-SVG-20010904/DTD/svg10.dtd">
<svg version="1.0" xmlns="http://www.w3.org/2000/svg"
 width="500.000000pt" height="115.000000pt" viewBox="0 0 500.000000 115.000000"
 preserveAspectRatio="xMidYMid meet">

<g transform="translate(0.000000,115.000000) scale(0.100000,-0.100000)"
fill="#000000" stroke="none">
<path d="M199 1070 c-48 -39 -71 -66 -81 -92 -5 -16 -14 -28 -18 -28 -5 0 -17
-24 -27 -52 -23 -68 -26 -289 -3 -328 8 -14 15 -31 16 -38 1 -7 14 -28 28 -46
25 -33 25 -34 6 -51 -34 -31 -24 -233 12 -257 19 -12 496 -10 518 2 11 6 31
22 44 35 14 14 29 25 34 25 4 0 19 29 33 65 l24 65 395 1 c217 1 459 0 538 -1
102 -1 147 2 158 11 11 9 18 9 26 1 13 -13 255 -17 274 -4 6 4 14 15 17 26 7
17 9 17 34 -8 25 -26 27 -26 174 -26 148 0 149 0 149 -22 0 -13 11 -35 24 -50
21 -25 32 -28 110 -34 70 -6 89 -4 104 8 9 9 41 26 70 38 32 14 66 38 87 64
l34 41 21 -23 c20 -22 26 -22 240 -22 122 0 230 4 245 10 26 10 62 0 75 -21 7
-10 44 -16 163 -24 114 -8 177 3 255 47 51 27 54 28 59 10 9 -36 43 -41 305
-41 201 0 257 3 275 14 18 12 23 12 33 0 10 -12 39 -15 129 -15 64 0 123 5
131 10 13 8 15 54 18 297 2 158 0 299 -3 311 -3 13 -26 46 -52 73 l-46 49
-378 0 c-207 0 -384 -3 -393 -6 -9 -3 -16 -12 -16 -20 0 -20 -18 -17 -47 6
-24 18 -41 20 -219 20 -184 0 -244 -8 -244 -32 0 -14 -19 -9 -40 12 -19 19
-33 20 -236 20 -251 0 -249 0 -321 -95 -63 -83 -72 -110 -80 -220 -3 -38 -6
-71 -7 -72 -1 -1 -25 -5 -54 -9 -50 -6 -52 -6 -51 17 0 13 -4 49 -9 79 -6 33
-6 62 -1 72 5 9 9 55 9 102 0 131 9 126 -257 126 l-218 0 -52 -50 c-29 -28
-53 -46 -53 -41 0 6 -16 28 -37 48 l-36 38 -386 3 c-385 3 -386 3 -403 -19
-10 -12 -18 -17 -18 -12 0 30 -58 33 -554 33 -486 0 -504 -1 -527 -20z m523
-217 l3 -178 28 50 c15 28 42 60 60 73 30 20 45 22 155 22 72 0 122 4 122 10
0 22 -46 30 -172 30 -91 0 -138 4 -146 12 -7 7 -12 42 -12 85 l0 73 221 0
c255 0 258 -1 303 -92 26 -51 26 -55 26 -280 l0 -228 -239 0 -239 0 -33 27
c-18 15 -41 48 -53 73 l-21 45 -5 -105 c-3 -58 -12 -118 -20 -135 -7 -16 -14
-33 -14 -37 -1 -4 -19 -21 -41 -37 l-40 -30 -217 -1 -218 0 0 80 c0 94 4 98
97 94 35 -1 65 2 68 7 4 5 -4 9 -17 9 -52 0 -129 69 -167 150 -20 44 -26 75
-29 150 -5 122 19 192 88 263 l47 47 231 0 232 0 2 -177z m1358 140 c44 -50
60 -92 60 -160 l1 -58 20 59 c23 68 65 132 109 170 32 26 32 26 216 26 l184 0
0 -64 c0 -98 3 -96 -109 -97 -98 0 -161 -14 -169 -36 -3 -10 26 -13 121 -13
69 0 132 -3 141 -6 13 -5 16 -22 16 -85 0 -76 -1 -80 -26 -89 -14 -6 -78 -10
-142 -10 l-117 -1 24 -19 c20 -17 39 -20 137 -20 62 0 115 -4 119 -9 3 -6 26
4 51 21 39 26 51 29 86 24 29 -5 51 -2 78 11 l38 18 4 95 c4 115 35 189 100
245 l42 35 193 0 193 0 0 -74 c0 -104 -3 -106 -145 -106 l-113 0 -26 -30 c-32
-38 -42 -91 -27 -139 18 -63 32 -69 165 -73 143 -5 147 -8 143 -107 l-2 -66
-175 -3 c-114 -2 -184 1 -202 9 -15 6 -45 30 -66 53 l-39 42 -24 -35 c-13 -20
-30 -49 -38 -65 -17 -32 -66 -66 -97 -66 -11 0 -29 -9 -40 -21 -16 -18 -28
-20 -71 -17 -64 6 -83 20 -83 64 l0 34 -149 0 -148 0 -45 35 c-52 39 -91 100
-110 171 l-13 49 -5 -125 -5 -125 -95 0 -95 0 -6 200 c-4 110 -7 203 -8 208 0
4 -21 7 -46 7 l-45 0 -2 -207 -3 -208 -94 -3 c-69 -2 -97 1 -103 10 -4 7 -8
104 -8 216 l0 203 -42 -3 -43 -3 -3 -213 -2 -213 -98 3 -97 3 -3 298 -2 297
354 0 354 0 32 -37z m1868 23 c56 -29 116 -110 127 -170 12 -61 17 -33 16 79
l-2 105 354 0 355 0 31 -35 c17 -20 33 -45 36 -58 3 -12 4 -134 3 -272 l-3
-250 -82 -3 c-79 -3 -83 -2 -88 20 -5 21 -11 166 -14 356 l-1 62 -45 0 -45 0
0 -204 c0 -112 -3 -211 -6 -220 -5 -13 -23 -16 -88 -16 -50 0 -87 5 -94 12 -9
9 -12 69 -12 209 0 109 -3 204 -6 213 -4 11 -19 16 -45 16 l-39 0 -2 -217 -3
-218 -84 -8 c-65 -6 -87 -5 -97 5 -9 9 -14 51 -16 136 -3 125 -10 153 -22 81
-12 -73 -76 -175 -121 -193 -11 -4 -20 -6 -21 -4 0 2 -8 -3 -17 -11 -10 -7
-17 -10 -17 -5 0 5 -4 3 -9 -5 -7 -11 -39 -16 -124 -19 -105 -4 -119 -2 -161
19 -115 57 -176 187 -163 350 8 104 40 165 120 226 l42 32 158 1 c117 0 165
-4 185 -14z m-580 -285 l-3 -46 -65 -6 c-51 -5 -69 -4 -82 9 -19 16 -24 43
-10 56 4 4 8 12 8 17 1 5 2 11 3 14 0 3 35 5 76 4 l76 -1 -3 -47z"/>
<path d="M665 1011 c-4 -7 -64 -11 -167 -11 -183 0 -224 -11 -273 -76 -53 -70
-77 -177 -37 -173 9 1 33 1 53 0 35 -1 37 -3 43 -44 4 -23 13 -55 21 -70 l14
-27 -70 0 c-38 0 -69 -2 -69 -5 0 -15 41 -83 62 -102 43 -41 90 -53 203 -53
88 0 105 -2 105 -15 0 -25 -27 -72 -45 -79 -9 -3 -79 -6 -155 -6 l-138 0 -4
-51 -3 -50 181 3 c176 3 181 4 221 30 75 50 77 60 74 418 -1 173 -4 316 -6
318 -1 2 -6 -1 -10 -7z m-113 -188 l3 -68 53 -3 52 -3 0 -49 0 -49 -55 -6 -55
-7 0 -39 0 -39 -81 0 c-51 0 -78 4 -74 10 3 6 -1 10 -9 10 -8 0 -27 16 -42 35
-51 67 -41 200 18 250 26 22 39 25 108 25 l79 0 3 -67z"/>
<path d="M422 853 c-47 -6 -72 -50 -72 -126 0 -63 19 -110 49 -127 11 -5 40
-10 65 -10 l46 0 0 135 0 135 -27 -2 c-16 0 -43 -3 -61 -5z m28 -123 c0 -46
-3 -60 -15 -60 -38 0 -26 117 13 120 1 0 2 -27 2 -60z"/>
<path d="M965 1000 l-160 -5 0 -50 0 -50 148 -5 c148 -5 149 -5 173 -33 22
-26 34 -85 17 -88 -17 -3 -113 -7 -199 -8 -65 -1 -96 -5 -110 -17 -18 -14 -18
-15 4 -4 23 11 153 13 315 3 l98 -6 -3 -51 -3 -51 -50 -10 c-46 -10 -50 -13
-53 -43 l-3 -32 -100 0 c-64 0 -99 4 -99 11 0 6 -7 17 -15 25 -22 22 -18 60 7
78 16 12 47 16 116 16 65 0 91 3 86 11 -4 7 -40 10 -107 7 -93 -4 -102 -7
-123 -31 -12 -14 -23 -30 -25 -35 -3 -6 -23 -7 -52 -2 -56 8 -63 1 -53 -58 7
-47 33 -82 77 -104 29 -15 63 -18 232 -18 l198 0 -3 208 c-3 187 -5 212 -25
254 -39 85 -71 95 -288 88z"/>
<path d="M982 640 c-58 -9 -34 -25 43 -28 70 -3 75 -1 75 17 0 18 -6 20 -42
18 -24 -1 -58 -4 -76 -7z"/>
<path d="M375 410 c-4 -6 15 -10 49 -10 30 0 58 5 61 10 4 6 -15 10 -49 10
-30 0 -58 -4 -61 -10z"/>
<path d="M2615 1011 c-6 -5 -67 -11 -137 -13 -122 -3 -128 -4 -170 -33 -53
-38 -108 -137 -108 -196 0 -34 2 -39 18 -31 9 4 87 7 172 5 85 -1 170 -2 188
-3 29 0 32 -3 32 -30 l0 -30 -140 0 c-116 0 -142 -3 -146 -15 -5 -11 -20 -15
-60 -13 -29 1 -56 -1 -60 -4 -10 -11 15 -73 46 -116 15 -22 48 -49 73 -61 40
-19 58 -21 178 -19 l134 3 3 45 3 46 -100 -4 c-62 -3 -104 0 -113 6 -58 47
-78 70 -80 92 -3 28 -2 28 214 29 l77 1 -1 55 c-1 38 -6 55 -15 55 -7 0 -13
-4 -13 -10 0 -6 -52 -10 -135 -10 -129 0 -135 1 -135 20 0 35 27 88 52 102 13
7 69 15 133 18 l110 5 1 58 c0 57 -4 65 -21 48z"/>
<path d="M3275 1010 c-141 -7 -190 -25 -247 -88 -38 -42 -75 -139 -64 -167 3
-8 23 -15 52 -17 l47 -3 13 -50 c7 -27 13 -52 14 -53 0 -2 -27 -1 -60 3 -53 6
-60 5 -60 -10 0 -37 45 -108 87 -136 53 -37 99 -45 238 -45 l110 1 3 63 c2 38
-1 62 -8 62 -5 0 -10 -4 -10 -10 0 -6 -38 -10 -95 -10 -94 0 -96 1 -132 33
-45 41 -63 82 -63 149 0 63 24 109 72 138 27 16 51 20 136 20 l102 0 0 65 c0
36 -3 64 -7 63 -5 -1 -62 -4 -128 -8z"/>
<path d="M1673 1003 l-293 -3 0 -105 c0 -57 5 -116 10 -131 9 -24 14 -26 49
-21 37 5 39 3 45 -25 12 -60 11 -61 -49 -54 l-55 6 0 -110 0 -110 65 0 65 0 0
219 0 219 81 4 c44 2 83 1 85 -1 2 -2 4 -37 4 -77 l0 -73 48 -3 47 -3 3 -54 3
-53 -50 3 -51 4 0 -77 c0 -42 -3 -83 -6 -92 -5 -14 4 -16 60 -16 l66 0 0 220
0 220 63 0 c55 0 67 -3 87 -25 16 -17 26 -42 30 -73 l5 -47 45 -5 c45 -5 45
-5 48 -48 l3 -43 -50 7 -51 7 0 -97 c0 -53 0 -99 0 -103 0 -5 28 -8 63 -8 l62
0 -4 215 c-3 225 -8 254 -51 298 -21 23 -64 44 -78 40 -4 -2 -139 -4 -299 -5z"/>
<path d="M2933 583 c-1 -19 1 -22 8 -12 11 17 12 39 2 39 -5 0 -9 -12 -10 -27z"/>
<path d="M2795 580 c-3 -5 -15 -10 -26 -10 -11 0 -31 -12 -45 -27 -21 -23 -25
-35 -21 -67 3 -21 12 -46 21 -54 13 -14 19 -14 42 -1 35 19 114 88 114 101 0
13 -56 68 -69 68 -5 0 -13 -4 -16 -10z"/>
<path d="M2860 465 c-5 -14 -24 -34 -42 -45 -23 -14 -28 -20 -15 -20 23 0 77
53 77 74 0 24 -9 19 -20 -9z"/>
<path d="M2715 401 c4 -8 2 -17 -6 -22 -9 -6 -10 -9 -2 -9 19 0 27 21 13 33
-10 9 -11 9 -5 -2z"/>
<path d="M3710 998 c-91 -22 -142 -55 -180 -115 -27 -43 -49 -127 -37 -140 3
-3 27 -6 53 -7 l47 -1 13 -55 c7 -30 13 -58 14 -62 0 -3 -28 0 -61 8 -34 8
-64 12 -67 9 -8 -7 27 -91 50 -120 11 -14 43 -38 71 -53 46 -23 64 -26 147
-27 112 0 168 22 224 87 47 55 66 115 66 212 0 128 -48 209 -150 255 -28 12
-55 18 -73 14 -16 -3 -32 -1 -36 4 -4 6 -33 3 -81 -9z m113 -113 c31 -15 78
-77 92 -122 5 -19 14 -23 48 -24 23 -1 48 -1 55 0 8 1 12 -12 12 -41 0 -63 -9
-72 -56 -59 -57 16 -62 14 -78 -21 -21 -51 -59 -80 -110 -85 -40 -5 -50 -2
-87 28 -23 18 -48 47 -55 66 -18 42 -18 156 0 191 38 74 110 100 179 67z"/>
<path d="M3702 838 c-65 -70 -53 -191 25 -239 27 -17 41 -20 65 -13 83 24 106
171 39 243 -37 40 -96 43 -129 9z m73 -137 c-10 -26 -27 4 -19 34 l7 29 9 -24
c5 -13 6 -30 3 -39z"/>
<path d="M4415 1010 l-270 -5 -3 -136 -3 -136 51 5 50 5 0 -47 0 -46 -49 0
-50 0 -3 -100 c-3 -112 -5 -110 85 -109 l37 1 3 127 c1 69 2 170 2 225 l0 99
53 -1 c28 0 66 -1 82 -1 l30 -1 0 -62 c0 -35 4 -69 8 -75 5 -7 27 -14 50 -15
l42 -1 0 -52 c0 -57 -9 -65 -72 -65 l-28 0 0 -74 c0 -41 -3 -81 -6 -90 -5 -14
4 -16 58 -16 l65 0 6 163 c3 89 3 190 0 225 l-6 62 63 0 c56 0 65 -3 90 -30
22 -23 30 -43 32 -78 l3 -47 39 3 c48 5 56 -6 56 -75 l0 -53 -50 0 -50 0 0
-69 c0 -38 -3 -77 -6 -86 -6 -14 2 -16 57 -13 l64 3 0 220 c0 210 -1 222 -23
263 -26 49 -77 85 -109 77 -12 -3 -23 -2 -25 3 -2 4 -124 5 -273 2z"/>
</g>
</svg>
