<?xml version="1.0" encoding="UTF-8" standalone="no"?>
<!-- Created with Inkscape (http://www.inkscape.org/) -->
<svg xmlns:rdf="http://www.w3.org/1999/02/22-rdf-syntax-ns#" xmlns="http://www.w3.org/2000/svg" xml:space="preserve" height="117.065" width="657.375" version="1.0" xmlns:cc="http://creativecommons.org/ns#" xmlns:xlink="http://www.w3.org/1999/xlink" xmlns:dc="http://purl.org/dc/elements/1.1/"><metadata><rdf:RDF><cc:Work rdf:about=""><dc:format>image/svg+xml</dc:format><dc:type rdf:resource="http://purl.org/dc/dcmitype/StillImage"/><dc:title/></cc:Work></rdf:RDF></metadata><defs><filter id="filter4119" color-interpolation-filters="sRGB"><feGaussianBlur stdDeviation="0.55683008"/></filter><filter id="filter4123" color-interpolation-filters="sRGB"><feGaussianBlur stdDeviation="0.55683008"/></filter><filter id="filter4191" color-interpolation-filters="sRGB"><feGaussianBlur stdDeviation="2.5985404"/></filter></defs><g filter="url(#filter4191)" fill="#333333" transform="translate(-270.10394,-78.636469)"><use xlink:href="#path3276" transform="translate(274.92813,84.28484)" height="204.34291" filter="url(#filter4119)" width="347.46539" y="0" x="0"/><use xlink:href="#path3278" transform="translate(274.92813,84.28484)" height="204.34291" filter="url(#filter4123)" width="347.46539" y="0" x="0"/></g><path id="path3276" d="m485.635,8.00001c-0.71965,0-1.13014,0.61138-1.13014,1.37097l-0.1482,14.8029c0,0.72026,0.61041,1.09309,1.37097,1.09309l6.79932-0.0556c0.75885,0,1.37098-0.40988,1.37098-1.13014v-2.74196c0-0.72046-0.61213-1.1116-1.37098-1.1116l-4.39084,0.0185c-0.75886,0-1.38951-0.37283-1.38951-1.09308v-9.78213c0.001-0.75959-0.389-1.37097-1.111-1.37097zm33.2555,0c-0.0899,0-0.17916,0.0187-0.25937,0.0371-0.56149,0.12811-0.87077,0.66928-0.87077,1.33392l-0.16673,14.8029c0,0.45016,0.24554,0.75203,0.61138,0.92634,0.0731,0.0348,0.15854,0.0693,0.24084,0.0927,0.0822,0.0233,0.16979,0.0437,0.25938,0.0556,0.0895,0.0118,0.18286,0.0185,0.2779,0.0185l6.78079-0.0556c0.76034,0,1.37098-0.40988,1.37098-1.13012v-2.74197c0-0.72046-0.61064-1.11161-1.37098-1.11161l-4.39084,0.0185c-0.75885,0-1.37098-0.37284-1.37098-1.09308l-0.0185-9.78212c0-0.7596-0.37201-1.37098-1.09307-1.37098zm-106.344,0.0185c-0.7599,0-1.38951,0.42834-1.38951,1.14866l0.074,2.22321-0.074,12.4314c0,0.7593,0.39167,1.37099,1.1116,1.37099,0.09,0,0.16059-0.00024,0.24085-0.0185,0.56179-0.12813,0.88928-0.68806,0.88928-1.35246v-9.78212c0-0.72031,0.61226-1.13012,1.37099-1.13012h0.94485c0.75901,0,1.37099,0.40981,1.37099,1.13012l0.92633,5.20602c0,0.75959,0.37317,1.37097,1.09308,1.37097h2.427c0.0899,0,0.17981-0.003,0.25938-0.0185,0.557-0.11081,0.87092-0.59697,1.22277-1.27835,0,0,2.79205-6.67555,2.90869-6.92899,0.25071-0.54544,0.94487-0.45577,0.94487,0.074v9.94885l0.0371,1.46362c0,0.7593,0.37232,1.38952,1.09308,1.38952l2.79754,0.0185c0.09,0,0.16707-0.002,0.24085-0.0185,0.0737-0.0163,0.14272-0.0423,0.20379-0.0741,0.3664-0.19022,0.53218-0.64979,0.88929-1.27835l2.09351-4.5761c0.33986-0.66177,0.79695-1.11709,1.37098-1.13013h3.4645c0.7599,0,1.37099,0.40989,1.37099,1.13013l0.18526,4.87253c-0.0105,0.49339,0.24693,0.76692,0.64843,0.92634,0.13384,0.0532,0.28456,0.1,0.44465,0.12969,0.64036,0.1189,1.46072,0.0746,2.13057,0.0927,0.63718,0.0171,1.63148-0.405,1.63036-1.1116l0.0371-15.1178c0-0.72032-0.61189-1.1116-1.37097-1.1116h-7.3366c-0.7587,0-1.15473,0.38461-1.37097,1.1116,0,0-4.82511,12.1912-4.94664,12.4685-0.0151,0.0346-0.0394,0.0631-0.074,0.0927-0.0693,0.0592-0.1855,0.10446-0.29642,0.12968-0.2773,0.0631-0.61138-0.002-0.61138-0.352,0-0.56048-0.0185-11.9312-0.0185-11.9312,0-0.7596-0.31734-1.46361-1.0375-1.46361h-2.59375c-0.72025,0-0.98599,0.48243-1.50067,1.37098,0,0-3.06009,7.54498-3.24218,7.8924-0.0457,0.087-0.12403,0.16516-0.2038,0.22231-0.0797,0.0572-0.15342,0.0987-0.24085,0.11117-0.17484,0.025-0.34229-0.0534-0.38905-0.29643-0.0935-0.48547-1.50067-8.20735-1.50067-8.20735,0-0.72031-0.61108-1.14865-1.37098-1.14865h-4.85401zm133.93,0c-0.75959,0-1.38951,0.39129-1.38951,1.11161l-0.074,14.9696c0,0.26997,0.0926,0.48873,0.24085,0.66696,0.14827,0.17823,0.34618,0.31398,0.59285,0.38906,0.0822,0.0249,0.16991,0.0429,0.25937,0.0556,0.0894,0.0128,0.18305,0.0185,0.27791,0.0185l2.33436,0.0185v0.0185h5.70625c0.0949,0,0.18846-0.007,0.2779-0.0185,0.0894-0.0118,0.17714-0.0321,0.25938-0.0556,0.49313-0.14032,0.8337-0.47878,0.8337-1.01897,0-0.71964-0.61212-1.14865-1.37098-1.14865h-5.70625v0.0371c-0.73273-0.0201-1.31539-0.44691-1.31539-1.14865l0.0927-7.8924c0-0.72032,0.61138-1.09308,1.37097-1.09308h5.63214c0.75959,0,1.38949-0.37275,1.38949-1.09308v-2.6308c0-0.72032-0.6299-1.13013-1.38949-1.13013l-8.02208-0.0556zm24.4738,0c-0.095,0-0.18834,0.007-0.27791,0.0185-0.62695,0.0823-1.11161,0.46281-1.11161,1.09307-0.00099,0.37499,0.003,0.73664,0,1.11161-0.0266,4.25388-0.11705,8.52987-0.0556,12.7835,0.004,0.26097-0.042,0.53907-0.0556,0.81517-0.007,0.13806-0.002,0.2768,0.0185,0.40759,0.0206,0.13079,0.0608,0.2544,0.12968,0.37054,0.18009,0.3041,0.43761,0.49826,0.72255,0.61138,0.28495,0.11312,0.60767,0.1382,0.92634,0.12969,0.50188-0.0136,0.97655,0.0384,1.42656,0.0185,0.15001-0.007,0.30479-0.0308,0.44464-0.0556,0.55941-0.0991,1.02452-0.37432,1.33392-1.11161l0.18528-4.87252c0-0.72026,0.61211-1.13014,1.37097-1.13014h3.70536c0.75959,0,1.37098,0.40988,1.37098,1.13014l0.0556,4.57609c0,0.75961,0.37276,1.37099,1.09308,1.37099,0.0901,0,0.1791-0.00022,0.25937-0.0185,0.562-0.12813,0.88929-0.68782,0.88929-1.35247v-6.28056c0-1.07937-0.94761-1.42904-1.64887-1.77857-0.21039-0.10486-0.40054-0.21097-0.53729-0.33347-0.13675-0.12251-0.20379-0.26603-0.20379-0.44465,0-0.95212-0.0185-5.94709-0.0185-5.94709,0-0.72031-0.61212-1.1116-1.37098-1.1116h-8.65198zm16.4332,0c-0.0948,0-0.18844,0.007-0.27789,0.0185-0.62625,0.0823-1.11161,0.46281-1.11161,1.09307l-0.074,14.9696c0,0.35997,0.15868,0.64014,0.40758,0.8337,0.0623,0.0484,0.13063,0.0928,0.2038,0.12969,0.21952,0.11078,0.47474,0.16674,0.75959,0.16674h9.54128c0.75886,0,1.37097-0.41019,1.37097-1.13013l-0.074-14.9696c0-0.72031-0.61138-1.1116-1.37098-1.1116h-9.37454zm14.8399,0c-0.0949,0-0.18846,0.006-0.27791,0.0185-0.17889,0.0254-0.33551,0.0743-0.4817,0.1482-0.36547,0.18468-0.61137,0.53174-0.61137,0.98193l0.074,2.22321-0.074,12.4314c0,0.6644,0.29733,1.22433,0.85223,1.35246,0.0792,0.0183,0.1508,0.0185,0.24084,0.0185,0.0899,0,0.17916-0.00023,0.25938-0.0185,0.56149-0.12813,0.88927-0.68806,0.88927-1.35246v-9.78212c0-0.72031,0.61287-1.13013,1.37099-1.13013h5.02075c0.76034,0,1.37098,0.40982,1.37098,1.13013l0.0556,9.74507c0,0.7593,0.37423,1.37098,1.09308,1.37098,0.09,0,0.17909-0.00023,0.25937-0.0185,0.56199-0.12813,0.88928-0.68806,0.88928-1.35246l-0.0185-10.8381,0.0185-3.77946c0-0.72032-0.6299-1.14866-1.38951-1.14866h-9.54126zm23.566,0c-0.56914,0-1.06978,0.21952-1.27833,0.62991-0.0696,0.1368-0.0927,0.30161-0.0927,0.4817l-0.0926,14.9696c0,0.26997,0.0928,0.48868,0.24085,0.66696,0.24683,0.29713,0.65631,0.46317,1.13013,0.46317l8.04061,0.0371c0.75885,0,1.37098-0.37225,1.37098-1.09309,0-0.71964-0.61213-1.14865-1.37098-1.14865l-5.63214,0.0371c-0.75885,0-1.3895-0.42901-1.3895-1.14866l0.0926-7.89239c0-0.72032,0.61139-1.09308,1.37098-1.09308h5.63214c0.75959,0,1.3895-0.37276,1.3895-1.09308v-2.6307c0-0.72031-0.62991-1.13013-1.3895-1.13013l-8.02209-0.0556zm-6.74374,0.0185c-0.45019,0-0.7706,0.22721-0.94485,0.59285-0.0698,0.14626-0.1247,0.3212-0.14823,0.50022-0.0118,0.0895-0.0185,0.18295-0.0185,0.27791l0.074,9.87475c0,0.54013-0.28139,0.89732-0.74108,1.0375-0.0766,0.0233-0.15461,0.0438-0.24084,0.0556-0.0862,0.0118-0.18295,0-0.27791,0h-0.51875c-0.75885,0-1.50066,0.37283-1.50066,1.09307v2.6308c0,0.36012,0.18434,0.6401,0.46317,0.8337,0.0698,0.0484,0.14215,0.0928,0.22232,0.1297,0.24051,0.11078,0.53061,0.16673,0.81517,0.16673h4.52054c0.75886,0,1.37097-0.40989,1.37097-1.13013v-2.6308c0-0.11314-0.004-0.20745-0.0185-0.29643-0.10017-0.62288-0.53591-0.70192-0.9634-0.77812-0.1832-0.0326-0.36129-0.0699-0.51875-0.14821-0.2624-0.13069-0.44463-0.38082-0.44463-0.9634v-9.8748c0-0.7596-0.40908-1.37098-1.13014-1.37098zm-170.205,0.0371c-0.75989,0-1.38951,0.40981-1.38951,1.13013v2.6308c0,0.72032,0.62962,1.09308,1.38951,1.09308h1.723c0.7587,0,1.37097,0.37276,1.37097,1.09308l-0.0741,9.87475c0,0.7593,0.39085,1.37099,1.1116,1.37099,0.09,0,0.16058-0.00022,0.24085-0.0185,0.56195-0.12812,0.88928-0.68806,0.88928-1.35245v-9.87475c0-0.63027,0.46626-0.99223,1.09309-1.07455,0.0895-0.0118,0.1829-0.0185,0.2779-0.0185h4.74284c0.75871,0,1.37098,0.37276,1.37098,1.09308v9.87475c0,0.7593,0.40959,1.37098,1.13014,1.37098,0.0901,0,0.18006-0.00022,0.25937-0.0185,0.5552-0.12812,0.8337-0.68806,0.8337-1.35245l-0.074-9.87475c0-0.63029,0.48522-0.99222,1.1116-1.07455,0.0894-0.0118,0.18302-0.0185,0.2779-0.0185h1.72298c0.7599,0,1.37099-0.37276,1.37099-1.09308v-2.6308c0-0.72031-0.61109-1.13013-1.37099-1.13013h-18.008zm109.475,0c-0.18991,0-0.37272,0.024-0.53728,0.074-0.0822,0.0251-0.16768,0.0557-0.24085,0.0927-0.36587,0.18468-0.61139,0.51321-0.61139,0.9634v2.6308c0,0.72032,0.62992,1.09308,1.38952,1.09308h1.72298c0.75885,0,1.37098,0.37276,1.37098,1.09308l-0.074,9.87475c0,0.37966,0.0933,0.73322,0.2779,0.98192,0.0462,0.0622,0.10942,0.11735,0.16674,0.16674,0.11465,0.0988,0.24915,0.16719,0.4076,0.20379,0.0792,0.0183,0.16942,0.0185,0.25937,0.0185,0.09,0,0.16058-0.00022,0.24085-0.0185,0.56184-0.12812,0.88927-0.68806,0.88927-1.35245v-9.87475c0-0.63027,0.46733-0.99223,1.09308-1.07455,0.0893-0.0118,0.18314-0.0185,0.2779-0.0185h1.72299c0.75961,0,1.37098-0.37276,1.37098-1.09308v-2.6308c0-0.72031-0.61137-1.13013-1.37098-1.13013h-8.35555zm88.7246,0-8.13324,0.0556c-0.0948,0-0.18846,0.006-0.2779,0.0185-0.6261,0.0894-1.09308,0.48263-1.09308,1.11161l0.0926,7.55891c0,0.72047,0.61213,1.11161,1.37098,1.11161l3.98326,0.074c0.75885,0,1.37098,0.429,1.37098,1.14866l-0.0926,2.76049c0,0.17996-0.0416,0.34495-0.11116,0.48169-0.13907,0.27345-0.39358,0.4623-0.72255,0.55581-0.0822,0.0234-0.16985,0.0252-0.25937,0.0371-0.0895,0.0118-0.18294,0.0185-0.2779,0.0185l-5.66918,0.0185c-0.095,0-0.18841,0.007-0.27791,0.0185-0.62645,0.0823-1.09307,0.46286-1.09307,1.09308,0,0.35998,0.14052,0.64016,0.38906,0.83371,0.24853,0.19353,0.60211,0.29643,0.98192,0.29643h10.6899c0.37905,0,0.71485-0.0932,0.96338-0.27791,0.24855-0.18468,0.4076-0.45475,0.4076-0.81518l0.0926-7.42922c0-0.71988-0.62991-1.09308-1.3895-1.09308h-6.59552c-0.75961,0-1.37098-0.37253-1.37098-1.09308l-0.0927-3.13101c0-0.71958,0.62917-1.13014,1.3895-1.13014l5.72477,0.0185c0.75959,0,1.37098-0.40983,1.37098-1.13014,0-0.72032-0.61139-1.1116-1.37098-1.1116zm-173.688,0.12968c-0.7593,0-1.37097,0.37276-1.37097,1.09309v5.20601c0,0.75901-0.37232,1.37099-1.09309,1.37099l-1.48213,0.0371c-0.7587,0-1.37098,0.37312-1.37098,1.09307l-0.0927,7.09575c0,0.53995,0.35879,0.90584,0.85223,1.05602,0.0822,0.025,0.15137,0.0428,0.24084,0.0556,0.0894,0.0128,0.18303,0.0185,0.27791,0.0185l11.1346,0.0371c0.759,0,1.37098-0.37283,1.37098-1.09309,0-0.71964-0.61198-1.14865-1.37098-1.14865l-8.7261,0.0371c-0.7593,0-1.37098-0.429-1.37098-1.14866l0.074-2.64932c0-0.72025,0.61227-1.09308,1.37098-1.09308l8.65199,0.0185c0.0949,0,0.18843-0.007,0.2779-0.0185,0.0894-0.0118,0.15863-0.0321,0.24085-0.0556,0.4933-0.1403,0.85223-0.49693,0.85223-1.03749,0-0.6297-0.4668-1.02232-1.09308-1.11162-0.0894-0.0128-0.18304-0.0185-0.2779-0.0185l-1.92678-0.0185c-0.095,0-0.18836-0.006-0.27791-0.0185-0.35817-0.051-0.65463-0.18823-0.85222-0.42611-0.14821-0.17842-0.24086-0.4154-0.24086-0.68549l0.0741-3.24219c0-0.72031,0.63019-1.1116,1.38949-1.1116h1.83416c0.759,0,1.37098-0.39203,1.37098-1.1116,0-0.72032-0.61198-1.13014-1.37098-1.13014h-7.09575zm33.237,0c-0.47429,0-0.88323,0.13932-1.13013,0.42612-0.0494,0.0573-0.0949,0.13539-0.1297,0.2038-0.0695,0.13679-0.11115,0.28309-0.11115,0.46317v5.20601c0,0.75901-0.37202,1.37099-1.09308,1.37099l-1.48214,0.0371c-0.75885,0-1.37098,0.37312-1.37098,1.09307l-0.0927,7.09575c0,0.26999,0.0926,0.48873,0.24084,0.66697,0.14831,0.17822,0.36456,0.31397,0.61138,0.38905,0.0822,0.025,0.16984,0.0428,0.25938,0.0556,0.0895,0.0128,0.18295,0.0185,0.2779,0.0185l11.116,0.0371c0.76033,0,1.37098-0.37283,1.37098-1.09309,0-0.71964-0.61065-1.14865-1.37098-1.14865l-8.72609,0.0371c-0.75885,0-1.37099-0.429-1.37099-1.14866l0.074-2.64932c0-0.72025,0.63066-1.09308,1.38951-1.09308l8.63346,0.0185c0.095,0,0.18831-0.007,0.2779-0.0185,0.0895-0.0118,0.17708-0.0321,0.25938-0.0556,0.49375-0.1403,0.8337-0.49693,0.8337-1.03749,0-0.6297-0.46598-1.02232-1.09308-1.11162-0.0895-0.0128-0.18286-0.0185-0.2779-0.0185l-1.92678-0.0185c-0.0949,0-0.18839-0.006-0.2779-0.0185-0.35806-0.051-0.65467-0.18823-0.85223-0.42611-0.14818-0.17842-0.24084-0.4154-0.24084-0.68549l0.0927-3.24219c0-0.72031,0.61137-1.1116,1.37097-1.1116h1.83415c0.76033,0,1.37098-0.39203,1.37098-1.1116,0-0.72032-0.61065-1.13014-1.37098-1.13014h-7.09574zm27.5863,0c-0.47427,0-0.90175,0.13932-1.14865,0.42612-0.0494,0.0573-0.0949,0.13539-0.12969,0.2038-0.0696,0.13679-0.11116,0.28309-0.11116,0.46317l0.0185,5.20601c0,0.75901-0.39129,1.37099-1.11161,1.37099l-1.46361,0.0371c-0.7596,0-1.37098,0.37312-1.37098,1.09307l-0.0927,7.09575c0,0.26999,0.0925,0.48873,0.24085,0.66697,0.14836,0.17822,0.34624,0.31397,0.59285,0.38905,0.0822,0.025,0.16997,0.0428,0.25937,0.0556s0.18314,0.0185,0.27791,0.0185l11.116,0.0371c0.7596,0,1.38952-0.37283,1.38952-1.09309,0-0.71964-0.62992-1.14865-1.38952-1.14865l-8.70756,0.0371c-0.7596,0-1.38951-0.429-1.38951-1.14866l0.0927-2.64932c0-0.72025,0.61138-1.09308,1.37098-1.09308l8.63345,0.0185c0.0949,0,0.1884-0.007,0.27792-0.0185,0.0895-0.0118,0.17713-0.0321,0.25937-0.0556,0.49344-0.1403,0.85223-0.49693,0.85223-1.03749,0-0.6297-0.485-1.02232-1.1116-1.11162-0.0895-0.0128-0.18296-0.0185-0.27792-0.0185l-1.90824-0.0185c-0.095,0-0.18839-0.006-0.27791-0.0185-0.35805-0.051-0.67318-0.18823-0.87075-0.42611-0.14818-0.17842-0.22233-0.4154-0.22233-0.68549l0.0741-3.24219c0-0.72031,0.61137-1.1116,1.37097-1.1116h1.83414c0.7596,0,1.38952-0.39203,1.38952-1.1116,0-0.72032-0.62992-1.13014-1.38952-1.13014h-7.07721zm-95.5424,2.2788h3.05691c0.75871,0,1.37098,0.3735,1.37098,1.09308l0.0927,3.22366c0,0.72023-0.61169,1.13012-1.37099,1.13012h-4.53904c-1.55855-0.0223-1.35453-1.11419-1.25982-1.48213l1.27834-2.87165c0.36943-0.62843,0.61198-1.09308,1.37098-1.09308zm134.745,0h3.77946c0.75961,0,1.37098,0.3735,1.37098,1.09308l0.0927,3.22366c0,0.72023-0.63064,1.13012-1.38949,1.13012h-3.92768c-0.75959,0-1.37098-0.40989-1.37098-1.13012l0.074-3.22366c0-0.71958,0.61138-1.09308,1.37097-1.09308zm16.1924,0h4.98369c0.75887,0,1.37099,0.3735,1.37099,1.09308l0.074,7.91091c0,0.72025-0.61211,1.13013-1.37097,1.13013h-5.13191c-0.75885,0-1.37098-0.40988-1.37098-1.13013l0.0741-7.91091c0-0.71958,0.61287-1.09308,1.37097-1.09308z"/><path id="path3278" d="m385.812,14.589s-17.5312,67.3481-18,68.875c-0.6125,1.98975-2.50625,2.64063-3.5,0.34375-1.22375-2.44875-14.5-47.9375-14.5-47.9375h-24.1875s18.0575,59.2451,18.875,61c8.5725,18.3672,27.4638,11.0313,31.3438-2.4375,3.99125-13.8628,21.0625-79.8438,21.0625-79.8438h-11.0938zm-249.75,5.03125-37.5312,23.9375c-0.001-4.62937,0-7.5625,0-7.5625h-11.937v33.0312c0,0.82525-1.54988,2.338-2.9375,0.3125,0,0-15.8965-22.7954-21.6562-29.6875-4.78312-5.72663-21.4662-5.43313-21.5312,8.125-0.0425,8.60687,0.0312,59,0.0312,59h11.9375v-41.6562c0-2.30575,2.04238-1.49557,3.3125-0.0625,0.58925,0.66313,26.1606,39.6001,27.3125,41.1562,2.60688,3.51856,15.5,6.11768,15.5-7.1875,0-9.5332-0.0249-37.7641-0.0312-53h11.6562c1.22213,0,2.77875,1.37299,2.78125,1.375-0.01,1.15374-0.1875,37.4879-0.1875,42.2812,0,10.7813,8.93162,18.0625,18.5938,18.0625h21.5312v-10.4686h-9.90625c-3.54875,0-6.34375-2.6085-6.34375-6.15625v-40.8438c0-2.19725,1.7625-5.3125,5.28125-5.3125,3.52,0,11.0312-0.0937,11.0312-0.0937v-9h-14.8125c-1.3775,0-2.09375-1.084-2.09375-2.09375v-14.1562zm-127.874,0.4063s-0.1875,82.9263-0.1875,87.875l23.1562-0.0312v-87.8445h-22.9688zm541.531,15c-11.1337,0-21.1218,4.64056-28.0625,12.0312-0.40828,0.43475-0.80088,0.89035-1.1875,1.34375-5.41267,6.34757-8.6875,14.4709-8.6875,23.3438,0,5.07019,1.08008,9.91914,3,14.3125,0.23999,0.54917,0.48359,1.08987,0.75,1.625,4.52904,9.09726,12.8068,16.1162,22.9062,19.1562,0.59409,0.17883,1.20629,0.3178,1.8125,0.46875,3.03105,0.75473,6.19414,1.15625,9.46875,1.15625,20.9575,0,37.9688-16.438,37.9688-36.7188,0-20.2809-17.0112-36.7188-37.9688-36.7188zm-101.281,0.53125c-13.9225,0-24.7188,9.96038-24.7188,24.125,0,14.5879,16.095,19.23,24.5938,20.125,5.34625,0.563,10.5,4.25875,10.5,9.5,0,4.21625-3.64,7.625-7.5625,7.625l-24.8438-0.0937v10.4688h27.5c0.43512,0,0.85155-0.0101,1.28125-0.0312,13.3207-0.65489,23.9062-11.36,23.9062-24.5625,0-2.17786-0.12307-4.10795-0.40625-5.84375-0.0708-0.43395-0.16188-0.84105-0.25-1.25-2.3793-11.0418-11.0355-13.1794-24.5312-16.75,0,0-7.15625-2.22463-7.15625-6.53125,0-2.69164,1.55756-4.53933,3.6875-5.53125,0.21299-0.0992,0.43292-0.19874,0.65625-0.28125,1.11663-0.41257,2.33711-0.59375,3.5625-0.59375l16.8438,0.0625v-10.4375h-23.0625zm-151.375,0.0937s-0.1875,7.36225-0.1875,12.3125l23.1562-0.0625v-12.25h-22.9688zm98.3438,0s-0.15625,7.36225-0.15625,12.3125l23.125-0.0625v-12.25h-22.9688zm88.5625,0s-0.15625,7.36225-0.15625,12.3125l23.125-0.0625v-12.25h-22.9688zm-310.656,0.0625c-6.64211,0-11.4721,3.43916-13.8438,9.09375-0.2156,0.51405-0.38806,1.04406-0.5625,1.59375-0.69775,2.19876-1.0625,4.68003-1.0625,7.375v35.2812c0,10.7812,5.8075,18.4688,15.4688,18.4688h34.6875v-10.438h-20.6562c-3.54875,0-6.31125-3.00688-6.28125-6.5625v-13.8125h23.7188v-10.4375l-23.75-0.0625-0.0625-13.875c0-3.54838,2.82625-6.15625,6.375-6.15625h20.6562v-10.4688h-34.6875zm39.5625,0.125s-0.1875,48.8955-0.1875,53.8438c0,2.02149,0.31182,3.90564,0.84375,5.65625,0.17731,0.58354,0.36391,1.16901,0.59375,1.71875,2.52823,6.04715,8.12687,9.97798,14.625,10.5938,0.59074,0.056,1.20867,0.0937,1.8125,0.0937h21.5312v-10.4695h-9.5c-3.5475,0-6.34375-2.6085-6.34375-6.15625v-55.2812h-23.375zm41,0s-0.15625,48.8955-0.15625,53.8438c0,10.1075,7.20127,17.1291,16.0625,17.9688,0.59075,0.056,1.17742,0.0937,1.78125,0.0937h21.5312v-10.4695h-9.875c-3.54875,0-6.375-2.6085-6.375-6.15625v-55.2812h-22.9688zm383.531,0.15625v33.0312c0,0.82525-1.54875,2.3375-2.9375,0.3125,0,0-15.865-22.7954-21.625-29.6875-4.785-5.72663-21.495-5.43313-21.5625,8.125-0.04,8.60687,0.0312,59,0.0312,59h11.9375v-41.6562c0-2.30575,2.04125-1.49557,3.3125-0.0625,0.58875,0.66363,26.1925,39.6001,27.3438,41.1562,0.48844,0.65973,1.31723,1.28581,2.375,1.78125,0.35259,0.16515,0.73175,0.33646,1.125,0.46875,4.71902,1.58746,11.9688,0.54138,11.9688-9.4375,0-13.3037-0.0312-63.0312-0.0312-63.0312h-11.9375zm-87.6875,7.59375c9.19625,0,12.875,12.6074,12.875,28.1562,0,15.5478-4.32375,28.1377-12.875,28.1562-2.33812,0.005-4.29418-0.76378-5.9375-2.1875-0.20542-0.17796-0.39855-0.36488-0.59375-0.5625-0.58561-0.592862-1.12869-1.27217-1.625-2.03125-0.16544-0.25303-0.3442-0.51094-0.5-0.78125-2.9602-5.13587-4.1875-13.3623-4.1875-22.5938,0-0.97181,0.0134-1.92856,0.0312-2.875,0.16102-8.51793,1.11564-15.9154,4.03125-20.4688,0.16198-0.25296,0.32569-0.48362,0.5-0.71875,1.91738-2.58641,4.57949-4.09341,8.28125-4.09375zm-252.656,8.875s-0.1875,50.4888-0.1875,55.4375l23.1562-0.0312v-55.4062h-22.9688zm98.3438,0s-0.15625,50.4888-0.15625,55.4375l23.125-0.0312v-55.4062h-22.9688zm88.5625,0s-0.15625,50.4888-0.15625,55.4375l23.125-0.0312v-55.4062h-22.9688z"/></svg>
