<?xml version="1.0" encoding="UTF-8" standalone="no"?>
<!-- Created with Inkscape (http://www.inkscape.org/) -->
<svg xmlns:rdf="http://www.w3.org/1999/02/22-rdf-syntax-ns#" xmlns="http://www.w3.org/2000/svg" version="1.1" xmlns:cc="http://creativecommons.org/ns#" xmlns:xlink="http://www.w3.org/1999/xlink" viewBox="0 0 400 298.9" xmlns:dc="http://purl.org/dc/elements/1.1/">
 <defs>
  <clipPath id="clipPath6106" clipPathUnits="userSpaceOnUse">
   <path d="M0,480,640,480,640,0,0,0,0,480z"/>
  </clipPath>
 </defs>
 <metadata>
  <rdf:RDF>
   <cc:Work rdf:about="">
    <dc:format>image/svg+xml</dc:format>
    <dc:type rdf:resource="http://purl.org/dc/dcmitype/StillImage"/>
    <dc:title/>
   </cc:Work>
  </rdf:RDF>
 </metadata>
 <g transform="translate(-665.83442,-342.208)">
  <g transform="matrix(1.1486244,0,0,-1.1486244,497.09039,767.03036)">
   <g clip-path="url(#clipPath6106)">
    <path fill-rule="nonzero" fill="#000" d="m347.2,247.7-2.37,0,0-13.34,2.261,0,0,8.737,4.891-8.737,2.445,0,0,13.34-2.263,0,0-8.94-4.964,8.94zm-4.732,0-2.44,0,0-13.34,2.44,0,0,13.34zm-175.5-3.11,1.679-4.947-3.317,0,1.638,4.947zm-2.385-7.207,4.849,0,1.051-3.027,2.663,0-4.848,13.34-2.602,0-4.706-13.34,2.592,0,1.001,3.027zm36.83,7.207,1.676-4.947-3.314,0,1.638,4.947zm-2.384-7.207,4.849,0,1.051-3.027,2.659,0-4.846,13.34-2.602,0-4.706-13.34,2.592,0,1.003,3.027zm124.9-3.027,0,11.08,3.582,0,0,2.259-9.618,0,0-2.259,3.594,0,0-11.08,2.442,0zm-132.8,3.47-3.063,9.874-2.649,0,4.329-13.34,2.624,0,4.314,13.34-2.593,0-2.962-9.874zm20.15,9.874-2.369,0,0-13.34,2.261,0,0,8.737,4.893-8.737,2.44,0,0,13.34-2.26,0,0-8.94-4.965,8.94zm-29.47-9.118c-0.164-0.597-0.379-1.025-0.643-1.286-0.258-0.26-0.59-0.445-0.986-0.554-0.303-0.087-0.795-0.127-1.478-0.127h-1.826v8.826h1.099c0.998,0,1.665-0.042,2.007-0.128,0.455-0.108,0.836-0.317,1.132-0.627,0.298-0.309,0.531-0.739,0.695-1.29,0.165-0.552,0.248-1.343,0.248-2.372,0-1.031-0.083-1.845-0.248-2.442m-0.613,8.863c-0.525,0.169-1.294,0.255-2.3,0.255h-4.461v-13.34h4.593c0.9,0,1.623,0.092,2.16,0.281,0.721,0.256,1.295,0.611,1.716,1.064,0.563,0.601,0.993,1.388,1.298,2.36,0.245,0.793,0.369,1.74,0.369,2.839,0,1.25-0.133,2.301-0.397,3.155-0.264,0.851-0.649,1.572-1.154,2.161-0.504,0.588-1.115,0.999-1.824,1.229m181.6-8.848-2.188,9.103-3.662,0,0-13.34,2.26,0,0.007,10.5,2.392-10.5,2.355,0,2.394,10.5,0.009-10.5,2.261,0,0,13.34-3.67,0-2.158-9.103zm17.46-1.982-6.754,0,0,3.609,6.066,0,0,2.259-6.066,0,0,2.958,6.523,0,0,2.259-8.965,0,0-13.34,9.196,0,0,2.259zm-105.2,6.478,4.889-8.737,2.446,0,0,13.34-2.266,0,0-8.94-4.964,8.94-2.367,0,0-13.34,2.262,0,0,8.737zm29.22,2.348,0,2.259-8.965,0,0-13.34,9.195,0,0,2.259-6.753,0,0,3.609,6.064,0,0,2.259-6.064,0,0,2.958,6.523,0zm-14.12-11.08,0,11.08,3.582,0,0,2.259-9.617,0,0-2.259,3.593,0,0-11.08,2.442,0zm23.57,8.425c-0.164-0.268-0.392-0.456-0.684-0.565-0.292-0.11-1.023-0.164-2.194-0.164h-1.807v3.389h1.905c0.99,0,1.585-0.015,1.784-0.045,0.397-0.074,0.7-0.249,0.917-0.524,0.22-0.277,0.329-0.641,0.329-1.089,0-0.402-0.084-0.734-0.25-1.002m2.765,1.175c0,0.79-0.176,1.491-0.53,2.105-0.351,0.613-0.821,1.04-1.406,1.28-0.586,0.239-1.525,0.359-2.818,0.359h-5.14v-13.34h2.444v5.565h0.492c0.564,0,0.973-0.05,1.233-0.15s0.504-0.285,0.734-0.554c0.233-0.271,0.661-0.92,1.291-1.957l1.76-2.904h2.923l-1.476,2.6c-0.583,1.037-1.048,1.759-1.392,2.165-0.342,0.406-0.779,0.78-1.308,1.119,1.063,0.171,1.859,0.582,2.393,1.234,0.532,0.654,0.8,1.48,0.8,2.482m16.13,0.634,1.678-4.947-3.315,0,1.637,4.947zm-2.384-7.207,4.851,0,1.051-3.027,2.659,0-4.848,13.34-2.6,0-4.704-13.34,2.592,0,0.999,3.027zm54.52,10.32-2.371,0,0-13.34,2.261,0,0,8.737,4.892-8.737,2.443,0,0,13.34-2.259,0,0-8.94-4.966,8.94zm14.99-13.34,0,11.08,3.586,0,0,2.259-9.618,0,0-2.259,3.595,0,0-11.08,2.437,0zm26.75,0,0,5.598,4.458,7.746-2.816,0-2.791-5.286-2.858,5.286-2.867,0,4.434-7.729,0-5.615,2.44,0zm-12.49,2.036c-0.742,0-1.335,0.207-1.772,0.621-0.435,0.413-0.727,1.06-0.871,1.942l-2.379-0.256c0.159-1.493,0.65-2.628,1.472-3.408,0.818-0.779,1.993-1.168,3.523-1.168,1.051,0,1.928,0.162,2.632,0.487,0.706,0.324,1.251,0.82,1.638,1.485,0.383,0.668,0.576,1.384,0.576,2.148,0,0.844-0.162,1.55-0.484,2.124-0.32,0.573-0.767,1.025-1.336,1.356-0.57,0.33-1.453,0.65-2.641,0.959-1.191,0.309-1.938,0.607-2.247,0.891-0.24,0.225-0.362,0.497-0.362,0.812,0,0.346,0.129,0.622,0.386,0.829,0.405,0.323,0.959,0.483,1.672,0.483,0.688,0,1.206-0.15,1.549-0.45,0.343-0.303,0.567-0.796,0.672-1.483l2.443,0.117c-0.04,1.225-0.443,2.205-1.208,2.938-0.771,0.735-1.912,1.102-3.433,1.102-0.932,0-1.722-0.155-2.381-0.463-0.659-0.31-1.164-0.761-1.512-1.352-0.349-0.589-0.523-1.225-0.523-1.905,0-1.055,0.37-1.948,1.114-2.683,0.53-0.521,1.45-0.961,2.759-1.318,1.02-0.279,1.672-0.472,1.959-0.582,0.417-0.164,0.712-0.357,0.881-0.579,0.167-0.221,0.252-0.49,0.252-0.806,0-0.493-0.2-0.921-0.601-1.291-0.4-0.363-0.993-0.55-1.778-0.55m22.56,0c-0.745,0-1.333,0.207-1.772,0.621-0.435,0.413-0.729,1.06-0.871,1.942l-2.379-0.256c0.16-1.493,0.651-2.628,1.474-3.408,0.817-0.779,1.989-1.168,3.522-1.168,1.05,0,1.929,0.162,2.633,0.487,0.705,0.324,1.249,0.82,1.637,1.485,0.382,0.668,0.578,1.384,0.578,2.148,0,0.844-0.165,1.55-0.486,2.124-0.323,0.573-0.767,1.025-1.335,1.356-0.573,0.33-1.454,0.65-2.641,0.959-1.189,0.309-1.939,0.607-2.249,0.891-0.238,0.225-0.361,0.497-0.361,0.812,0,0.346,0.128,0.622,0.388,0.829,0.402,0.323,0.957,0.483,1.669,0.483,0.688,0,1.205-0.15,1.55-0.45,0.343-0.303,0.565-0.796,0.671-1.483l2.444,0.117c-0.042,1.225-0.444,2.205-1.21,2.938-0.768,0.735-1.913,1.102-3.434,1.102-0.928,0-1.722-0.155-2.379-0.463-0.659-0.31-1.164-0.761-1.512-1.352-0.349-0.589-0.523-1.225-0.523-1.905,0-1.055,0.372-1.948,1.114-2.683,0.529-0.521,1.45-0.961,2.759-1.318,1.019-0.279,1.674-0.472,1.961-0.582,0.417-0.164,0.71-0.357,0.877-0.579,0.169-0.221,0.254-0.49,0.254-0.806,0-0.493-0.201-0.921-0.601-1.291-0.4-0.363-0.993-0.55-1.778-0.55m12.05-2.036,0,11.08,3.581,0,0,2.259-9.616,0,0-2.259,3.593,0,0-11.08,2.442,0zm20.07,13.34-3.665,0,0-13.34,2.265,0,0.005,10.5,2.391-10.5,2.353,0,2.401,10.5,0.005-10.5,2.258,0,0,13.34-3.668,0-2.161-9.103-2.184,9.103zm-5.948-2.259,0,2.259-8.962,0,0-13.34,9.196,0,0,2.259-6.756,0,0,3.609,6.068,0,0,2.259-6.068,0,0,2.958,6.522,0zm-210.8-6.9c-0.165-0.597-0.379-1.025-0.64-1.286-0.263-0.26-0.591-0.445-0.988-0.554-0.302-0.087-0.796-0.127-1.476-0.127h-1.828v8.826h1.099c0.997,0,1.664-0.042,2.007-0.128,0.458-0.108,0.835-0.317,1.134-0.627,0.293-0.309,0.527-0.739,0.692-1.29,0.165-0.552,0.249-1.343,0.249-2.372,0-1.031-0.084-1.845-0.249-2.442m-0.609,8.863c-0.528,0.169-1.296,0.255-2.302,0.255h-4.46v-13.34h4.593c0.901,0,1.621,0.092,2.161,0.281,0.721,0.256,1.291,0.611,1.716,1.064,0.561,0.601,0.99,1.388,1.295,2.36,0.245,0.793,0.368,1.74,0.368,2.839,0,1.25-0.131,2.301-0.395,3.155-0.263,0.851-0.647,1.572-1.152,2.161-0.508,0.588-1.118,0.999-1.824,1.229m19.12-2.004,0,2.259-8.963,0,0-13.34,9.196,0,0,2.259-6.755,0,0,3.609,6.066,0,0,2.259-6.066,0,0,2.958,6.522,0zm-44.26,0.173c0.65,0,1.199-0.2,1.655-0.598,0.451-0.4,0.751-0.946,0.895-1.637l2.417,0.642c-0.271,1.066-0.686,1.885-1.236,2.454-0.924,0.964-2.127,1.446-3.608,1.446-1.692,0-3.059-0.614-4.099-1.844-1.042-1.227-1.561-2.953-1.561-5.174,0-2.099,0.519-3.754,1.553-4.965,1.033-1.21,2.355-1.815,3.96-1.815,1.298,0,2.369,0.354,3.215,1.063,0.842,0.709,1.447,1.796,1.811,3.257l-2.37,0.826c-0.202-0.982-0.537-1.7-1.008-2.157-0.464-0.457-1.026-0.683-1.671-0.683-0.881,0-1.6,0.356-2.149,1.072-0.55,0.716-0.824,1.916-0.824,3.603,0,1.588,0.279,2.738,0.838,3.448,0.558,0.708,1.284,1.062,2.182,1.062m16.07-0.173,0,2.259-8.963,0,0-13.34,9.195,0,0,2.259-6.751,0,0,3.609,6.064,0,0,2.259-6.064,0,0,2.958,6.519,0zm-22.69-81.65,2.534,0c2.364,0,6.413-0.487,8.079-1.465,1.668-0.97,2.766-2.058,3.296-3.262,0.532-1.206,0.801-3.862,0.801-7.964v-16.11c-0.002-4.861-5.136-7.337-7.612-7.874-2.482-0.537-4.896-0.806-7.251-0.806-6.781,0-12.64,1.764-17.57,5.294-4.929,3.533-8.501,9.056-10.71,16.58-2.212,7.519-3.314,16.27-3.314,26.24,0,8.238,1.011,16.27,3.034,24.1,2.024,7.83,5.47,13.93,10.34,18.31,4.864,4.373,10.96,6.562,18.29,6.562,7.665,0,12.14-1.94,17.79-7.802,5.767-5.991,11.3-12.8,14.53-22.79h4.716v36.69h-2.682c-0.968-2.939-2.025-4.934-3.18-5.989-1.159-1.058-2.413-1.584-3.759-1.584-0.868,0-3.68,0.955-8.423,2.865-4.746,1.913-8.18,3.074-10.3,3.483-3.903,0.814-6.935,1.225-11.8,1.225-15.71,0-28.74-5.398-39.1-16.19-10.36-10.8-15.54-24.03-15.54-39.69,0-8.748,1.684-16.66,5.057-23.72,2.651-5.474,6.327-10.4,11.02-14.78,4.699-4.374,10.12-7.907,16.26-10.59,6.144-2.682,13.87-4.026,23.17-4.026,7.278,0,14.3,0.752,21.07,2.255,6.773,1.508,13.29,3.74,19.56,6.696v21.64c0,3.794,0.213,6.18,0.647,7.151,0.769,1.847,1.862,3.165,3.283,3.962,1.418,0.798,5.288,1.318,8.898,1.578v3.543h-51.13v-3.543zm130.7-28.12c-5.828-4.464-13.58-6.692-23.25-6.692h-5.514c-2.954,0-5.088,0.403-6.414,1.215-1.321,0.813-2.228,1.852-2.709,3.121-0.483,1.268-0.727,4.742-0.727,10.42v29.07c4.968,0,10.79-0.646,13.4-1.946,2.607-1.293,4.899-3.823,6.866-7.584,1.976-3.761,3.268-7.913,3.882-13.8h4.193v53.5h-4.193c-0.819-8.038-2.712-13.43-5.684-17.55-2.967-4.119-7.756-6.178-14.36-6.178h-4.107v35.88c-0.035,6.237,5.526,5.514,5.526,5.514h6.496c7.857,0,13.21-0.459,16.07-1.375,4.895-1.522,8.681-3.911,11.36-7.157,2.68-3.253,4.754-8.607,6.235-16.07h3.515v30.56h-87.38v-4.186h2.757c3.357,0,6.007-0.71,7.937-2.128,1.376-0.965,2.319-2.339,2.826-4.114,0.255-1.061,0.384-3.93,0.384-8.598v-64.65c0-5.175-0.279-8.371-0.841-9.591-0.713-1.723-1.732-2.942-3.053-3.651-1.835-1.068-4.252-1.598-7.253-1.598h-2.757v-4.863h88.89l5.341,32.87h-4.879c-2.546-9.151-6.734-15.96-12.56-20.42m100.2,9.812c-2.431-7.2-5.833-12.44-10.2-15.72-3.425-2.565-7.697-3.844-12.81-3.844-7.599,0-13.51,2.973-17.73,8.918-6.056,8.505-9.085,21.65-9.085,39.43,0,14.96,1.96,26.44,5.884,34.43,4.815,9.736,11.84,14.6,21.08,14.6,5.015,0,9.45-1.411,13.3-4.229,3.848-2.817,7.013-7.648,9.497-14.48,2.482-6.844,3.724-17.16,3.724-30.94,0-11.58-1.215-20.97-3.651-28.17m-23.76,82.75c-14.89,0.615-27.45-4.241-37.65-14.57-10.21-10.33-15.31-23.24-15.31-38.72,0-13.79,3.92-25.71,11.77-35.76,9.927-12.71,23.98-19.07,42.15-19.07,18.12,0,32.15,6.665,42.08,20,7.496,10.04,11.24,21.68,11.24,34.91,0,15.48-5.03,28.37-15.08,38.68-10.06,10.3-23.13,15.15-39.21,14.53m-20.19,111.5c4.815,9.735,11.84,14.6,21.08,14.6,5.015,0,9.45-1.409,13.3-4.228,3.848-2.818,7.013-7.649,9.497-14.49,2.482-6.844,3.724-17.16,3.724-30.94,0-11.58-1.215-20.98-3.651-28.17-2.431-7.201-5.833-12.44-10.2-15.72-3.425-2.563-7.697-3.843-12.81-3.843-7.599,0-13.51,2.973-17.73,8.918-6.056,8.505-9.085,21.65-9.085,39.43,0,14.96,1.96,26.44,5.884,34.43m21.16-88.59c18.12,0,32.15,6.666,42.08,20,7.496,10.04,11.24,21.68,11.24,34.91,0,15.48-5.03,28.37-15.08,38.68-10.06,10.31-23.13,15.15-39.21,14.53-14.89,0.614-27.45-4.241-37.65-14.57-10.21-10.32-15.31-23.24-15.31-38.71,0-13.79,3.92-25.71,11.77-35.76,9.927-12.71,23.98-19.07,42.15-19.07m-62.45,36.2-4.88,0c-2.545-9.152-6.735-15.96-12.56-20.42-5.828-4.463-13.58-6.692-23.25-6.692h-5.514c-2.953,0-5.086,0.405-6.414,1.215-1.322,0.813-2.227,1.853-2.711,3.122-0.482,1.269-0.726,4.742-0.726,10.42v29.07c4.967,0,10.79-0.646,13.4-1.947,2.609-1.292,4.901-3.822,6.868-7.583,1.974-3.761,3.267-7.913,3.882-13.81h4.193v53.5h-4.193c-0.822-8.035-2.715-13.43-5.686-17.55-2.964-4.119-7.755-6.177-14.36-6.177h-4.109v35.88c-0.034,6.238,5.53,5.514,5.53,5.514h6.491c7.859,0,13.21-0.458,16.07-1.374,4.898-1.521,8.684-3.91,11.36-7.157,2.679-3.252,4.756-8.609,6.236-16.07h3.514v30.58h-87.38v-4.213h2.755c3.359,0,6.006-0.711,7.941-2.128,1.374-0.964,2.315-2.338,2.822-4.113,0.257-1.062,0.386-3.929,0.386-8.597v-64.65c0-5.173-0.279-8.371-0.841-9.588-0.711-1.723-1.733-2.944-3.051-3.652-1.835-1.068-4.252-1.598-7.257-1.598h-2.755v-4.864h88.89l5.344,32.87zm-167.8-27.94-2.359,0c-3.385,0-6.391,1.039-9.018,3.117-2.624,2.079-3.938,6.082-3.938,12.01v62.44l67.64-84.32,4.385-0.005v86c0,4.889,0.406,6.308,1.213,8.32s1.935,3.464,3.376,4.356c1.442,0.891,4.271,1.616,8.478,2.177v4.376h-33.55v-4.376c5.532,0.101,9.477-1.324,11.83-4.279,1.715-2.19,2.572-4.36,2.572-10.57v-45.04l-52.65,64.27h-32.04v-3.472c3.045-0.101,3.153-1.122,4.775-1.982l8.582-8.637-0.012-69.25c0-5.475-1.081-9.352-3.241-11.63-2.162-2.282-5.994-3.447-11.49-3.498v-4.186h35.46v4.186z"/>
   </g>
  </g>
 </g>
</svg>
