<?xml version="1.0" encoding="UTF-8" standalone="no"?>
<!-- Created with Inkscape (http://www.inkscape.org/) -->
<svg
   xmlns:svg="http://www.w3.org/2000/svg"
   xmlns="http://www.w3.org/2000/svg"
   version="1.0"
   width="600"
   height="75"
   id="svg2956">
  <defs
     id="defs2958" />
  <g
     transform="translate(-80.058936,-316.39554)"
     id="layer1">
    <g
       id="g3186">
      <path
         d="M 395.77637,355.97892 L 368.95934,355.97892 C 365.07954,355.97892 361.91949,359.16476 361.91949,363.03348 L 361.91949,382.17032 C 361.91949,386.02789 365.07954,389.20629 368.95934,389.20629 L 395.77637,389.20629 C 399.65975,389.20629 402.82339,386.02789 402.82339,382.17032 L 402.82339,363.03348 C 402.82339,359.16476 399.65975,355.97892 395.77637,355.97892 M 396.91706,382.11857 C 396.91706,382.8791 396.29677,383.49371 395.53644,383.49371 L 369.20286,383.49371 C 368.43884,383.49371 367.81865,382.8791 367.81865,382.11857 L 367.81865,363.07033 C 367.81865,362.31363 368.43884,361.69709 369.20286,361.69709 L 395.53644,361.69709 C 396.29677,361.69709 396.91706,362.31363 396.91706,363.07033 L 396.91706,382.11857 z"
         id="path13"
         style="fill:#939598;fill-opacity:1;fill-rule:nonzero;stroke:none" />
      <path
         d="M 88.21271,327.35676 C 88.21271,327.35676 88.21271,351.60637 88.21271,351.97736 C 87.884173,351.97736 82.394823,351.97736 82.058936,351.97736 C 82.058936,351.60637 82.058936,319.10991 82.058936,318.74631 C 82.405951,318.74631 87.160628,318.74631 87.315658,318.74631 L 112.23344,342.94606 C 112.23344,342.94606 112.23344,319.10991 112.23344,318.74631 C 112.56937,318.74631 117.15793,318.74631 117.15793,318.74631 C 117.15793,318.74631 118.0365,318.74631 118.30231,318.74631 C 118.30231,319.10991 118.30231,351.60637 118.30231,351.97736 C 117.97005,351.97736 113.66194,351.97736 113.49595,351.97736 L 88.21271,327.35676 z"
         id="path15"
         style="fill:#000000;fill-opacity:1;fill-rule:nonzero;stroke:none" />
      <path
         d="M 149.89065,327.35676 C 149.89065,327.35676 149.89065,351.60637 149.89065,351.97736 C 149.56209,351.97736 144.07649,351.97736 143.73689,351.97736 C 143.73689,351.60637 143.73689,319.10991 143.73689,318.74631 C 144.0802,318.74631 148.83117,318.74631 148.98621,318.74631 L 173.90386,342.94606 C 173.90386,342.94606 173.90386,319.10991 173.90386,318.74631 C 174.23991,318.74631 178.83218,318.74631 178.83218,318.74631 C 178.83218,318.74631 179.71442,318.74631 179.98023,318.74631 C 179.98023,319.10991 179.98023,351.60637 179.98023,351.97736 C 179.64061,351.97736 175.33998,351.97736 175.17756,351.97736 L 149.89065,327.35676 z"
         id="path17"
         style="fill:#000000;fill-opacity:1;fill-rule:nonzero;stroke:none" />
      <path
         d="M 277.71694,327.35676 C 277.71694,327.35676 277.71694,351.60637 277.71694,351.97736 C 277.381,351.97736 271.89909,351.97736 271.56686,351.97736 C 271.56686,351.60637 271.56686,319.10991 271.56686,318.74631 C 271.90648,318.74631 276.66486,318.74631 276.81619,318.74631 L 301.72935,342.94606 C 301.72935,342.94606 301.72935,319.10991 301.72935,318.74631 C 302.06528,318.74631 306.66123,318.74631 306.66123,318.74631 C 306.66123,318.74631 307.5398,318.74631 307.80559,318.74631 C 307.80559,319.10991 307.80559,351.60637 307.80559,351.97736 C 307.46966,351.97736 303.16167,351.97736 303.01031,351.97736 L 277.71694,327.35676 z"
         id="path19"
         style="fill:#000000;fill-opacity:1;fill-rule:nonzero;stroke:none" />
      <path
         d="M 132.95026,318.74631 C 132.95026,318.74631 133.82515,318.74631 134.08712,318.74631 C 134.08712,319.10991 134.08712,351.60637 134.08712,351.97736 C 133.76978,351.97736 128.2694,351.97736 127.93716,351.97736 C 127.93716,351.60637 127.93716,319.10991 127.93716,318.74631 C 128.27311,318.74631 132.95026,318.74631 132.95026,318.74631 z"
         id="path21"
         style="fill:#000000;fill-opacity:1;fill-rule:nonzero;stroke:none" />
      <path
         d="M 221.87161,318.74631 C 221.87161,318.74631 222.73174,318.74631 223.0049,318.74631 C 223.0049,319.08585 223.0049,324.13777 223.0049,324.46446 C 222.64313,324.46446 208.17236,324.46446 208.17236,324.46446 C 208.17236,324.46446 208.17236,351.60637 208.17236,351.97736 C 207.84013,351.97736 202.1146,351.97736 201.78222,351.97736 C 201.78222,351.60637 201.78222,324.46446 201.78222,324.46446 C 201.78222,324.46446 187.31158,324.46446 186.9535,324.46446 C 186.9535,324.13777 186.9535,319.08585 186.9535,318.74631 C 187.31896,318.74631 221.87161,318.74631 221.87161,318.74631 z"
         id="path23"
         style="fill:#000000;fill-opacity:1;fill-rule:nonzero;stroke:none" />
      <path
         d="M 261.28228,318.74631 C 261.28228,318.74631 262.16823,318.74631 262.43772,318.74631 C 262.43772,319.08585 262.43772,324.13777 262.43772,324.46446 C 262.08333,324.46446 236.0692,324.46446 236.0692,324.46446 L 236.0692,331.92133 C 236.0692,331.92133 256.11415,331.92133 256.46842,331.92133 C 256.46842,332.25728 256.46842,337.30358 256.46842,337.63212 C 256.11415,337.63212 236.0692,337.63212 236.0692,337.63212 L 236.0692,346.25366 C 236.0692,346.25366 262.08333,346.25366 262.43772,346.25366 C 262.43772,346.58404 262.43772,351.63774 262.43772,351.97736 C 262.08333,351.97736 230.32888,351.97736 229.97818,351.97736 C 229.97818,351.60637 229.97818,319.10991 229.97818,318.74631 C 230.32888,318.74631 261.28228,318.74631 261.28228,318.74631 z"
         id="path25"
         style="fill:#000000;fill-opacity:1;fill-rule:nonzero;stroke:none" />
      <path
         d="M 352.10384,323.60433 C 349.70054,320.43148 346.13835,318.74631 341.83404,318.74631 C 341.83404,318.74631 317.54382,318.74631 317.18194,318.74631 C 317.18194,319.10991 317.18194,351.60637 317.18194,351.97736 C 317.54382,351.97736 341.83404,351.97736 341.83404,351.97736 C 346.13835,351.97736 349.70054,350.29403 352.10384,347.12664 C 354.35568,344.17349 355.55173,340.10907 355.55173,335.35808 C 355.55173,330.62006 354.35568,326.54647 352.10384,323.60433 M 342.0111,346.25366 L 323.11801,346.25366 L 323.11801,324.46446 L 323.29152,324.46446 L 342.0111,324.46446 C 347.92136,324.46446 350.02183,330.33952 350.02183,335.35808 C 350.02183,340.38229 347.92136,346.25366 342.0111,346.25366 z"
         id="path27"
         style="fill:#000000;fill-opacity:1;fill-rule:nonzero;stroke:none" />
      <path
         d="M 395.77637,318.74631 L 368.95934,318.74631 C 365.07954,318.74631 361.91949,321.92838 361.91949,325.7971 L 361.91949,344.93764 C 361.91949,348.80628 365.07954,351.97736 368.95934,351.97736 L 395.77637,351.97736 C 399.65975,351.97736 402.82339,348.80628 402.82339,344.93764 L 402.82339,325.7971 C 402.82339,321.92838 399.65975,318.74631 395.77637,318.74631 M 396.91706,344.88964 C 396.91706,345.63534 396.29677,346.25366 395.53644,346.25366 L 369.20286,346.25366 C 368.43884,346.25366 367.81865,345.63534 367.81865,344.88964 L 367.81865,325.8377 C 367.81865,325.08643 368.43884,324.46815 369.20286,324.46815 L 395.53644,324.46815 C 396.29677,324.46815 396.91706,325.08643 396.91706,325.8377 L 396.91706,344.88964 z"
         id="path29"
         style="fill:#000000;fill-opacity:1;fill-rule:nonzero;stroke:none" />
      <path
         d="M 507.45597,375.18591 C 513.83492,377.70359 527.30159,379.74868 537.81503,379.74868 C 549.32138,379.74868 554.08726,375.79505 554.08726,370.84098 C 554.08726,366.39645 549.661,363.7791 536.9548,359.1223 C 519.97022,352.84851 507.50753,347.90556 507.50753,336.74617 C 507.50753,325.19907 522.50249,318.39554 545.36049,318.39554 C 557.631,318.39554 561.84672,319.17452 569.63951,320.59944 L 569.6987,331.56874 C 562.04236,330.11058 555.25746,327.60958 544.71818,327.60958 C 533.4257,327.60958 528.61577,331.19041 528.61577,334.88925 C 528.61577,340.25679 536.02465,342.81495 549.02987,347.45157 C 567.12939,353.93388 577.19974,358.9285 577.19974,369.85165 C 577.19974,381.09234 564.58963,389.20629 536.14646,389.20629 C 524.4665,389.20629 516.4116,388.43845 507.45597,386.99877 L 507.45597,375.18591 z"
         id="path31"
         style="fill:#000000;fill-opacity:1;fill-rule:nonzero;stroke:none" />
      <path
         d="M 483.25054,384.10098 C 476.55412,387.13173 463.88863,389.05495 452.81777,389.05495 L 410.50914,389.05495 L 410.50914,318.55065 L 452.81777,318.55065 C 463.88863,318.55065 476.55412,320.49971 483.26173,323.52675 C 499.556,330.88212 504.8719,342.6526 504.8719,353.81199 C 504.8719,364.96961 499.6041,376.72718 483.25054,384.10098 M 446.91504,328.08955 L 433.37809,328.08955 L 433.37809,379.32601 L 446.91504,379.32601 C 467.6946,379.32601 480.80318,370.43861 480.80318,353.81199 C 480.80318,337.18539 467.6946,328.08955 446.91504,328.08955 z"
         id="path33"
         style="fill:#000000;fill-opacity:1;fill-rule:nonzero;stroke:none" />
      <path
         d="M 624.13386,386.75704 L 624.13386,352.56248 L 627.92135,352.56248 L 627.92135,386.75704 L 624.13386,386.75704 M 625.95746,343.557 C 627.43776,343.557 628.57095,344.69031 628.57095,346.16685 C 628.57095,347.64715 627.43776,348.77491 625.95746,348.77491 C 624.48086,348.77491 623.34744,347.64715 623.34744,346.16685 C 623.34744,344.69031 624.48086,343.557 625.95746,343.557 z"
         id="path35"
         style="fill:#000000;fill-opacity:1;fill-rule:nonzero;stroke:none" />
      <path
         d="M 638.2447,352.88364 L 649.71783,352.88364 L 649.71783,356.52717 L 638.2447,356.52717 L 638.2447,377.09078 C 638.27608,380.82291 640.96155,382.99162 644.28403,382.99353 L 649.71783,382.99353 L 649.71783,386.75704 L 644.8562,386.75704 C 638.42557,386.75704 634.45719,383.04335 634.45719,377.0372 L 634.45719,343.59208 L 638.2447,343.59208 L 638.2447,352.88364"
         id="path37"
         style="fill:#000000;fill-opacity:1;fill-rule:nonzero;stroke:none" />
      <path
         d="M 620.03258,382.96767 L 612.68645,382.96767 L 612.68645,343.5994 L 608.90253,343.5994 L 608.90253,386.75704 L 620.03258,386.75149 L 620.03258,382.96767"
         id="path39"
         style="fill:#000000;fill-opacity:1;fill-rule:nonzero;stroke:none" />
      <path
         d="M 664.40649,383.01931 C 658.78984,382.94552 653.62912,378.76668 653.06789,371.54422 L 678.05762,371.54981 C 678.06871,370.37769 678.00975,369.1854 677.88608,368.07604 C 676.91521,359.39547 671.68802,352.88364 663.76417,352.88364 C 654.59075,352.88364 649.24175,360.46411 649.24175,369.81849 C 649.24175,379.1728 655.23308,386.75704 664.40649,386.75704 C 670.50847,386.75704 674.52681,383.59334 677.3342,378.94387 L 674.51756,376.81022 C 672.81394,379.76159 669.72966,383.08945 664.40649,383.01931 M 663.75678,356.47918 C 669.86616,356.44043 673.84942,361.95925 674.14646,367.95237 L 653.11783,367.95058 C 653.7822,361.04927 657.98325,356.51611 663.75678,356.47918 z"
         id="path41"
         style="fill:#000000;fill-opacity:1;fill-rule:nonzero;stroke:none" />
      <path
         d="M 584.75641,386.76435 L 582.67993,386.76435 L 582.67993,378.62092 L 579.70824,378.62092 L 579.70824,376.88031 L 587.73363,376.88031 L 587.73363,378.62092 L 584.75641,378.62092 L 584.75641,386.76435 z"
         id="path43"
         style="fill:#000000;fill-opacity:1;fill-rule:nonzero;stroke:none" />
      <path
         d="M 599.277,386.76435 L 597.3611,386.76435 L 597.3611,378.49351 L 597.33342,378.49351 L 595.4857,386.76435 L 593.46655,386.76435 L 591.66878,378.49351 L 591.63556,378.49351 L 591.63556,386.76435 L 589.71412,386.76435 L 589.71412,376.88031 L 592.7061,376.88031 L 594.49636,384.65288 L 594.5222,384.65288 L 596.28676,376.88031 L 599.277,376.88031 L 599.277,386.76435 z"
         id="path45"
         style="fill:#000000;fill-opacity:1;fill-rule:nonzero;stroke:none" />
    </g>
  </g>
</svg>
