<?xml version="1.0" standalone="no"?>
<!DOCTYPE svg PUBLIC "-//W3C//DTD SVG 20010904//EN"
 "http://www.w3.org/TR/2001/REC-SVG-20010904/DTD/svg10.dtd">
<svg version="1.0" xmlns="http://www.w3.org/2000/svg"
 width="893.000000pt" height="400.000000pt" viewBox="0 0 893.000000 400.000000"
 preserveAspectRatio="xMidYMid meet">

<g transform="translate(0.000000,400.000000) scale(0.100000,-0.100000)"
fill="#000000" stroke="none">
<path d="M0 2000 l0 -2000 4465 0 4465 0 0 2000 0 2000 -4465 0 -4465 0 0
-2000z m2473 1491 c7 -7 22 -87 107 -586 28 -165 58 -338 66 -385 8 -47 26
-150 39 -230 13 -80 42 -253 65 -385 22 -132 56 -330 75 -440 46 -268 78 -454
115 -670 45 -256 52 -306 47 -311 -6 -6 -977 -5 -987 1 -4 3 -11 22 -15 42
-12 67 -125 724 -145 848 -11 66 -24 143 -30 170 -5 28 -27 158 -49 290 -57
341 -47 307 -90 303 l-36 -3 -12 -70 c-19 -113 -100 -590 -122 -715 -21 -119
-62 -359 -105 -610 -32 -185 -36 -210 -42 -237 -4 -23 -6 -23 -183 -23 -207 0
-178 -16 -251 140 -24 52 -79 169 -122 259 -43 90 -78 165 -78 168 0 2 -20 45
-44 96 -24 51 -69 148 -100 215 l-58 124 16 81 c9 45 47 269 86 497 39 228 77
451 85 495 17 92 85 488 90 525 2 14 8 52 14 85 6 33 20 114 31 179 28 170 17
155 118 158 177 6 1507 -3 1515 -11z m1603 1 c6 -4 16 -38 22 -77 7 -38 32
-187 57 -330 25 -143 63 -368 85 -500 22 -132 49 -289 60 -350 11 -60 26 -153
35 -205 33 -199 33 -200 66 -200 38 0 42 10 73 195 14 83 42 245 62 360 20
116 44 262 54 325 15 90 93 551 127 748 l6 32 493 0 494 0 0 -24 c0 -28 -145
-896 -280 -1676 -17 -96 -64 -375 -105 -620 -93 -554 -116 -684 -120 -688 -4
-5 -1598 -2 -1602 2 -2 2 -17 84 -34 182 -16 99 -36 215 -44 259 -28 163 -86
500 -145 850 -33 198 -68 398 -76 445 -8 47 -26 148 -39 225 -13 77 -31 181
-40 230 -17 96 -70 405 -111 645 -13 80 -24 153 -24 163 0 16 30 17 488 17
268 0 492 -4 498 -8z m3973 -17 c5 -5 24 -91 41 -190 17 -99 42 -241 55 -315
53 -301 65 -373 65 -391 0 -18 -15 -19 -455 -19 -357 0 -455 -3 -455 -12 0 -7
-3 -23 -6 -34 -5 -18 19 -43 143 -149 81 -69 191 -163 243 -208 52 -45 133
-113 180 -150 47 -38 90 -74 95 -80 10 -12 102 -91 338 -292 116 -98 128 -111
122 -134 -4 -14 -35 -87 -70 -161 -35 -74 -117 -252 -183 -395 -196 -425 -212
-459 -225 -468 -11 -7 -2107 1 -2116 9 -2 2 13 102 33 221 21 120 51 301 67
403 17 102 36 210 42 240 l13 55 658 0 659 0 9 24 c5 14 7 30 6 37 -3 11 -94
94 -277 249 -52 44 -165 141 -251 215 -86 74 -181 156 -211 181 -458 390 -420
347 -399 460 13 67 64 364 90 524 40 249 60 370 65 383 4 11 162 13 859 10
553 -2 858 -7 865 -13z"/>
</g>
</svg>
