<?xml version="1.0" standalone="yes"?>
<svg xmlns="http://www.w3.org/2000/svg" width="757" height="270">
<path style="fill:#fffeff; stroke:none;" d="M0 0L0 211L1 211C1.95875 164.796 48.2266 134.95 90 132.09C101.329 131.314 111.954 134.376 123 136L118 164L113 162L112 171C90.1102 164.834 61.7891 164.26 44.3287 181.616C32.7277 193.147 31.7147 218.141 46.0147 227.895C55.2705 234.208 64.5251 233.029 75 233L75 230L53 230L56 205L62 205L65.1481 197.603L80 197L114 197L110 223L111 223C118.199 201.719 127.257 180.857 135.6 160C138.911 151.722 142.543 139.203 150.418 134.028C157.797 129.179 178.203 133 187 133L198 227L199 227L222.67 155L233 133L264 133L273 192L274 192C277.524 179.114 283.44 166.408 288.4 154C290.374 149.062 291.495 142.733 297 141C303.302 119.736 326.651 103.74 339 86C322.861 93.5352 304.96 107.216 287 109.659C277.337 110.973 269.468 99.5567 269 91C254.323 98.7307 240.126 106.888 225 113.769C219.098 116.454 210.596 120.797 204.004 118.258C189.013 112.484 190.757 97.0573 198.669 87C213.617 67.9982 235.484 48.8193 256 36L266 53C248.099 61.9172 224.488 81.6909 213 98C236.523 89.9928 259.67 76.418 280 62.2793C289.123 55.9347 300.432 43.4824 310.816 39.9707C314.934 38.5779 322.423 50.3119 321.546 53.9105C320.526 58.102 313.941 63.0206 310.996 66C303.408 73.6775 295.381 81.5552 290 91C311.953 81.8602 331.746 67.0935 352 54.7971C359.971 49.9574 368.907 42.7535 378 40.3056C383.599 38.7982 392.399 48.401 391.498 54C390.538 59.9692 382.366 65.2215 379 70C396.277 61.9334 421.91 44.3341 442 46.9985C450.937 48.1837 457.967 60.8933 454.467 69C448.895 81.9054 432.177 92.7293 421 100.562C408.226 109.513 392.012 117.567 376 115.826C369.779 115.15 361.759 107.732 356 109.083C347.108 111.168 334.074 125.797 329 133C336.467 135.267 334.935 151.22 335 158C335.138 172.301 336.934 186.735 337.91 201C338.626 211.445 337.571 222.798 340 233L341 233L353 141C358.411 140.578 358.941 138.017 359 133L433 133L429 162L423 162C421.79 177.86 393.293 163.127 384.742 170.028C382.036 172.211 382.252 178.804 382 182L420 182C419.061 193.892 417.974 202.912 411.008 211.583C409.381 213.609 409.553 216.221 406.852 217.397C399.232 220.711 385.29 218 377 218L375 232L419 232L416 260L410 260L409 268L336 268L337 260C332.792 260.902 334.08 264.578 335 268L308.434 266.972L305.715 252L303 204L302 204L285.811 246C283.106 252.983 279.411 262.809 272.722 266.972C268.826 269.397 251.811 269.679 249.013 265.682C246.331 261.85 246.661 254.519 245.92 250C243.774 236.923 240.568 223.229 240 210L233.975 224L223 260C217.838 260.411 216.73 263.166 216 268L168 268L164.715 241L162.258 231.028L140 230C138.13 238.078 133.538 257.467 125 260L123 268L93 268L95 262L67 269L67 270L757 270L757 110L756 110L756 113L733 114L734 109C700.294 101.487 665.034 105.227 631 109.05C619.242 110.371 601.035 117.948 592.761 106.996C581.276 91.7938 598.502 81.5511 599.796 66C600.264 60.3638 595.88 56.3584 593 52C581.076 56.6196 570.139 69.6884 560 77.5756C537.043 95.4343 510.878 114.113 482 120.575C463.119 124.8 432.184 116.617 444.992 91C456.661 67.6633 486.98 48.6472 511 40.3441C524.426 35.7032 543.367 37.3861 544.562 55.9992C545.03 63.2825 534.074 69.1629 529 72.848C516.614 81.8434 502.276 90.2284 487 92.9159C480.564 94.0481 472.796 91.2428 467.004 92.777C461.513 94.2316 458.552 100.922 458 106C492.935 106 524.807 85.7663 552 65.3735C561.164 58.5008 572.273 51.5166 579.808 42.8302C586.439 35.1853 567.753 23.2445 581.044 16.179C590.723 11.0339 601.533 24.2015 601.866 33C602.036 37.4805 598.846 41.733 601.137 46C605.587 54.2918 616.121 59.6908 616.88 70C617.483 78.183 611.391 85.1741 610 93C643.853 84.6601 686.525 82.9935 721 87.5756C733.577 89.2473 750.12 88.5539 756 102L757 102L757 0L0 0z"/>
<path style="fill:#b38fbe; stroke:none;" d="M194 2L194 3L205 3L194 2M183 3L183 4L187 4L183 3z"/>
<path style="fill:#fe0204; stroke:none;" d="M177 83C169.977 91.8876 152.619 93.3084 142 95.0802C111.623 100.149 80.7749 105.251 50 106.965C43.7244 107.314 36.3187 109.321 30.0895 107.991C23.4013 106.562 14.2272 99.5733 8.00926 107.419C4.2082 112.215 5.66481 122.719 12.044 124.566C22.5189 127.6 38.1539 122.639 49 122.035C75.708 120.548 102.528 117.171 129 113.272C144.633 110.969 161.517 109.066 175.996 102.33C187.298 97.0724 187.717 80.7326 179.786 72.0934C171.208 62.7486 154.708 60.1949 143 56.7207C129.765 52.7933 115.651 48.0085 102 46C105.93 38.4352 118.393 35.1317 126 32.3187C148.834 23.8747 171.975 19.579 196 16.4244C203.982 15.3763 213.322 16.6504 221 19.0401C223.114 19.6981 227.874 20.9443 227.369 24.0031C225.893 32.9387 208.009 29.4974 204.742 37.1088C202.976 41.2227 203.409 49.3163 209.044 49.7585C228.21 51.2625 245.994 27.486 233.362 11.0548C227.049 2.84277 211.379 3 202 3C173.521 3 143.445 9.18945 117 19.8002C101.316 26.093 83.6693 36.5709 98.5324 54.9568C104.331 62.1301 114.669 62.8996 123 65.2909C141.302 70.5442 159.416 75.6887 177 83z"/>
<path style="fill:#b38fbe; stroke:none;" d="M213.667 3.33334L214.333 3.66666L213.667 3.33334M175 4L175 5L178 5L175 4M219.667 4.33334L220.333 4.66666L219.667 4.33334M169 5L169 6L172 6L169 5M223.667 5.33334L224.333 5.66666L223.667 5.33334M164.667 6.33334L165.333 6.66666L164.667 6.33334M227 6L228 7L227 6M160 7L161 8L160 7M155 8L156 9L155 8M231 8L232 9L231 8M151 9L152 10L151 9M232 9L233 10L232 9M146.667 10.3333L147.333 10.6667L146.667 10.3333M142 11L143 12L142 11M138.667 12.3333L139.333 12.6667L138.667 12.3333M234 12L235 13L234 12M135 13L136 14L135 13M132 14L133 15L132 14z"/>
<path style="fill:#9a168f; stroke:none;" d="M235 14L236 15L235 14M236.333 15.6667L236.667 16.3333L236.333 15.6667z"/>
<path style="fill:#b38fbe; stroke:none;" d="M581 15L582 16L581 15z"/>
<path style="fill:#fe0204; stroke:none;" d="M583 41C572.473 45.88 563.343 56.5173 554 63.5247C534.459 78.1802 513.218 92.5186 490 100.655C481.801 103.528 471.843 107.325 463 106.61C458.24 106.225 452.986 103.504 455.108 97.9992C460.58 83.8028 474.101 89.9831 486 87.5502C500.173 84.6522 513.232 77.1039 525 68.9745C532.591 63.731 544.472 56.9252 539.991 46.0039C534.819 33.3996 518.716 37.7129 509 41.0039C486.973 48.4652 463.859 64.5992 449.681 83C443.165 91.4563 437.891 104.932 447.468 113.362C455.425 120.365 471.628 117.563 481 115.346C510.486 108.371 537.671 88.4946 561 69.9969C567.42 64.9064 573.727 59.6798 580 54.4097C582.068 52.672 585.016 49.0399 587.961 49.0548C591.168 49.071 593.973 53.8137 595.738 56C606.526 69.3585 590.675 80.2071 588.329 94C587.041 101.574 591.816 109.239 600 108.228C633.27 104.116 665.393 99.946 699 100C707.41 100.014 729.196 98.4606 730 109C735.405 108.955 745.898 109.751 750.682 107.397C754.719 105.41 753.492 96.4501 750.566 94.0054C742.257 87.0606 721.339 87.0166 711 87C676.711 86.9449 637.214 84.0908 604 94C607.402 83.9436 617.202 70.7953 612.347 60C608.963 52.474 599.986 47.9114 597.324 40C594.648 32.0466 601.806 25.5025 593.891 18.2284C587.932 12.7523 576.639 14.7187 576.363 24C576.174 30.3475 580.875 35.3862 583 41z"/>
<path style="fill:#9a168f; stroke:none;" d="M102 46C113.614 47.5537 127.791 36.7166 139 33.4244C169.077 24.59 198.055 17.9057 229 25C226.174 16.0252 206.931 15.7048 199 16.0394C174.005 17.0937 148.362 23.6796 125 32.3187C118.027 34.8972 104.414 38.2791 102 46z"/>
<path style="fill:#b38fbe; stroke:none;" d="M579 16L580 17L579 16z"/>
<path style="fill:#9a168f; stroke:none;" d="M237 17C237.786 35.3077 226.989 47.1559 208 50C209.495 58.9593 219.94 52.8116 225 50.2438C237.605 43.8474 246.992 30.4109 237 17z"/>
<path style="fill:#b38fbe; stroke:none;" d="M578 17L579 18L578 17M593 17L594 18L593 17M120 18L121 19L120 18M238 18L239 19L238 18M577 18L578 19L577 18M594 18L595 19L594 18M117 19L118 20L117 19M595 19L596 20L595 19M115 20L116 21L115 20M576.333 20.6667L576.667 21.3333L576.333 20.6667M195 21L195 22L199 22L195 21M210 21L210 22L214 22L210 21M239 21L240 22L239 21M110 22L111 23L110 22M187.667 22.3333L188.333 22.6667L187.667 22.3333M218.667 22.3333L219.333 22.6667L218.667 22.3333M597 22L598 23L597 22M108 23L109 24L108 23M180.667 23.3333L181.333 23.6667L180.667 23.3333M223 23L224 24L223 23M106 24L107 25L106 24M174.667 24.3333L175.333 24.6667L174.667 24.3333M240.333 24.6667L240.667 25.3333L240.333 24.6667z"/>
<path style="fill:#9a168f; stroke:none;" d="M598 24L598 43L599 43C602.191 36.6422 603.306 29.4912 598 24z"/>
<path style="fill:#b38fbe; stroke:none;" d="M104 25L105 26L104 25M169 25L170 26L169 25M102 26L103 27L102 26M164.667 26.3333L165.333 26.6667L164.667 26.3333M576.333 26.6667L576.667 27.3333L576.333 26.6667M600 26L601 27L600 26M100 27L101 28L100 27M160 27L161 28L160 27M156 28L157 29L156 28M97 29L98 30L97 29M152 29L153 30L152 29M220 29L221 30L220 29M601 29L602 30L601 29M149 30L150 31L149 30M218 30L219 31L218 30M577 30L578 31L577 30M145 31L146 32L145 31M215 31L216 32L215 31M94 32L95 33L94 32M142 32L143 33L142 32M211 32L212 33L211 32M578 32L579 33L578 32M138 33L139 34L138 33M207 33L208 34L207 33M135 34L136 35L135 34M132.667 35.3333L133.333 35.6667L132.667 35.3333M240.333 35.6667L240.667 36.3333L240.333 35.6667M580 35L581 36L580 35M130 36L131 37L130 36M204 36L205 37L204 36M254.667 36.3333L255.333 36.6667L254.667 36.3333M601.333 36.6667L601.667 37.3333L601.333 36.6667M127 37L128 38L127 37z"/>
<path style="fill:#fe0204; stroke:none;" d="M274 81C268.119 94.0173 270.611 109.61 289 103.64C310.81 96.5598 330.84 83.6184 351 73C334.445 89.5656 318.455 108.073 304.64 127C301.547 131.238 291.698 149.489 305.985 147.118C310.524 146.365 314.926 139.089 318.001 136C327.471 126.484 339.237 109.999 352 104.931C357.243 102.848 368.42 110.822 375 110.985C392.52 111.421 408.157 103.306 422 93.1157C431.46 86.1515 446.447 76.2239 450.991 65C454.444 56.4691 449.653 46.9195 440 47.0548C412.508 47.4401 385.17 67.6654 362 80C366.458 75.4479 370.547 70.5736 374.986 66C378.851 62.0181 387.194 55.3876 388.669 50C392.041 37.6815 375.236 40.9636 370 43.8611C349.852 55.0105 330.767 68.0031 311 79.7994C303.117 84.5039 292.541 92.8414 283 92C292.95 75.8148 306.636 62.3638 320 49L320 48L313 38C278.634 57.77 246.274 93.9045 205 100C207.961 93.6502 214.081 88.8958 219 84.0008C232.035 71.0284 247.382 57.7589 263 48C261.467 44.9182 258.154 37.4765 253.907 37.9066C248.078 38.4968 240.346 47.2985 236 50.9198C221.179 63.268 200.296 77.6626 192.533 96C183.22 117.999 213.904 112.95 224 108.22C231.108 104.89 238.129 101.67 245 97.8611C254.77 92.4451 264.932 87.5878 274 81z"/>
<path style="fill:#b38fbe; stroke:none;" d="M521 37L521 38L524 38L521 37M528.667 37.3333L529.333 37.6667L528.667 37.3333M125 38L126 39L125 38M239 38L240 39L239 38M516.667 38.3333L517.333 38.6667L516.667 38.3333M532 38L533 39L532 38M582 38L583 39L582 38M122 39L123 40L122 39M250 39L251 40L250 39M257 39L258 40L257 39M310 39L311 40L310 39M313 39L314 40L313 39M379 39L380 40L379 39M382 39L383 40L382 39M513 39L514 40L513 39M534 39L535 40L534 39M120 40L121 41L120 40M249 40L250 41L249 40M314 40L315 41L314 40M383 40L384 41L383 40M510 40L511 41L510 40M582 40L583 41L582 40M600 40L601 41L600 40M237 41L238 42L237 41M374 41L375 42L374 41M384 41L385 42L384 41M507 41L508 42L507 41M93 42L94 43L93 42M115 42L116 43L115 42M236 42L237 43L236 42M259 42L260 43L259 42M306 42L307 43L306 42M372 42L373 43L372 42M385 42L386 43L385 42M599 42L600 43L599 42M113 43L114 44L113 43M235 43L236 44L235 43M245 43L246 44L245 43M305 43L306 44L305 43M316 43L317 44L316 43M502 43L503 44L502 43M111 44L112 45L111 44M500 44L501 45L500 44M539 44L540 45L539 44M109 45L110 46L109 45M367 45L368 46L367 45M387 45L388 46L387 45M498 45L499 46L498 45M576 45L577 46L576 45M600 45L601 46L600 45M107 46L108 47L107 46M231 46L232 47L231 46M262 46L263 47L262 46M301 46L302 47L301 46M318 46L319 47L318 46M365 46L366 47L365 46M440.667 46.3333L441.333 46.6667L440.667 46.3333M496 46L497 47L496 46z"/>
<path style="fill:#9a168f; stroke:none;" d="M540 46L541 47L540 46z"/>
<path style="fill:#b38fbe; stroke:none;" d="M575 46L576 47L575 46M601 46L602 47L601 46M94 47L95 48L94 47M108 47L109 48L108 47M204 47L205 48L204 47M240 47L241 48L240 47M300 47L301 48L300 47M435 47L436 48L435 47M445 47L446 48L445 47M541 47L542 48L541 47z"/>
<path style="fill:#9a168f; stroke:none;" d="M448 114C454.676 127.573 479.665 121.891 491 118.254C528.118 106.344 564.65 78.1243 592 51C587.554 45.8666 584.213 49.994 580 53.5725C572.143 60.2468 564.197 66.8615 556 73.1157C529.007 93.711 484.309 128.792 448 114z"/>
<path style="fill:#b38fbe; stroke:none;" d="M112 48L113 49L112 48z"/>
<path style="fill:#9a168f; stroke:none;" d="M205 100C214.707 99.1193 220.32 90.3112 227 84.0895C239.337 72.5986 253.613 63.375 266 52L266 51L264 48L248 58.4244L217 85L205 100z"/>
<path style="fill:#b38fbe; stroke:none;" d="M431 48L432 49L431 48z"/>
<path style="fill:#9a168f; stroke:none;" d="M471 77L471 78C479.25 80.4095 484.569 73.9829 491 69.6705C504.11 60.8798 518.334 57.8604 532 51C527.058 45.9538 519.913 49.001 514 51.0039C497.732 56.5144 484.512 66.817 471 77M541 48C540.894 56.9895 534.756 61.046 528 66.1049C514.12 76.4987 498.291 85.4221 481 88.2461C475.273 89.1814 468.297 86.2639 463.09 87.7739C456.536 89.6746 453.331 99.1756 455 105L457 105C459.106 101.046 462.097 94.1889 466.615 92.5417C472.843 90.2712 482.842 93.8053 490 92.1011C503.828 88.8086 516.487 82.0712 528 73.8588C535.766 68.3195 550.999 58.6708 541 48z"/>
<path style="fill:#b38fbe; stroke:none;" d="M116 49L117 50L116 49M205 49L206 50L205 49M226 49L227 50L226 49M264 49L265 50L264 49M297 49L298 50L297 49z"/>
<path style="fill:#9a168f; stroke:none;" d="M319 49C306.426 61.5739 290.171 75.3835 283 92C289.307 93.3065 291.622 88.482 295.201 84C302.565 74.7755 311.094 66.7657 318.937 58C322.121 54.4406 322.632 52.1456 319 49z"/>
<path style="fill:#b38fbe; stroke:none;" d="M320 49L321 50L320 49M360 49L361 50L360 49M390 49L391 50L390 49M427 49L428 50L427 49M448 49L449 50L448 49M120 50L121 51L120 50M207.333 50.6667L207.667 51.3333L207.333 50.6667M224 50L225 51L224 50M296 50L297 51L296 50M321 50L322 51L321 50M358 50L359 51L358 50z"/>
<path style="fill:#9a168f; stroke:none;" d="M362 80C371.075 76.6776 395.529 61.1582 391 50C380.193 55.0399 368.768 70.2772 362 80z"/>
<path style="fill:#b38fbe; stroke:none;" d="M424 50L425 51L424 50M449 50L450 51L449 50M489 50L490 51L489 50M570 50L571 51L570 50M123.667 51.3333L124.333 51.6667L123.667 51.3333M222 51L223 52L222 51M235 51L236 52L235 51M420.667 51.3333L421.333 51.6667L420.667 51.3333M487 51L488 52L487 51M569 51L570 52L569 51M591 51L592 52L591 51M605 51L606 52L605 51M127 52L128 53L127 52M220 52L221 53L220 52M234 52L235 53L234 52M265 52L266 53L265 52M293 52L294 53L293 52M355 52L356 53L355 52M392 52L393 53L392 52M418 52L419 53L418 52M568 52L569 53L568 52M590 52L591 53L590 52M606 52L607 53L606 52M97 53L98 54L97 53M130.667 53.3333L131.333 53.6667L130.667 53.3333M264 53L265 54L264 53M292 53L293 54L292 53M415 53L416 54L415 53M484 53L485 54L484 53M525 53L527 55L525 53z"/>
<path style="fill:#fffeff; stroke:none;" d="M526.667 53.3333L527.333 53.6667L526.667 53.3333z"/>
<path style="fill:#b38fbe; stroke:none;" d="M589 53L590 54L589 53M593 53L594 54L593 53M607 53L608 54L607 53M134 54L135 55L134 54M215 54L216 55L215 54M322 54L323 55L322 54M412 54L413 55L412 54M521 54L522 55L521 54z"/>
<path style="fill:#fffeff; stroke:none;" d="M479 78L479 79C495.055 74.8356 515.116 67.1778 526 54C508.689 55.5114 492.585 68.2418 479 78z"/>
<path style="fill:#b38fbe; stroke:none;" d="M544 54L544 60L545 60L544 54M594 54L595 55L594 54M608 54L609 55L608 54M138 55L139 56L138 55M289 55L290 56L289 55M321 55L322 56L321 55M350 55L351 56L350 55M409 55L410 56L409 55z"/>
<path style="fill:#9a168f; stroke:none;" d="M452 55C451.968 66.1239 445.629 71.5428 438 78.9853C423.644 92.9895 402.028 110.007 381 110.961C375.201 111.224 369.414 110.77 364 108.522C359.734 106.75 355.823 102.278 351 104.747C338.058 111.373 327.075 125.808 317.004 136C311.48 141.59 308.44 148.468 300 145C302.662 149.897 307.655 154.489 312.83 149.836C323.758 140.012 332.81 128.092 344 118.425C347.322 115.556 352.225 109.521 356.715 108.728C361.638 107.858 371.099 115.195 377 115.826C393.829 117.628 410.798 108.021 424 98.706C434.862 91.0423 465.714 70.6846 452 55z"/>
<path style="fill:#b38fbe; stroke:none;" d="M518 55L519 56L518 55M564 55L565 56L564 55z"/>
<path style="fill:#9a168f; stroke:none;" d="M595 55L596 56L595 55z"/>
<path style="fill:#b38fbe; stroke:none;" d="M609 55L610 56L609 55M229 56L230 57L229 56M260 56L261 57L260 56M320 56L321 57L320 56M453 56L454 57L453 56M515 56L516 57L515 56M563 56L564 57L563 56z"/>
<path style="fill:#9a168f; stroke:none;" d="M596 56L597 57L596 56z"/>
<path style="fill:#b38fbe; stroke:none;" d="M610 56L611 57L610 56z"/>
<path style="fill:#9a168f; stroke:none;" d="M100 57L101 58L100 57z"/>
<path style="fill:#b38fbe; stroke:none;" d="M145 57L146 58L145 57M228 57L229 58L228 57M286 57L287 58L286 57M347 57L348 58L347 57M404 57L405 58L404 57M513 57L514 58L513 57M522 57L523 58L522 57z"/>
<path style="fill:#9a168f; stroke:none;" d="M101 58C106.534 65.6713 114.455 66.5477 123 69C140.481 74.0165 159.121 82.3222 177 85C173.386 78.6334 163.545 77.1609 157 75.0008C138.518 68.9008 118.986 65.3769 101 58z"/>
<path style="fill:#b38fbe; stroke:none;" d="M148 58L149 59L148 58M345 58L346 59L345 58M402 58L403 59L402 58M510 58L511 59L510 58M583 58L584 59L583 58M597 58L598 59L597 58M101 59L102 60L101 59M152 59L153 60L152 59M256 59L257 60L256 59M283 59L284 60L283 59M388 59L389 60L388 59M475 59L476 60L475 59M508 59L509 60L508 59M519 59L520 60L519 59M559 59L560 60L559 59M582 59L583 60L582 59z"/>
<path style="fill:#9a168f; stroke:none;" d="M598 59L599 60L598 59z"/>
<path style="fill:#b38fbe; stroke:none;" d="M102 60L103 61L102 60M155 60L156 61L155 60M255 60L256 61L255 60M282 60L283 61L282 60M316 60L317 61L316 60M342 60L343 61L342 60M387 60L388 61L387 60M397 60L398 61L397 60z"/>
<path style="fill:#9a168f; stroke:none;" d="M365 94L365 95C372.306 98.8601 377.747 92.7595 384 89C394.472 82.7039 405.549 76.7479 417 72.4252C425.227 69.3194 434.288 68.0555 439 60C412.688 63.546 386.216 78.807 365 94z"/>
<path style="fill:#b38fbe; stroke:none;" d="M455.333 60.6667L455.667 61.3333L455.333 60.6667M506 60L507 61L506 60M518 60L519 61L518 60M581 60L582 61L581 60z"/>
<path style="fill:#9a168f; stroke:none;" d="M599 60L600 61L599 60z"/>
<path style="fill:#b38fbe; stroke:none;" d="M103 61L104 62L103 61M158 61L159 62L158 61M315 61L316 62L315 61M386 61L387 62L386 61M395 61L396 62L395 61M472 61L473 62L472 61M504 61L505 62L504 61M543 61L544 62L543 61z"/>
<path style="fill:#9a168f; stroke:none;" d="M613 61C614.441 73.1975 606.727 82.4933 604 94C615.388 90.3422 620.415 70.189 613 61z"/>
<path style="fill:#b38fbe; stroke:none;" d="M104 62L105 63L104 62M161 62L162 63L161 62M222 62L223 63L222 62M279 62L280 63L279 62M314 62L315 63L314 62M339 62L340 63L339 62M385 62L386 63L385 62M393 62L394 63L393 62M515 62L516 63L515 62M542 62L543 63L542 62M555 62L556 63L555 62M600 62L600 67L601 67L600 62M614 62L615 63L614 62M164 63L165 64L164 63M221 63L222 64L221 63M251 63L252 64L251 63M313 63L314 64L313 63M337 63L338 64L337 63M384 63L385 64L384 63M391 63L392 64L391 63M554 63L555 64L554 63M107 64L108 65L107 64M167 64L168 65L167 64M220 64L221 65L220 64M276 64L277 65L276 64M312 64L313 65L312 64M383 64L384 65L383 64M389 64L390 65L389 64M468 64L469 65L468 64M512 64L513 65L512 64M576 64L577 65L576 64M615 64L616 65L615 64M170 65L171 66L170 65M311 65L312 66L311 65M334 65L335 66L334 65M382 65L383 66L382 65M387 65L388 66L387 65M455.333 65.6667L455.667 66.3333L455.333 65.6667M467 65L468 66L467 65M497 65L498 66L497 65M510 65L511 66L510 65M551 65L552 66L551 65M575 65L576 66L575 65M113 66L114 67L113 66M172 66L173 67L172 66M247 66L248 67L247 66M273 66L274 67L273 66M310 66L311 67L310 66M385 66L386 67L385 66M495 66L496 67L495 66M537 66L538 67L537 66M616.333 66.6667L616.667 67.3333L616.333 66.6667M116.667 67.3333L117.333 67.6667L116.667 67.3333M246 67L247 68L246 67M271 67L272 68L271 67M309 67L310 68L309 67M331 67L332 68L331 67M383 67L384 68L383 67M430 67L429 71L433 67L430 67M494 67L495 68L494 67M507 67L508 68L507 67M536 67L537 68L536 67M120.667 68.3333L121.333 68.6667L120.667 68.3333M175 68L176 69L175 68M308 68L309 69L308 68M329 68L330 69L329 68M427.667 68.3333L428.333 68.6667L427.667 68.3333z"/>
<path style="fill:#fffeff; stroke:none;" d="M371 97L371 98C393.201 98 417.773 86.6215 431 68C409.48 72.9786 389.146 84.7685 371 97z"/>
<path style="fill:#b38fbe; stroke:none;" d="M492 68L493 69L492 68M505 68L506 69L505 68M547 68L548 69L547 68M571 68L572 69L571 68M599 68L600 69L599 68M124 69L125 70L124 69M268 69L269 70L268 69M307 69L308 70L307 69M380 69L381 70L380 69M425 69L426 70L425 69M454 69L455 70L454 69M462 69L463 70L462 69M570 69L571 70L570 69M128 70L129 71L128 70M178 70L179 71L178 70M306 70L307 71L306 70M326 70L327 71L326 70M378 70L379 71L378 70M422 70L423 71L422 70M461 70L462 71L461 70M489 70L490 71L489 70M532 70L533 71L532 70M569 70L570 71L569 70M131 71L132 72L131 71M179 71L180 72L179 71M241 71L242 72L241 71M265 71L266 72L265 71M419 71L420 72L419 71M453 71L454 72L453 71M460 71L461 72L460 71M500 71L501 72L500 71M543 71L544 72L543 71M598 71L599 72L598 71M135 72L136 73L135 72M180 72L181 73L180 72M416 72L417 73L416 72M459 72L460 73L459 72M486 72L487 73L486 72M529 72L530 73L529 72M138.667 73.3333L139.333 73.6667L138.667 73.3333M181 73L182 74L181 73M321 73L322 74L321 73z"/>
<path style="fill:#9a168f; stroke:none;" d="M274 103C281.527 113.129 291.205 109.097 301 104.694C318.878 96.6578 339.356 89.5324 351 73C327.943 81.3934 299.671 109.792 274 103z"/>
<path style="fill:#b38fbe; stroke:none;" d="M414 73L415 74L414 73M458 73L459 74L458 73M485 73L486 74L485 73M528 73L529 74L528 73M540 73L541 74L540 73M565 73L566 74L565 73M597 73L598 74L597 73M142 74L143 75L142 74M260 74L261 75L260 74M411 74L412 75L411 74M451 74L452 75L451 74M457 74L458 75L457 74M493 74L494 75L493 74M145 75L146 76L145 75M182 75L183 76L182 75M236 75L237 76L236 75M258 75L259 76L258 75M318 75L319 76L318 75M409 75L410 76L409 75M423 75L424 76L423 75M450 75L451 76L450 75M456 75L457 76L456 75M482 75L483 76L482 75M491 75L492 76L491 75M525 75L526 76L525 75M537 75L538 76L537 75M596 75L597 76L596 75M616 75L617 76L616 75M148.667 76.3333L149.333 76.6667L148.667 76.3333M235 76L236 77L235 76M316 76L317 77L316 76M407 76L408 77L407 76M422 76L423 77L422 76M449 76L450 77L449 76M455 76L456 77L455 76M481 76L482 77L481 76M488 76L489 77L488 76M561 76L562 77L561 76M152 77L153 78L152 77z"/>
<path style="fill:#9a168f; stroke:none;" d="M183 77L184 78L183 77z"/>
<path style="fill:#b38fbe; stroke:none;" d="M234 77L235 78L234 77M255 77L256 78L255 77M300 77L301 78L300 77M405 77L406 78L405 77M448 77L449 78L448 77M454 77L455 78L454 77M485 77L486 78L485 77M522 77L523 78L522 77M534 77L535 78L534 77M560 77L561 78L560 77M155 78L156 79L155 78z"/>
<path style="fill:#9a168f; stroke:none;" d="M184 78C184.393 82.9782 185.813 88.0943 184.146 92.9992C180.14 104.787 161.558 107.276 151 109.4C119.956 115.646 88.4284 118.128 57 121.17C42.6605 122.557 24.0631 127.339 10 124C15.9424 134.827 40.4004 127.375 51 126.989C88.4785 125.625 128.537 120.773 165 111.87C180.605 108.06 197.925 95.2563 184 78z"/>
<path style="fill:#b38fbe; stroke:none;" d="M253 78L254 79L253 78M299 78L300 79L299 78M313 78L314 79L313 78M447 78L448 79L447 78M453 78L454 79L453 78M480 78L481 79L480 78M615 78L616 79L615 78M158 79L159 80L158 79M185 79L186 80L185 79M298 79L299 80L298 79M311 79L312 80L311 79M446 79L447 80L446 79M519 79L520 80L519 79M531 79L532 80L531 79z"/>
<path style="fill:#9a168f; stroke:none;" d="M361 80L362 81L361 80z"/>
<path style="fill:#b38fbe; stroke:none;" d="M417 80L418 81L417 80M445 80L446 81L445 80M517 80L518 81L517 80M556 80L557 81L556 80M614 80L615 81L614 80M165 81L166 82L165 81M186 81L187 82L186 81M229 81L230 82L229 81z"/>
<path style="fill:#9a168f; stroke:none;" d="M273 81C259.003 91.169 242.682 99.1283 227 106.309C217.254 110.771 208.905 115.025 198 113C202.266 120.377 209.865 119.401 217 116.996C231.659 112.055 245.461 104.132 259 96.7693C264.898 93.5621 274.215 89.1513 273 81z"/>
<path style="fill:#b38fbe; stroke:none;" d="M308 81L309 82L308 81M444 81L445 82L444 81M167.667 82.3333L168.333 82.6667L167.667 82.3333M228 82L229 83L228 82M246 82L247 83L246 82M306 82L307 83L306 82M443 82L444 83L443 82M514 82L515 83L514 82M526 82L527 83L526 82M170 83L171 84L170 83M227 83L228 84L227 83M244 83L245 84L244 83M393 83L394 84L393 83M413 83L414 84L413 83M442 83L443 84L442 83M449 83L450 84L449 83M512 83L513 84L512 83M552 83L553 84L552 83M173 84L174 85L173 84M187 84L188 85L187 84M200 84L201 85L200 84M226 84L227 85L226 84M242 84L243 85L242 84M294 84L295 85L294 84M391 84L392 85L391 84M441 84L442 85L441 84M510 84L511 85L510 84M523 84L524 85L523 84M199 85L200 86L199 85M240 85L241 86L240 85M301 85L302 86L301 85M389 85L390 86L389 85M410 85L411 86L410 85M508 85L509 86L508 85M521 85L522 86L521 85M612 85L613 86L612 85M299 86L300 87L299 86M506 86L507 87L506 86M548 86L549 87L548 86M678 86L678 87L705 87L678 86M172 87L173 88L172 87M297 87L298 88L297 87M386 87L387 88L386 87M407 87L408 88L407 87M611 87L612 88L611 87M658 87L658 88L662 88L658 87M719.667 87.3333L720.333 87.6667L719.667 87.3333M169 88L170 89L169 88M234 88L235 89L234 88M291 88L292 89L291 88M295 88L296 89L295 88M334 88L335 89L334 88M384 88L385 89L384 88M501 88L502 89L501 88M516 88L517 89L516 88M545 88L546 89L545 88M645 88L645 89L648 89L645 88M728.667 88.3333L729.333 88.6667L728.667 88.3333M166 89L167 90L166 89M196 89L197 90L196 89M232 89L233 90L232 89M290 89L291 90L290 89M293 89L294 90L293 89M332 89L333 90L332 89M435 89L436 90L435 89M445 89L446 90L445 89M514 89L515 90L514 89M634 89L634 90L637 90L634 89M735.667 89.3333L736.333 89.6667L735.667 89.3333M162 90L163 91L162 90M188 90L188 95L189 95L188 90M230 90L231 91L230 90M291 90L292 91L291 90M330 90L331 91L330 90M381 90L382 91L381 90M402 90L403 91L402 90M434 90L435 91L434 90M495.667 90.3333L496.333 90.6667L495.667 90.3333M512 90L513 91L512 90M542 90L543 91L542 90M625 90L625 91L628 91L625 90M740 90L741 91L740 90M158.667 91.3333L159.333 91.6667L158.667 91.3333M228 91L229 92L228 91M269 91L270 92L269 91M328 91L329 92L328 91M334 91L335 92L334 91M379 91L380 92L379 91M400 91L401 92L400 91M444 91L445 92L444 91M466 91L467 92L466 91M492.667 91.3333L493.333 91.6667L492.667 91.3333M510 91L511 92L510 91M541 91L542 92L541 91M617 91L617 92L620 92L617 91M744 91L745 92L744 91M154 92L155 93L154 92M194 92L195 93L194 92M226 92L227 93L226 92M266 92L267 93L266 92M326 92L327 93L326 92M333 92L334 93L333 92M465 92L466 93L465 92M469 92L470 93L469 92M488.667 92.3333L489.333 92.6667L488.667 92.3333M508 92L509 93L508 92M588 92L589 93L588 92M609 92L610 93L609 92M611.667 92.3333L612.333 92.6667L611.667 92.3333M748 92L749 93L748 92M149.667 93.3333L150.333 93.6667L149.667 93.3333M264 93L265 94L264 93M324 93L325 94L324 93M376 93L377 94L376 93M464 93L465 94L464 93M473 93L473 94L477 94L473 93M479 93L479 94L484 94L479 93M538 93L539 94L538 93M750 93L751 94L750 93M144.667 94.3333L145.333 94.6667L144.667 94.3333M221 94L222 95L221 94M322 94L323 95L322 94M394 94L395 95L394 94M429 94L430 95L429 94M463 94L464 95L463 94M504 94L505 95L504 94M139 95L140 96L139 95M219 95L220 96L219 95M320 95L321 96L320 95M373 95L374 96L373 95M502 95L503 96L502 95M535 95L536 96L535 95M752 95L753 96L752 95M133 96L134 97L133 96M259 96L260 97L259 96M269 96L270 97L269 96M318 96L319 97L318 96M389 96L390 97L389 96M500 96L501 97L500 96M533 96L534 97L533 96M587 96L587 99L588 99L587 96M127.667 97.3333L128.333 97.6667L127.667 97.3333M214 97L215 98L214 97M257 97L258 98L257 97M316 97L317 98L316 97M385 97L386 98L385 97M425 97L426 98L425 97M442 97L443 98L442 97M120.667 98.3333L121.333 98.6667L120.667 98.3333M191 98L192 99L191 98M255 98L256 99L255 98M270 98L271 99L270 98M314 98L315 99L314 98M374 98L374 99L381 99L374 98M460 98L461 99L460 98M495 98L496 99L495 98M530 98L531 99L530 98z"/>
<path style="fill:#9a168f; stroke:none;" d="M753 98C752.955 110.685 743.714 107.197 734 109L734 113L756 112C756.438 106.409 757.484 102.144 753 98z"/>
<path style="fill:#b38fbe; stroke:none;" d="M754 98L755 99L754 98M113 99L113 100L116 100L113 99M312 99L313 100L312 99M327 99L328 100L327 99M422 99L423 100L422 99M493 99L494 100L493 99M755 99L756 100L755 99M107.667 100.333L108.333 100.667L107.667 100.333M252 100L253 101L252 100M310 100L311 101L310 100M326 100L327 101L326 100M421 100L422 101L421 100M490 100L491 101L490 100M527 100L528 101L527 100z"/>
<path style="fill:#9a168f; stroke:none;" d="M593 107C598.734 117.694 617.14 110.881 627 109.421C661.818 104.268 695.091 104.245 730 107C728.566 98.4076 704.353 100 697 100C673.41 100 650.422 101.351 627 104.155C616.853 105.37 602.766 110.366 593 107z"/>
<path style="fill:#b38fbe; stroke:none;" d="M99.6667 101.333L100.333 101.667L99.6667 101.333M186 101L187 102L186 101M250 101L251 102L250 101M458 101L459 102L458 101M91.6667 102.333L92.3333 102.667L91.6667 102.333M248 102L249 103L248 102M273 102L274 103L273 102M305 102L306 103L305 102M418 102L419 103L418 102M756 102L757 103L756 102M82.6667 103.333L83.3333 103.667L82.6667 103.333M191 103L192 104L191 103M246 103L247 104L246 103M303 103L304 104L303 103M416 103L417 104L416 103M481 103L482 104L481 103M522 103L523 104L522 103M12 104L13 105L12 104M23 104L24 105L23 104M73.6667 104.333L74.3333 104.667L73.6667 104.333M244 104L245 105L244 104M301 104L302 105L301 104M457.333 104.667L457.667 105.333L457.333 104.667M477 104L478 105L477 104M520 104L521 105L520 104M681 104L681 105L701 105L681 104M9 105L10 106L9 105M63.6667 105.333L64.3333 105.667L63.6667 105.333M182 105L183 106L182 105M192 105L193 106L192 105M242 105L243 106L242 105M275 105L276 106L275 105M413 105L414 106L413 105M442 105L443 106L442 105M473 105L474 106L473 105M591 105L592 106L591 105M662 105L662 106L667 106L662 105M712 105L712 106L716 106L712 105M51 106L51 107L55 107L51 106M180 106L181 107L180 106M240 106L241 107L240 106M276 106L277 107L276 106M296 106L297 107L296 106M321 106L322 107L321 106M411 106L412 107L411 106M461 106L461 107L467 107L461 106M651 106L651 107L655 107L651 106M722 106L722 107L726 107L722 106M7 107L8 108L7 107M27 107L28 108L27 107M39 107L39 108L44 108L39 107M178 107L179 108L178 107M193 107L194 108L193 107M238 107L239 108L238 107M294 107L295 108L294 107M320 107L321 108L320 107M357 107L358 108L357 107M409 107L410 108L409 107M515 107L516 108L515 107M641 107L641 108L645 108L641 107M756 107L756 110L757 110L756 107M28 108L28 109L31 109L28 108M175 108L176 109L175 108M236 108L237 109L236 108M279 108L280 109L279 108M291 108L292 109L291 108M355 108L356 109L355 108M358 108L359 109L358 108M443 108L444 109L443 108M513 108L514 109L513 108M593 108L594 109L593 108M633 108L633 109L636 109L633 108M6 109L7 110L6 109M173 109L174 110L173 109M234 109L235 110L234 109M281 109L282 110L281 109M288 109L289 110L288 109M354 109L355 110L354 109M511 109L512 110L511 109M626.667 109.333L627.333 109.667L626.667 109.333M232 110L233 111L232 110M361 110L362 111L361 110M403 110L404 111L403 110M509 110L510 111L509 110M619.667 110.333L620.333 110.667L619.667 110.333M166 111L167 112L166 111M196 111L197 112L196 111M230 111L231 112L230 111M401 111L402 112L401 111M445 111L446 112L445 111M507 111L508 112L507 111M612.667 111.333L613.333 111.667L612.667 111.333M733 111C733.729 114.403 735.806 113.987 739 114L739 113L733 111M162 112L163 113L162 112z"/>
<path style="fill:#9a168f; stroke:none;" d="M197 112L198 113L197 112z"/>
<path style="fill:#b38fbe; stroke:none;" d="M316 112L317 113L316 112M350 112L351 113L350 112M398 112L399 113L398 112M446 112L447 113L446 112M505 112L506 113L505 112M605.667 112.333L606.333 112.667L605.667 112.333M752 112L752 113L756 113L752 112M157.667 113.333L158.333 113.667L157.667 113.333M225 113L226 114L225 113M315 113L316 114L315 113M349 113L350 114L349 113M367 113L368 114L367 113M395 113L396 114L395 113M599.667 113.333L600.333 113.667L599.667 113.333M153.667 114.333L154.333 114.667L153.667 114.333M198 114L199 115L198 114M223 114L224 115L223 114M348 114L349 115L348 114M369.667 114.333L370.333 114.667L369.667 114.333M392 114L393 115L392 114M447 114L448 115L447 114M500 114L501 115L500 114M147 115L147 116L150 116L147 115M221 115L222 116L221 115M373.667 115.333L374.333 115.667L373.667 115.333M386 115L386 116L389 116L386 115M498 115L499 116L498 115M142.667 116.333L143.333 116.667L142.667 116.333M218 116L219 117L218 116M495 116L496 117L495 116M136.667 117.333L137.333 117.667L136.667 117.333M201 117L202 118L201 117M215 117L216 118L215 117M6 118L7 119L6 118M129.667 118.333L130.333 118.667L129.667 118.333M203 118L204 119L203 118M212 118L213 119L212 118M311 118L312 119L311 118M343 118L344 119L343 118M122.667 119.333L123.333 119.667L122.667 119.333M310 119L311 120L310 119M342 119L343 120L342 119M452 119L453 120L452 119M486 119L487 120L486 119M114.667 120.333L115.333 120.667L114.667 120.333M341 120L342 121L341 120M454 120L455 121L454 120M482 120L483 121L482 120M7 121L8 122L7 121M105 121L105 122L108 122L105 121M340 121L341 122L340 121M457.667 121.333L458.333 121.667L457.667 121.333M476.667 121.333L477.333 121.667L476.667 121.333M96 122L96 123L100 123L96 122M465 122L466 123L465 122M87 123L87 124L91 124L87 123M307 123L308 124L307 123M77 124L77 125L81 125L77 124M10 125L11 126L10 125M67 125L67 126L70 126L67 125M56 126L56 127L59 127L56 126M44 127L44 128L47 128L44 127M304 127L305 128L304 127M12 128L13 129L12 128M31 128L31 129L35 129L31 128M14 129L15 130L14 129M18 129L18 130L22 130L18 129M86 132L86 133L103 133L86 132M328 132L329 133L328 132M605.667 132.333L606.333 132.667L605.667 132.333z"/>
<path style="fill:#9a168f; stroke:none;" d="M607 132L608 133L607 132z"/>
<path style="fill:#03039a; stroke:none;" d="M608 132.428C573.14 137.422 558.805 169.537 554.718 201C551.229 227.862 564.675 254.392 593 259.535C599.208 260.663 605.771 260.628 612 259.701C651.777 253.78 665.63 208.574 660.714 174C657.056 148.268 634.535 128.627 608 132.428z"/>
<path style="fill:#9a168f; stroke:none;" d="M619 132L620 133L619 132z"/>
<path style="fill:#b38fbe; stroke:none;" d="M620.667 132.333L621.333 132.667L620.667 132.333M78.6667 133.333L79.3333 133.667L78.6667 133.333z"/>
<path style="fill:#03039a; stroke:none;" d="M101 255L100 260C106.792 260 122.758 262.975 128.351 258.972C137.617 252.342 135.589 232.639 143.51 224.318C146.405 221.277 151.192 222 155 222C158.759 222 165.447 220.75 168.411 223.603C170.945 226.043 170.769 230.776 171.155 234C172.183 242.588 173.821 251.351 174 260L208 260L221.437 258.972L228.333 241L244 192L245 192L255 260L279.582 258.972L288.203 240L308 188L309 188L313 260L341 260L333 133C322.326 133.805 317.069 151.883 308 151.307C302.938 150.986 300.207 144.178 296 142L274 199C268.775 178.805 264.43 153.848 264 133C257.182 133 240.218 129.893 234.702 134.028C228.771 138.474 226.935 154.195 224.667 161C216.326 186.023 205.946 211.299 200 237L199 237L187 133C178.232 133 157.757 129.173 150.418 134.028C144.142 138.179 141.103 154.184 138.399 161C128.66 185.543 114.95 211.293 109 237L108 237L113 198L63 198L60 222L81 222C79.9492 244.611 45.3055 231.657 38.4174 219C21.0134 187.02 63.3422 160.906 90 159.09C99.4599 158.445 108.828 161.108 118 163L122 136C89.9877 129.396 52.9078 132.468 28.2855 156.428C-3.66342 187.518 0.268608 241.496 44 258.536C62.7813 265.855 82.7313 260.944 101 255z"/>
<path style="fill:#b38fbe; stroke:none;" d="M109.667 133.333L110.333 133.667L109.667 133.333z"/>
<path style="fill:#9a168f; stroke:none;" d="M149 133L150 134L149 133z"/>
<path style="fill:#b38fbe; stroke:none;" d="M233 133L234 134L233 133z"/>
<path style="fill:#9a168f; stroke:none;" d="M300 133L301 134L300 133z"/>
<path style="fill:#b38fbe; stroke:none;" d="M359.333 133.667L359.667 134.333L359.333 133.667z"/>
<path style="fill:#03039a; stroke:none;" d="M342 260L415 260L419 232L375 232L377 210L416 210L420 182L382 182L385.603 162.603L398 161L429 161L433 133L380 133L360.742 134.028L358.271 143L355 167L342 260M470 133L453 260C477.463 260 515.514 267.296 535.996 251.319C548.442 241.612 554.17 223.27 550.239 208C548.918 202.868 543.387 198.133 542.767 193.3C542.359 190.12 548.117 185.939 549.482 182.996C552.678 176.1 553.728 167.518 552.816 160C548.358 123.26 495.329 133 470 133z"/>
<path style="fill:#9a168f; stroke:none;" d="M526 133L527 134L526 133z"/>
<path style="fill:#b38fbe; stroke:none;" d="M527 133L528 134L527 133M601 133L602 134L601 133M625.667 133.333L626.333 133.667L625.667 133.333z"/>
<path style="fill:#03039a; stroke:none;" d="M647 133C653.164 154.397 672.35 175.018 675.301 197C678.002 217.116 668.056 239.625 668 260C673.591 260 692.325 262.958 695.973 258.397C698.293 255.495 697.889 248.594 698.421 245C700.257 232.599 699.88 217.863 703.853 206C712.726 179.509 737.91 158.703 749 133C741.049 133 724.183 129.783 717.379 134.028C706.869 140.583 701.07 159.532 693 169L682.579 143L676.775 133.603L647 133z"/>
<path style="fill:#b38fbe; stroke:none;" d="M678 133L679 134L678 133M72 134L73 135L72 134z"/>
<path style="fill:#9a168f; stroke:none;" d="M73 134L74 135L73 134z"/>
<path style="fill:#b38fbe; stroke:none;" d="M115.667 134.333L116.333 134.667L115.667 134.333z"/>
<path style="fill:#9a168f; stroke:none;" d="M233 134L234 135L233 134M299 134L300 135L299 134z"/>
<path style="fill:#b38fbe; stroke:none;" d="M333 134L333 138L334 138L333 134M531 134L532 135L531 134M597 134L598 135L597 134M629 134L630 135L629 134z"/>
<path style="fill:#9a168f; stroke:none;" d="M748 134L749 135L748 134z"/>
<path style="fill:#b38fbe; stroke:none;" d="M67.6667 135.333L68.3333 135.667L67.6667 135.333M119 135L120 136L119 135M148 135L149 136L148 135z"/>
<path style="fill:#9a168f; stroke:none;" d="M533 135L534 136L533 135z"/>
<path style="fill:#b38fbe; stroke:none;" d="M594 135L595 136L594 135M632 135L633 136L632 135M679 135L680 136L679 135M715 135L716 136L715 135M64 136L65 137L64 136M122 136L123 137L122 136M232 136L233 137L232 136M264 136L264 139L265 139L264 136M298 136L299 137L298 136z"/>
<path style="fill:#9a168f; stroke:none;" d="M432 136L433 137L432 136M535 136L536 137L535 136z"/>
<path style="fill:#b38fbe; stroke:none;" d="M592 136L593 137L592 136M634 136L635 137L634 136M747 136L748 137L747 136M60 137L61 138L60 137M187.333 137.667L187.667 138.333L187.333 137.667z"/>
<path style="fill:#9a168f; stroke:none;" d="M232 137L233 138L232 137z"/>
<path style="fill:#b38fbe; stroke:none;" d="M432.333 137.667L432.667 138.333L432.333 137.667M537 137L538 138L537 137M590 137L591 138L590 137M636 137L637 138L636 137M648 137L649 138L648 137z"/>
<path style="fill:#9a168f; stroke:none;" d="M714 137L715 138L714 137z"/>
<path style="fill:#b38fbe; stroke:none;" d="M57 138L58 139L57 138z"/>
<path style="fill:#9a168f; stroke:none;" d="M58 138L59 139L58 138M147 138L148 139L147 138z"/>
<path style="fill:#b38fbe; stroke:none;" d="M297 138L298 139L297 138z"/>
<path style="fill:#9a168f; stroke:none;" d="M333 138L334 139L333 138z"/>
<path style="fill:#b38fbe; stroke:none;" d="M469.333 138.667L469.667 139.333L469.333 138.667M588 138L589 139L588 138M638 138L639 139L638 138M680 138L681 139L680 138M713 138L714 139L713 138M55 139L56 140L55 139z"/>
<path style="fill:#9a168f; stroke:none;" d="M187 139L188 140L187 139z"/>
<path style="fill:#b38fbe; stroke:none;" d="M231 139L232 140L231 139z"/>
<path style="fill:#9a168f; stroke:none;" d="M264 139L265 140L264 139z"/>
<path style="fill:#b38fbe; stroke:none;" d="M540 139L541 140L540 139M649 139L650 140L649 139M745 139L746 140L745 139M52 140L53 141L52 140z"/>
<path style="fill:#9a168f; stroke:none;" d="M121 140L122 141L121 140z"/>
<path style="fill:#b38fbe; stroke:none;" d="M146 140L147 141L146 140z"/>
<path style="fill:#9a168f; stroke:none;" d="M231 140L232 141L231 140z"/>
<path style="fill:#b38fbe; stroke:none;" d="M358 140L353 141L341 233L340 233L340 231L339 231L341 260C336.343 260.809 336.105 263.69 336 268L409 268L410 260L342 260L353.13 180L358 140M541 140L542 141L541 140M585 140L586 141L585 140M641 140L642 141L641 140M681 140L682 141L681 140z"/>
<path style="fill:#9a168f; stroke:none;" d="M712 140L713 141L712 140z"/>
<path style="fill:#b38fbe; stroke:none;" d="M50 141L51 142L50 141M121 141L121 144L122 144L121 141M109 234L110 234L146 141C139.028 143.252 136.524 156.671 134 163C125.611 184.04 109.189 211.197 109 234M199 236L200 236L231 141C223.329 142.328 221.969 156.582 219.975 163C212.815 186.039 198.816 211.835 199 236M293 141L274 192L273 192L273 189L272 189L274 198L284.05 174L296 141L293 141z"/>
<path style="fill:#9a168f; stroke:none;" d="M296 141L297 142L296 141M358 141L359 142L358 141z"/>
<path style="fill:#b38fbe; stroke:none;" d="M446 268C473.612 268 518.656 277.024 537 251C510.291 263.47 482.143 260 453 260L469 141C459.645 141.746 460.723 163.358 459.718 171C455.528 202.868 453.459 236.757 446 268M542 141L543 142L542 141M643 141L656.11 159L662.529 189L668.856 206L661 268L690 268L691 260L667 260C671.008 246.568 671.19 230.923 673.13 217C674.019 210.625 676.637 202.373 675.273 196C673.169 186.169 666.491 176.11 662.309 167C658.04 157.702 654.898 141.141 643 141z"/>
<path style="fill:#9a168f; stroke:none;" d="M650 141L651 142L650 141z"/>
<path style="fill:#b38fbe; stroke:none;" d="M710 141L710 143L712 141L710 141M48 142L49 143L48 142z"/>
<path style="fill:#9a168f; stroke:none;" d="M543 142L544 143L543 142z"/>
<path style="fill:#b38fbe; stroke:none;" d="M582 142L583 143L582 142M682 142L683 143L682 142M743 142L744 143L743 142M46 143L47 144L46 143z"/>
<path style="fill:#9a168f; stroke:none;" d="M145 143L146 144L145 143z"/>
<path style="fill:#b38fbe; stroke:none;" d="M265.333 143.667L265.667 144.333L265.333 143.667M431 143L431 146L432 146L431 143z"/>
<path style="fill:#9a168f; stroke:none;" d="M544 143L545 144L544 143M581 143L582 144L581 143M651 143L652 144L651 143z"/>
<path style="fill:#b38fbe; stroke:none;" d="M709 143L693 168C698.476 164.678 709.557 149.472 709 143M44 144L45 145L44 144M545 144L546 145L545 144M42 145L43 146L42 145z"/>
<path style="fill:#9a168f; stroke:none;" d="M144 145L145 146L144 145z"/>
<path style="fill:#b38fbe; stroke:none;" d="M188.333 145.667L188.667 146.333L188.333 145.667z"/>
<path style="fill:#9a168f; stroke:none;" d="M265 145L266 146L265 145z"/>
<path style="fill:#b38fbe; stroke:none;" d="M546 145L547 146L546 145z"/>
<path style="fill:#9a168f; stroke:none;" d="M683 145L684 146L683 145z"/>
<path style="fill:#b38fbe; stroke:none;" d="M741 145L742 146L741 145z"/>
<path style="fill:#9a168f; stroke:none;" d="M468 146L469 147L468 146M708 146L709 147L708 146z"/>
<path style="fill:#b38fbe; stroke:none;" d="M39 147L40 148L39 147M120 147L120 150L121 150L120 147z"/>
<path style="fill:#9a168f; stroke:none;" d="M188 147L189 148L188 147z"/>
<path style="fill:#b38fbe; stroke:none;" d="M684 147L685 148L684 147M740 147L741 148L740 147z"/>
<path style="fill:#9a168f; stroke:none;" d="M357 148L358 149L357 148z"/>
<path style="fill:#b38fbe; stroke:none;" d="M548 148L549 149L548 148M36 149L37 150L36 149z"/>
<path style="fill:#9a168f; stroke:none;" d="M293 149L294 150L293 149z"/>
<path style="fill:#b38fbe; stroke:none;" d="M685 149L686 150L685 149z"/>
<path style="fill:#9a168f; stroke:none;" d="M706 149L707 150L706 149M35 150L36 151L35 150z"/>
<path style="fill:#b38fbe; stroke:none;" d="M266.333 150.667L266.667 151.333L266.333 150.667M334 150L334 155L335 155L334 150M430.333 150.667L430.667 151.333L430.333 150.667M738 150L739 151L738 150M32 152L33 153L32 152z"/>
<path style="fill:#9a168f; stroke:none;" d="M227 152L228 153L227 152z"/>
<path style="fill:#b38fbe; stroke:none;" d="M572 152L573 153L572 152z"/>
<path style="fill:#9a168f; stroke:none;" d="M655 152L656 153L655 152M686 152L687 153L686 152M704 152L705 153L704 152z"/>
<path style="fill:#b38fbe; stroke:none;" d="M31 153L32 154L31 153M119 153L119 156L120 156L119 153M189 153L189 156L190 156L189 153M736 153L737 154L736 153M30 154L31 155L30 154z"/>
<path style="fill:#9a168f; stroke:none;" d="M291 154L292 155L291 154M467 154L468 155L467 154z"/>
<path style="fill:#b38fbe; stroke:none;" d="M551 154L552 155L551 154z"/>
<path style="fill:#9a168f; stroke:none;" d="M656 154L657 155L656 154z"/>
<path style="fill:#b38fbe; stroke:none;" d="M687 154L688 155L687 154z"/>
<path style="fill:#9a168f; stroke:none;" d="M29 155L30 156L29 155M226 155L227 156L226 155M570 155L571 156L570 155M654 155L655 156L654 155z"/>
<path style="fill:#b38fbe; stroke:none;" d="M267.333 156.667L267.667 157.333L267.333 156.667z"/>
<path style="fill:#9a168f; stroke:none;" d="M356 156L357 157L356 156M429 156L430 157L429 156z"/>
<path style="fill:#b38fbe; stroke:none;" d="M552.333 156.667L552.667 157.333L552.333 156.667M569 156L570 157L569 156z"/>
<path style="fill:#9a168f; stroke:none;" d="M657 156L658 157L657 156z"/>
<path style="fill:#b38fbe; stroke:none;" d="M688 156L689 157L688 156M734 156L735 157L734 156M429 157L430 158L429 157M568 157L569 158L568 157z"/>
<path style="fill:#9a168f; stroke:none;" d="M655 157L656 158L655 157M26 158L27 159L26 158M139 158L140 159L139 158M225 158L226 159L225 158M267 158L268 159L267 158z"/>
<path style="fill:#b38fbe; stroke:none;" d="M567.333 158.667L567.667 159.333L567.333 158.667M689 158L690 159L689 158M25 159L26 160L25 159z"/>
<path style="fill:#9a168f; stroke:none;" d="M86.6667 159.333L87.3333 159.667L86.6667 159.333z"/>
<path style="fill:#b38fbe; stroke:none;" d="M44 182C66.9983 166.853 85.5674 165.544 112 171L113 162C91.1676 156.352 55.8696 159.183 44 182z"/>
<path style="fill:#9a168f; stroke:none;" d="M98.6667 159.333L99.3333 159.667L98.6667 159.333M118 159L119 160L118 159M289 159L290 160L289 159M608 159L609 160L608 159z"/>
<path style="fill:#b38fbe; stroke:none;" d="M593 171C596.594 169.506 600.053 167.448 604 167.109C636.925 164.28 627.71 211.443 619 228C633.651 216.148 638.671 187.927 630.811 171C622.784 153.714 602.324 157.801 593 171z"/>
<path style="fill:#9a168f; stroke:none;" d="M616 159L617 160L616 159M656 159L657 160L656 159M689 159L690 160L689 159z"/>
<path style="fill:#b38fbe; stroke:none;" d="M24 160L25 161L24 160z"/>
<path style="fill:#9a168f; stroke:none;" d="M79 160L80 161L79 160M106 160L107 161L106 160z"/>
<path style="fill:#b38fbe; stroke:none;" d="M118.333 160.667L118.667 161.333L118.333 160.667M566 160C557.466 171.104 549.944 186.733 549.211 201C548.936 206.352 551.413 211.6 551.545 217C551.869 230.295 548.413 238.174 557.529 250C574.182 271.604 622.656 277.328 637 249C625.914 254.243 616.721 260.132 604 260.791C576.434 262.218 555.184 238.141 554.039 212C553.547 200.755 555.941 188.634 559.516 178C561.387 172.436 566.063 165.812 566 160z"/>
<path style="fill:#9a168f; stroke:none;" d="M619 160L620 161L619 160M699 160L700 161L699 160z"/>
<path style="fill:#b38fbe; stroke:none;" d="M23 161L24 162L23 161z"/>
<path style="fill:#9a168f; stroke:none;" d="M75 161L76 162L75 161M111 161L112 162L111 161M224 161L225 162L224 161z"/>
<path style="fill:#b38fbe; stroke:none;" d="M385 161L384 169C393.345 169 422.606 173.998 423 162L429 162L385 161z"/>
<path style="fill:#9a168f; stroke:none;" d="M386 161L386 162L423 162C413.202 157.889 396.649 161 386 161M466 161L467 162L466 161M495 161L495 162L516 162L495 161M566 161L567 162L566 161z"/>
<path style="fill:#b38fbe; stroke:none;" d="M690 161L691 162L690 161M731 161L732 162L731 161M114.667 162.333L115.333 162.667L114.667 162.333M190.333 162.667L190.667 163.333L190.333 162.667z"/>
<path style="fill:#9a168f; stroke:none;" d="M288 162L289 163L288 162M384 162L385 163L384 162z"/>
<path style="fill:#b38fbe; stroke:none;" d="M495 162L494 169C503.658 169 515.597 167.407 517 180C522.514 175.894 526.797 166.339 517.956 162.742C511.641 160.173 501.754 162 495 162z"/>
<path style="fill:#9a168f; stroke:none;" d="M518 162L519 163L518 162z"/>
<path style="fill:#b38fbe; stroke:none;" d="M553 162L553 168L554 168L553 162z"/>
<path style="fill:#9a168f; stroke:none;" d="M601 162L602 163L601 162M623 162L624 163L623 162z"/>
<path style="fill:#b38fbe; stroke:none;" d="M117 163L118 164L117 163z"/>
<path style="fill:#9a168f; stroke:none;" d="M137 163L138 164L137 163z"/>
<path style="fill:#b38fbe; stroke:none;" d="M268.333 163.667L268.667 164.333L268.333 163.667z"/>
<path style="fill:#9a168f; stroke:none;" d="M355 163L356 164L355 163z"/>
<path style="fill:#b38fbe; stroke:none;" d="M691 163L692 164L691 163z"/>
<path style="fill:#9a168f; stroke:none;" d="M697 163L698 164L697 163M66 164L67 165L66 164M223 164L224 165L223 164M658 164L659 165L658 164z"/>
<path style="fill:#b38fbe; stroke:none;" d="M729 164L730 165L729 164M20 165L21 166L20 165M335 165L335 172L336 172L335 165z"/>
<path style="fill:#9a168f; stroke:none;" d="M564 165L565 166L564 165M661 165L662 166L661 165z"/>
<path style="fill:#b38fbe; stroke:none;" d="M19 166L20 167L19 166z"/>
<path style="fill:#9a168f; stroke:none;" d="M522 166L523 167L522 166M695 166L696 167L695 166M222 167L223 168L222 167M286 167L287 168L286 167M494 167L495 168L494 167M563 167L564 168L563 167z"/>
<path style="fill:#fffeff; stroke:none;" d="M600 167.638C591.041 170.228 588.039 178.834 585.884 187C581.081 205.204 581.463 239.796 610 232.236C637.215 225.026 634.497 157.663 600 167.638z"/>
<path style="fill:#9a168f; stroke:none;" d="M662 167L663 168L662 167z"/>
<path style="fill:#b38fbe; stroke:none;" d="M727 167L728 168L727 167z"/>
<path style="fill:#9a168f; stroke:none;" d="M18 168L19 169L18 168M58 168L59 169L58 168M135 168L136 169L135 168M465 168L466 169L465 168M629 168L630 169L629 168M693 168L694 169L693 168z"/>
<path style="fill:#b38fbe; stroke:none;" d="M17 169L18 170L17 169M191 169L191 172L192 172L191 169M383.333 169.667L383.667 170.333L383.333 169.667z"/>
<path style="fill:#fffeff; stroke:none;" d="M494 169L493 182C498.262 182 512.446 184.325 515.957 179.411C523.776 168.469 498.164 169 494 169z"/>
<path style="fill:#9a168f; stroke:none;" d="M523 169L524 170L523 169z"/>
<path style="fill:#b38fbe; stroke:none;" d="M16 170C6.25468 183.725 -1.08929 201.786 0.0895062 219C3.32466 266.242 58.2953 279.165 95 262L93 268L123 268L125 260L99 260L101 255C87.0836 258.799 74.7241 262.942 60 261.91C35.4027 260.187 10.9161 241.094 7.30015 216C5.86765 206.059 7.5598 195.451 10.6705 186C12.2487 181.205 16.4833 174.935 16 170z"/>
<path style="fill:#9a168f; stroke:none;" d="M55 170L56 171L55 170M221 170L222 171L221 170z"/>
<path style="fill:#b38fbe; stroke:none;" d="M269.333 170.667L269.667 171.333L269.333 170.667z"/>
<path style="fill:#9a168f; stroke:none;" d="M354 170L355 171L354 170M725 170L726 171L725 170M523 171L524 172L523 171M592 171L593 172L592 171z"/>
<path style="fill:#b38fbe; stroke:none;" d="M163 172L159 197L154 197L154 198L166 197L163 172z"/>
<path style="fill:#9a168f; stroke:none;" d="M191 172L192 173L191 172M284 172L285 173L284 172M335 172L336 173L335 172z"/>
<path style="fill:#b38fbe; stroke:none;" d="M552.333 172.667L552.667 173.333L552.333 172.667z"/>
<path style="fill:#9a168f; stroke:none;" d="M631 172L632 173L631 172M660 172L661 173L660 172z"/>
<path style="fill:#b38fbe; stroke:none;" d="M724 172L725 173L724 172z"/>
<path style="fill:#9a168f; stroke:none;" d="M15 173L16 174L15 173M51 173L52 174L51 173M133 173L134 174L133 173M220 173L221 174L220 173z"/>
<path style="fill:#b38fbe; stroke:none;" d="M493.333 174.667L493.667 175.333L493.333 174.667z"/>
<path style="fill:#9a168f; stroke:none;" d="M522 174L523 175L522 174M14 175L15 176L14 175M464 175L465 176L464 175M632 175L633 176L632 175z"/>
<path style="fill:#b38fbe; stroke:none;" d="M722 175L723 176L722 175M382.333 176.667L382.667 177.333L382.333 176.667z"/>
<path style="fill:#9a168f; stroke:none;" d="M589 176L590 177L589 176z"/>
<path style="fill:#b38fbe; stroke:none;" d="M192 177L192 180L193 180L192 177M270.333 177.667L270.667 178.333L270.333 177.667z"/>
<path style="fill:#9a168f; stroke:none;" d="M353.333 177.667L353.667 178.333L353.333 177.667M520 177L521 178L520 177z"/>
<path style="fill:#b38fbe; stroke:none;" d="M551 177L552 178L551 177z"/>
<path style="fill:#9a168f; stroke:none;" d="M559 177L560 178L559 177M519 178L520 179L519 178M667 178L668 179L667 178z"/>
<path style="fill:#b38fbe; stroke:none;" d="M720 178L721 179L720 178z"/>
<path style="fill:#9a168f; stroke:none;" d="M160 179L161 180L160 179M164.333 179.667L164.667 180.333L164.333 179.667M218 179L219 180L218 179M633 179L634 180L633 179M661.333 179.667L661.667 180.333L661.333 179.667M44 180L45 181L44 180M192 180L193 181L192 180M281 180L282 181L281 180M516 180L517 181L516 180z"/>
<path style="fill:#b38fbe; stroke:none;" d="M550 180L551 181L550 180z"/>
<path style="fill:#9a168f; stroke:none;" d="M668 180L669 181L668 180M130 181L131 182L130 181z"/>
<path style="fill:#b38fbe; stroke:none;" d="M336 181L336 188L337 188L336 181M511.667 181.333L512.333 181.667L511.667 181.333M587 181L588 182L587 181z"/>
<path style="fill:#9a168f; stroke:none;" d="M718 181L719 182L718 181M217 182L218 183L217 182M463 182L464 183L463 182z"/>
<path style="fill:#b38fbe; stroke:none;" d="M42 183L43 184L42 183M271.333 183.667L271.667 184.333L271.333 183.667M549 183L550 184L549 183M717 183L718 184L717 183M41 184L42 185L41 184z"/>
<path style="fill:#9a168f; stroke:none;" d="M352.333 184.667L352.667 185.333L352.333 184.667M419 184L420 185L419 184M557 184L558 185L557 184z"/>
<path style="fill:#b38fbe; stroke:none;" d="M586 184L587 185L586 184M193 185L193 188L194 188L193 185z"/>
<path style="fill:#9a168f; stroke:none;" d="M216 185L217 186L216 185M271 185L272 186L271 185M279 185L280 186L279 185z"/>
<path style="fill:#b38fbe; stroke:none;" d="M419.333 185.667L419.667 186.333L419.333 185.667M40 186L41 187L40 186z"/>
<path style="fill:#9a168f; stroke:none;" d="M128 186L129 187L128 186z"/>
<path style="fill:#b38fbe; stroke:none;" d="M547 186L548 187L547 186M715 186L716 187L715 186M585.333 187.667L585.667 188.333L585.333 187.667M39 188L40 189L39 188z"/>
<path style="fill:#fffeff; stroke:none;" d="M157 188L154 197L159 197L157 188z"/>
<path style="fill:#9a168f; stroke:none;" d="M165 188L166 189L165 188M193 188L194 189L193 188M215 188L216 189L215 188M308.333 188.667L308.667 189.333L308.333 188.667M336 188L337 189L336 188M9 189L10 190L9 189M462.333 189.667L462.667 190.333L462.333 189.667M544 189L545 190L544 189M672 189L673 190L672 189z"/>
<path style="fill:#b38fbe; stroke:none;" d="M713 189L714 190L713 189M38 190L39 191L38 190M156 190L157 191L156 190z"/>
<path style="fill:#9a168f; stroke:none;" d="M277 190L278 191L277 190z"/>
<path style="fill:#b38fbe; stroke:none;" d="M307 190C301.699 209.381 304.16 226.947 305.039 247C305.224 251.221 304.372 264.245 307.742 266.972C312.613 270.913 328.827 268 335 268L334 260L313 260L309 190L307 190M543 190L544 191L543 190z"/>
<path style="fill:#9a168f; stroke:none;" d="M351.333 191.667L351.667 192.333L351.333 191.667M418 191L419 192L418 191z"/>
<path style="fill:#b38fbe; stroke:none;" d="M542 191L543 192L542 191M584.333 191.667L584.667 192.333L584.333 191.667z"/>
<path style="fill:#9a168f; stroke:none;" d="M673 191L674 192L673 191z"/>
<path style="fill:#b38fbe; stroke:none;" d="M712 191L713 192L712 191M37 192L38 193L37 192z"/>
<path style="fill:#9a168f; stroke:none;" d="M244 192L245 193L244 192M306 192L307 193L306 192z"/>
<path style="fill:#b38fbe; stroke:none;" d="M418.333 192.667L418.667 193.333L418.333 192.667M541 192L542 193L541 192M711 192L712 193L711 192z"/>
<path style="fill:#9a168f; stroke:none;" d="M8 193L9 194L8 193z"/>
<path style="fill:#b38fbe; stroke:none;" d="M155 193L156 194L155 193M244 193L238 210C245.235 219.405 244.336 241.307 246.246 253C246.856 256.733 246.506 263.379 249.013 266.397C251.092 268.899 256.137 268 259 268C267.879 268.001 273.857 269.524 277 260L255 260L248.08 216L244 193z"/>
<path style="fill:#9a168f; stroke:none;" d="M674 193L675 194L674 193z"/>
<path style="fill:#b38fbe; stroke:none;" d="M194.333 194.667L194.667 195.333L194.333 194.667z"/>
<path style="fill:#9a168f; stroke:none;" d="M542 194L543 195L542 194M555 194L556 195L555 194M661 194L662 195L661 194z"/>
<path style="fill:#b38fbe; stroke:none;" d="M710 194L711 195L710 194z"/>
<path style="fill:#9a168f; stroke:none;" d="M36 195L37 196L36 195z"/>
<path style="fill:#b38fbe; stroke:none;" d="M154 195L155 196L154 195M543 195L544 196L543 195M661 195L661 198L662 198L661 195M36 196L37 197L36 196z"/>
<path style="fill:#9a168f; stroke:none;" d="M124 196L125 197L124 196M194 196L195 197L194 196z"/>
<path style="fill:#b38fbe; stroke:none;" d="M544 196L545 197L544 196M583 196L583 199L584 199L583 196M63 197L63 198L114 199L100 197L63 197z"/>
<path style="fill:#9a168f; stroke:none;" d="M159 197L159 198L166 198L159 197M273 197L274 198L273 197M304 197L305 198L304 197z"/>
<path style="fill:#b38fbe; stroke:none;" d="M337 197L337 203L338 203L337 197z"/>
<path style="fill:#9a168f; stroke:none;" d="M461 197L462 198L461 197M633.333 197.667L633.667 198.333L633.333 197.667z"/>
<path style="fill:#b38fbe; stroke:none;" d="M708 197L709 198L708 197M62.3333 198.667L62.6667 199.333L62.3333 198.667z"/>
<path style="fill:#9a168f; stroke:none;" d="M274 198L275 199L274 198M417 198L418 199L417 198M7 199L8 200L7 199M245 199L246 200L245 199M350 199L351 200L350 199z"/>
<path style="fill:#b38fbe; stroke:none;" d="M417.333 199.667L417.667 200.333L417.333 199.667z"/>
<path style="fill:#9a168f; stroke:none;" d="M546 199L547 200L546 199M675 199L676 200L675 199M35 200L36 201L35 200M62 200L63 201L62 200z"/>
<path style="fill:#b38fbe; stroke:none;" d="M706 200L707 201L706 200M35 201L35 206L36 206L35 201z"/>
<path style="fill:#9a168f; stroke:none;" d="M122 201L123 202L122 201M554.333 201.667L554.667 202.333L554.333 201.667z"/>
<path style="fill:#b38fbe; stroke:none;" d="M195.333 202.667L195.667 203.333L195.333 202.667z"/>
<path style="fill:#9a168f; stroke:none;" d="M302 202L303 203L302 202z"/>
<path style="fill:#b38fbe; stroke:none;" d="M705 202L706 203L705 202M112 203L112 206L113 206L112 203z"/>
<path style="fill:#9a168f; stroke:none;" d="M337.333 203.667L337.667 204.333L337.333 203.667M632 203L633 204L632 203z"/>
<path style="fill:#b38fbe; stroke:none;" d="M704 203L705 204L704 203z"/>
<path style="fill:#9a168f; stroke:none;" d="M195 204L196 205L195 204M309.333 204.667L309.667 205.333L309.333 204.667M460 204L461 205L460 204z"/>
<path style="fill:#b38fbe; stroke:none;" d="M660.333 204.667L660.667 205.333L660.333 204.667M56 205L53 230C58.9584 230 71.4495 227.523 75 233C79.7468 230.992 80.5934 227.928 81 223L59 223L62 205L56 205z"/>
<path style="fill:#9a168f; stroke:none;" d="M246 205L247 206L246 205z"/>
<path style="fill:#b38fbe; stroke:none;" d="M301 205L302 206L301 205z"/>
<path style="fill:#9a168f; stroke:none;" d="M416 205L417 206L416 205M549 205L550 206L549 205M61 206L62 207L61 206M120 206L121 207L120 206M349 206L350 207L349 206z"/>
<path style="fill:#b38fbe; stroke:none;" d="M416 206L416 209L417 209L416 206z"/>
<path style="fill:#9a168f; stroke:none;" d="M703 206L704 207L703 206z"/>
<path style="fill:#b38fbe; stroke:none;" d="M35 207L35 210L36 210L35 207z"/>
<path style="fill:#9a168f; stroke:none;" d="M631 207L632 208L631 207M674 207L675 208L674 207z"/>
<path style="fill:#b38fbe; stroke:none;" d="M703.333 207.667L703.667 208.333L703.333 207.667z"/>
<path style="fill:#9a168f; stroke:none;" d="M550 208L551 209L550 208M659 209L660 210L659 209M111 210L112 211L111 210z"/>
<path style="fill:#b38fbe; stroke:none;" d="M196.333 210.667L196.667 211.333L196.333 210.667M299 210L300 211L299 210z"/>
<path style="fill:#9a168f; stroke:none;" d="M377.333 210.667L377.667 211.333L377.333 210.667z"/>
<path style="fill:#b38fbe; stroke:none;" d="M376 221L377 221L377 218C388.21 218 407.769 222.884 411 210C403.876 210 384.329 206.542 378.742 211.028C376.305 212.984 376.362 218.15 376 221M487 220L488 220C496.492 213.566 515.205 217.154 516 229C522.379 225.731 525.385 216.886 518.671 212.009C514.363 208.88 494.054 207.566 489.742 211.028C487.492 212.833 487.495 217.374 487 220z"/>
<path style="fill:#9a168f; stroke:none;" d="M516 210L517 211L516 210M630 210L631 211L630 210z"/>
<path style="fill:#b38fbe; stroke:none;" d="M659 210L660 211L659 210M111 211L111 214L112 214L111 211z"/>
<path style="fill:#9a168f; stroke:none;" d="M118 211L119 212L118 211M247.333 211.667L247.667 212.333L247.333 211.667M488 211L489 212L488 211M196 212L197 213L196 212z"/>
<path style="fill:#b38fbe; stroke:none;" d="M237 212L238 213L237 212z"/>
<path style="fill:#9a168f; stroke:none;" d="M459 212L460 213L459 212z"/>
<path style="fill:#b38fbe; stroke:none;" d="M298 213L299 214L298 213z"/>
<path style="fill:#9a168f; stroke:none;" d="M520 213L521 214L520 213M658 213L659 214L658 213z"/>
<path style="fill:#b38fbe; stroke:none;" d="M36 214L37 215L36 214z"/>
<path style="fill:#9a168f; stroke:none;" d="M60 214L61 215L60 214z"/>
<path style="fill:#b38fbe; stroke:none;" d="M338 214L338 219L339 219L338 214z"/>
<path style="fill:#9a168f; stroke:none;" d="M348 214L349 215L348 214z"/>
<path style="fill:#b38fbe; stroke:none;" d="M583.333 214.667L583.667 215.333L583.333 214.667M658 214L659 215L658 214z"/>
<path style="fill:#9a168f; stroke:none;" d="M673 214L674 215L673 214z"/>
<path style="fill:#b38fbe; stroke:none;" d="M702 214L702 217L703 217L702 214M236 215L237 216L236 215M297 215L298 216L297 215z"/>
<path style="fill:#9a168f; stroke:none;" d="M551 215L551 220L552 220L551 215M554.333 215.667L554.667 216.333L554.333 215.667M628 215L629 216L628 215M583 216L584 217L583 216M7 217L8 218L7 217z"/>
<path style="fill:#b38fbe; stroke:none;" d="M37 217L38 218L37 217z"/>
<path style="fill:#9a168f; stroke:none;" d="M376 217L377 218L376 217M487 217L488 218L487 217M627 217L628 218L627 217z"/>
<path style="fill:#b38fbe; stroke:none;" d="M657 217L658 218L657 217M110 218L110 221L111 221L110 218M197 218L197 221L198 221L197 218z"/>
<path style="fill:#9a168f; stroke:none;" d="M235 218L236 219L235 218M248 218L249 219L248 218z"/>
<path style="fill:#b38fbe; stroke:none;" d="M296 218L297 219L296 218z"/>
<path style="fill:#fffeff; stroke:none;" d="M486 232L499 232C501.986 232 505.027 232.151 508 231.826C514.649 231.099 519.391 225.129 512.656 219.894C508.964 217.024 492.531 215.97 488.742 219.028C485.871 221.345 486.145 228.615 486 232z"/>
<path style="fill:#b38fbe; stroke:none;" d="M38 219L39 220L38 219z"/>
<path style="fill:#9a168f; stroke:none;" d="M115 219L116 220L115 219M205 219L206 220L205 219M338 219L339 220L338 219M458 219L459 220L458 219z"/>
<path style="fill:#b38fbe; stroke:none;" d="M584 219L585 220L584 219z"/>
<path style="fill:#9a168f; stroke:none;" d="M626 219L627 220L626 219M295 220L296 221L295 220M310.333 220.667L310.667 221.333L310.333 220.667z"/>
<path style="fill:#b38fbe; stroke:none;" d="M656 220L657 221L656 220z"/>
<path style="fill:#9a168f; stroke:none;" d="M39 221L40 222L39 221M59 221C62.8043 225.354 75.4388 223 81 223L81 222L59 221M234 221L235 222L234 221z"/>
<path style="fill:#b38fbe; stroke:none;" d="M295 221L296 222L295 221z"/>
<path style="fill:#9a168f; stroke:none;" d="M347 221L348 222L347 221z"/>
<path style="fill:#b38fbe; stroke:none;" d="M585 221L586 222L585 221z"/>
<path style="fill:#9a168f; stroke:none;" d="M672 221L673 222L672 221z"/>
<path style="fill:#fffeff; stroke:none;" d="M0 222L0 270L53 270L53 269C34.6026 268.618 15.2057 255.922 6.34877 240C3.17842 234.301 2.75778 227.727 0 222z"/>
<path style="fill:#b38fbe; stroke:none;" d="M40 222L41 223L40 222z"/>
<path style="fill:#9a168f; stroke:none;" d="M144 222L144 223L169 223L144 222M204 222L205 223L204 222z"/>
<path style="fill:#b38fbe; stroke:none;" d="M234 222L235 223L234 222z"/>
<path style="fill:#9a168f; stroke:none;" d="M655 222L656 223L655 222z"/>
<path style="fill:#b38fbe; stroke:none;" d="M701.333 222.667L701.667 223.333L701.333 222.667M141 230L161.566 231.028L164.576 241L168 268L216 268L218 260L174 260L170 223C161.144 223 143.047 218.83 141 230M294 223L295 224L294 223M586 223L587 224L586 223z"/>
<path style="fill:#9a168f; stroke:none;" d="M623 223L624 224L623 223z"/>
<path style="fill:#b38fbe; stroke:none;" d="M655 223L656 224L655 223z"/>
<path style="fill:#9a168f; stroke:none;" d="M113 224L114 225L113 224M142 224L143 225L142 224M233 224L234 225L233 224M249 224L250 225L249 224M486 224L487 225L486 224M622 224L623 225L622 224M203 225L204 226L203 225z"/>
<path style="fill:#b38fbe; stroke:none;" d="M233 225L234 226L233 225z"/>
<path style="fill:#9a168f; stroke:none;" d="M375 225L376 226L375 225z"/>
<path style="fill:#b38fbe; stroke:none;" d="M486.333 225.667L486.667 226.333L486.333 225.667z"/>
<path style="fill:#9a168f; stroke:none;" d="M520 225L521 226L520 225z"/>
<path style="fill:#b38fbe; stroke:none;" d="M587 225L588 226L587 225M654 225L655 226L654 225M293 226L294 227L293 226M375 226L375 229L376 229L375 226z"/>
<path style="fill:#9a168f; stroke:none;" d="M457 226L458 227L457 226z"/>
<path style="fill:#b38fbe; stroke:none;" d="M588 226L589 227L588 226M45 227L46 228L45 227z"/>
<path style="fill:#9a168f; stroke:none;" d="M80 227L81 228L80 227M232 227L233 228L232 227M550 227L551 228L550 227z"/>
<path style="fill:#b38fbe; stroke:none;" d="M653 227L654 228L653 227z"/>
<path style="fill:#9a168f; stroke:none;" d="M46 228L47 229L46 228M170.333 228.667L170.667 229.333L170.333 228.667M198 228L199 229L198 228M202 228L203 229L202 228z"/>
<path style="fill:#b38fbe; stroke:none;" d="M232 228L233 229L232 228z"/>
<path style="fill:#9a168f; stroke:none;" d="M292 228L293 229L292 228M346.333 228.667L346.667 229.333L346.333 228.667M671.333 228.667L671.667 229.333L671.333 228.667z"/>
<path style="fill:#b38fbe; stroke:none;" d="M48 229L49 230L48 229z"/>
<path style="fill:#9a168f; stroke:none;" d="M516 229L517 230L516 229z"/>
<path style="fill:#b38fbe; stroke:none;" d="M591 229L592 230L591 229M616 229L617 230L616 229M652 229L653 230L652 229z"/>
<path style="fill:#9a168f; stroke:none;" d="M700 229L701 230L700 229z"/>
<path style="fill:#b38fbe; stroke:none;" d="M50 230L51 231L50 230z"/>
<path style="fill:#9a168f; stroke:none;" d="M250 230L251 231L250 230z"/>
<path style="fill:#b38fbe; stroke:none;" d="M514 230L515 231L514 230M700.333 230.667L700.667 231.333L700.333 230.667M52 231L53 232L52 231z"/>
<path style="fill:#9a168f; stroke:none;" d="M201 231L202 232L201 231z"/>
<path style="fill:#b38fbe; stroke:none;" d="M231 231L232 232L231 231M291 231L292 232L291 231M510.667 231.333L511.333 231.667L510.667 231.333z"/>
<path style="fill:#9a168f; stroke:none;" d="M594 231L595 232L594 231z"/>
<path style="fill:#b38fbe; stroke:none;" d="M612 231L613 232L612 231M651 231L652 232L651 231M55.6667 232.333L56.3333 232.667L55.6667 232.333M139 232L140 233L139 232M597 232L598 233L597 232M609 232L610 233L609 232z"/>
<path style="fill:#9a168f; stroke:none;" d="M610 232L611 233L610 232z"/>
<path style="fill:#b38fbe; stroke:none;" d="M59 233L59 234L62 234L59 233M66 233L66 234L71 234L66 233z"/>
<path style="fill:#9a168f; stroke:none;" d="M71 233L72 234L71 233M456 233L457 234L456 233z"/>
<path style="fill:#b38fbe; stroke:none;" d="M601 233L601 234L606 234L601 233z"/>
<path style="fill:#9a168f; stroke:none;" d="M606 233L607 234L606 233M108.667 234.333L109.333 234.667L108.667 234.333M200 234L201 235L200 234z"/>
<path style="fill:#b38fbe; stroke:none;" d="M230 234L231 235L230 234M290 234L291 235L290 234M548 234L549 235L548 234M649 234L650 235L649 234M108.333 235.667L108.667 236.333L108.333 235.667M138 235L139 236L138 235z"/>
<path style="fill:#9a168f; stroke:none;" d="M345.333 235.667L345.667 236.333L345.333 235.667M171.333 236.667L171.667 237.333L171.333 236.667M199 236L200 237L199 236M251 236L252 237L251 236z"/>
<path style="fill:#b38fbe; stroke:none;" d="M289 236L290 237L289 236z"/>
<path style="fill:#9a168f; stroke:none;" d="M311.333 236.667L311.667 237.333L311.333 236.667M339 236L340 237L339 236z"/>
<path style="fill:#b38fbe; stroke:none;" d="M418 236L418 239L419 239L418 236M547 236L548 237L547 236z"/>
<path style="fill:#9a168f; stroke:none;" d="M670 236L671 237L670 236z"/>
<path style="fill:#b38fbe; stroke:none;" d="M137.333 237.667L137.667 238.333L137.333 237.667M229 237L230 238L229 237M647 237L648 238L647 237z"/>
<path style="fill:#9a168f; stroke:none;" d="M699 237L700 238L699 237M16 238L17 239L16 238z"/>
<path style="fill:#b38fbe; stroke:none;" d="M546 238L547 239L546 238z"/>
<path style="fill:#9a168f; stroke:none;" d="M561 238L562 239L561 238M646 238L647 239L646 238z"/>
<path style="fill:#b38fbe; stroke:none;" d="M699.333 238.667L699.667 239.333L699.333 238.667M288 239L289 240L288 239M136 240L137 241L136 240M228 240L229 241L228 240z"/>
<path style="fill:#9a168f; stroke:none;" d="M455 240L456 241L455 240z"/>
<path style="fill:#b38fbe; stroke:none;" d="M545 240L546 241L545 240M287 241L288 242L287 241z"/>
<path style="fill:#9a168f; stroke:none;" d="M544 241L545 242L544 241M563 241L564 242L563 241M135 242L136 243L135 242M344.333 242.667L344.667 243.333L344.333 242.667M417 242L418 243L417 242z"/>
<path style="fill:#b38fbe; stroke:none;" d="M643 242L644 243L643 242M135 243L136 244L135 243M227 243L228 244L227 243z"/>
<path style="fill:#9a168f; stroke:none;" d="M252 243L253 244L252 243z"/>
<path style="fill:#b38fbe; stroke:none;" d="M417 243L417 246L418 246L417 243M543 243L544 244L543 243M642 243L643 244L642 243z"/>
<path style="fill:#9a168f; stroke:none;" d="M669.333 243.667L669.667 244.333L669.333 243.667z"/>
<path style="fill:#b38fbe; stroke:none;" d="M286 244L287 245L286 244M542 244L543 245L542 244M641 244L642 245L641 244z"/>
<path style="fill:#9a168f; stroke:none;" d="M698 244L699 245L698 244z"/>
<path style="fill:#b38fbe; stroke:none;" d="M709 244L709 245L712 245L709 244M134 245L135 246L134 245z"/>
<path style="fill:#9a168f; stroke:none;" d="M172 245L173 246L172 245z"/>
<path style="fill:#b38fbe; stroke:none;" d="M640 245L641 246L640 245M698.333 245.667L698.667 246.333L698.333 245.667z"/>
<path style="fill:#03039a; stroke:none;" d="M704 249L710 246L704 249z"/>
<path style="fill:#9a168f; stroke:none;" d="M710.667 245.333L711.333 245.667L710.667 245.333z"/>
<path style="fill:#03039a; stroke:none;" d="M712 245L712 246L717 251L718 251L712 245z"/>
<path style="fill:#b38fbe; stroke:none;" d="M714 245L715 246L714 245M226 246L227 247L226 246M639 246L640 247L639 246M705 246L706 247L705 246M707 246L708 247L707 246z"/>
<path style="fill:#fffeff; stroke:none;" d="M708.109 246.747C700.858 249.715 705.615 261.072 712.942 258.242C720.508 255.32 715.783 243.606 708.109 246.747z"/>
<path style="fill:#b38fbe; stroke:none;" d="M638 247L639 248L638 247M704 247L705 248L704 247M715 247L716 248L715 247M133 248L134 249L133 248z"/>
<path style="fill:#9a168f; stroke:none;" d="M454 248L455 249L454 248z"/>
<path style="fill:#b38fbe; stroke:none;" d="M637 248L638 249L637 248z"/>
<path style="fill:#03039a; stroke:none;" d="M708 248L708 257L709 257L709 253L713 257L714 257L712 254L712 253L715 250L709 252L709 249L713 249L708 248z"/>
<path style="fill:#9a168f; stroke:none;" d="M713 248L713 250L715 250L713 248z"/>
<path style="fill:#b38fbe; stroke:none;" d="M717 248L718 249L717 248z"/>
<path style="fill:#9a168f; stroke:none;" d="M27 249L28 250L27 249z"/>
<path style="fill:#b38fbe; stroke:none;" d="M225.333 249.667L225.667 250.333L225.333 249.667z"/>
<path style="fill:#9a168f; stroke:none;" d="M253 249L254 250L253 249z"/>
<path style="fill:#b38fbe; stroke:none;" d="M284 249L285 250L284 249z"/>
<path style="fill:#9a168f; stroke:none;" d="M340 249L340 252L341 252L340 249M635 249L636 250L635 249z"/>
<path style="fill:#b38fbe; stroke:none;" d="M703.667 249.333L704.333 249.667L703.667 249.333z"/>
<path style="fill:#fffeff; stroke:none;" d="M709 249L709 252L713 252L713 249L709 249z"/>
<path style="fill:#9a168f; stroke:none;" d="M132 250L133 251L132 250M343 250L344 251L343 250z"/>
<path style="fill:#b38fbe; stroke:none;" d="M416 250L416 253L417 253L416 250z"/>
<path style="fill:#03039a; stroke:none;" d="M703 250L703 255L704 255L703 250z"/>
<path style="fill:#b38fbe; stroke:none;" d="M713 250L714 251L713 250z"/>
<path style="fill:#9a168f; stroke:none;" d="M312 251L312 254L313 254L312 251M535 251L536 252L535 251M668 251L669 252L668 251M697 251L698 252L697 251z"/>
<path style="fill:#b38fbe; stroke:none;" d="M714 251L715 252L714 251z"/>
<path style="fill:#9a168f; stroke:none;" d="M717 251L718 252L717 251z"/>
<path style="fill:#b38fbe; stroke:none;" d="M718 251L719 254L718 251M224.333 252.667L224.667 253.333L224.333 252.667M283 252L284 253L283 252M697 252L697 255L698 255L697 252M713 252L714 253L713 252z"/>
<path style="fill:#9a168f; stroke:none;" d="M33 253L34 254L33 253z"/>
<path style="fill:#b38fbe; stroke:none;" d="M131 253L132 254L131 253z"/>
<path style="fill:#9a168f; stroke:none;" d="M173 253L174 254L173 253M629 253L630 254L629 253z"/>
<path style="fill:#b38fbe; stroke:none;" d="M712 253L713 254L712 253z"/>
<path style="fill:#9a168f; stroke:none;" d="M717 253L718 254L717 253M282 254L283 255L282 254M627 254L628 255L627 254z"/>
<path style="fill:#b38fbe; stroke:none;" d="M704 254L703 256L704 254z"/>
<path style="fill:#03039a; stroke:none;" d="M717 254L716 257L717 254z"/>
<path style="fill:#9a168f; stroke:none;" d="M37 255L38 256L37 255M223 255L224 256L223 255M453 255L454 256L453 255M625 255L626 256L625 255M704 255L705 256L704 255z"/>
<path style="fill:#b38fbe; stroke:none;" d="M712 255L713 256L712 255z"/>
<path style="fill:#9a168f; stroke:none;" d="M39 256L40 257L39 256M96 256L97 257L96 256M100 256L101 257L100 256z"/>
<path style="fill:#b38fbe; stroke:none;" d="M130 256L131 257L130 256M223 256L224 257L223 256z"/>
<path style="fill:#9a168f; stroke:none;" d="M254 256L255 257L254 256z"/>
<path style="fill:#03039a; stroke:none;" d="M704 256L707 259L704 256z"/>
<path style="fill:#b38fbe; stroke:none;" d="M705 256L706 257L705 256M714 256L715 257L714 256M717 256L718 257L717 256z"/>
<path style="fill:#9a168f; stroke:none;" d="M41 257L42 258L41 257M93 257L94 258L93 257z"/>
<path style="fill:#b38fbe; stroke:none;" d="M281 257L282 258L281 257z"/>
<path style="fill:#9a168f; stroke:none;" d="M342 257L343 258L342 257M415 257L416 258L415 257M524 257L525 258L524 257M585 257L586 258L585 257M620 257L621 258L620 257z"/>
<path style="fill:#b38fbe; stroke:none;" d="M704 257L705 258L704 257z"/>
<path style="fill:#9a168f; stroke:none;" d="M715 257L715 259L717 257L715 257M90 258L91 259L90 258z"/>
<path style="fill:#b38fbe; stroke:none;" d="M129 258L130 259L129 258M415.333 258.667L415.667 259.333L415.333 258.667z"/>
<path style="fill:#9a168f; stroke:none;" d="M521 258L522 259L521 258M588 258L589 259L588 258M617 258L618 259L617 258z"/>
<path style="fill:#b38fbe; stroke:none;" d="M705 258L706 259L705 258M707 258L708 259L707 258M713 258L715 260L713 258z"/>
<path style="fill:#03039a; stroke:none;" d="M714 258L715 259L714 258z"/>
<path style="fill:#9a168f; stroke:none;" d="M99 259L100 260L99 259z"/>
<path style="fill:#b38fbe; stroke:none;" d="M222 259L223 260L222 259z"/>
<path style="fill:#9a168f; stroke:none;" d="M280 259L281 260L280 259M516 259L517 260L516 259M592 259L593 260L592 259M613 259L614 260L613 259M667 259L668 260L667 259z"/>
<path style="fill:#b38fbe; stroke:none;" d="M696 259L697 260L696 259z"/>
<path style="fill:#9a168f; stroke:none;" d="M707 259L708 260L707 259z"/>
<path style="fill:#03039a; stroke:none;" d="M708 259L708 260L714 260L708 259z"/>
<path style="fill:#9a168f; stroke:none;" d="M82 260L83 261L82 260M599 260L599 261L602 261L599 260M604 260L604 261L607 261L604 260M56 261L57 262L56 261M76 261L77 262L76 261z"/>
</svg>
